SplineFontDB: 3.2
FontName: Indus-Input-Fonts
FullName: Indus-Input-Font
FamilyName: Indus
Weight: Regular
Copyright: Copyright (c) 2025, Ram G Athreya
UComments: "2025-2-12: Created with FontForge (http://fontforge.org)"
Version: 001.000
ItalicAngle: 0
UnderlinePosition: -100
UnderlineWidth: 50
Ascent: 800
Descent: 200
InvalidEm: 0
LayerCount: 2
Layer: 0 0 "Back" 1
Layer: 1 0 "Fore" 0
XUID: [1021 226 -701567772 9511488]
StyleMap: 0x0000
FSType: 0
OS2Version: 0
OS2_WeightWidthSlopeOnly: 0
OS2_UseTypoMetrics: 1
CreationTime: 1739403220
ModificationTime: 1740107685
PfmFamily: 17
TTFWeight: 400
TTFWidth: 5
LineGap: 90
VLineGap: 90
OS2TypoAscent: 0
OS2TypoAOffset: 1
OS2TypoDescent: 0
OS2TypoDOffset: 1
OS2TypoLinegap: 90
OS2WinAscent: 0
OS2WinAOffset: 1
OS2WinDescent: 0
OS2WinDOffset: 1
HheadAscent: 0
HheadAOffset: 1
HheadDescent: 0
HheadDOffset: 1
OS2Vendor: 'PfEd'
Lookup: 1 0 0 "end_char substitutions" { "end_char substitutions"  } ['cv01' ('DFLT' <'dflt' > 'dev2' <'dflt' > ) ]
Lookup: 1 0 0 "start_char substitutions" { "start_char substitutions"  } ['cv02' ('DFLT' <'dflt' > 'dev2' <'dflt' > 'latn' <'dflt' > ) ]
Lookup: 4 0 1 "'dlig' Discretionary Ligatures lookup 0" { "aY dlig"  "ksha dlig"  "i dlig"  "as_ah dlig"  "baba dlig"  "ak dlig"  "an_am dlig"  } ['dlig' ('DFLT' <'dflt' > 'dev2' <'dflt' > 'latn' <'dflt' > ) ]
Lookup: 6 0 0 "'calt' Contextual Alternates in Devanagari2 lookup 2" { "start_char calt"  "end_char calt"  } ['calt' ('DFLT' <'dflt' > 'dev2' <'dflt' > ) ]
MarkAttachClasses: 1
DEI: 91125
ChainSub2: class "start_char calt" 2 2 1 1
  Class: 7 uni0930
  BClass: 7 uni0020
 1 1 0
  ClsList: 1
  BClsList: 1
  FClsList:
 1
  SeqLookup: 0 "start_char substitutions"
  ClassNames: "All_Others" "r"
  BClassNames: "All_Others" "space"
  FClassNames: "All_Others"
EndFPST
ChainSub2: class "end_char calt" 2 1 2 1
  Class: 7 uni0928
  FClass: 31 uni0020 uni000A uni0964 uni0965
 1 0 1
  ClsList: 1
  BClsList:
  FClsList: 1
 1
  SeqLookup: 0 "end_char substitutions"

StartChar: uni0902
Encoding: 4 2306 0
Width: 720
Flags: W
HStem: 589 61<59.8324 139.894 554.125 657.947> 710 57<61.3447 164.01 547.744 647.881> 718.5 42.5<601.181 662.935>
LayerCount: 2
Fore
SplineSet
61 755 m 0xc0
 68.3333333333 761.666666667 77 765.666666667 87 767 c 0xc0
 97 768.333333333 114.333333333 767.666666667 139 765 c 0
 178.333333333 760.333333333 204.5 754.666666667 217.5 748 c 0
 230.5 741.333333333 235.333333333 731 232 717 c 0
 228 701 220.666666667 652 210 570 c 0
 200 490 189.666666667 419.333333333 179 358 c 0
 168.333333333 284.666666667 161.666666667 232.666666667 159 202 c 0
 155 159.333333333 158.5 126.5 169.5 103.5 c 0
 180.5 80.5 211.333333333 40.3333333333 262 -17 c 0
 279.333333333 -35.6666666667 292.166666667 -49.3333333333 300.5 -58 c 0
 308.833333333 -66.6666666667 318.5 -74 329.5 -80 c 0
 340.5 -86 348.833333333 -88.6666666667 354.5 -88 c 0
 360.166666667 -87.3333333333 368.5 -83.1666666667 379.5 -75.5 c 0
 390.5 -67.8333333333 400.333333333 -58.6666666667 409 -48 c 0
 422 -32 422 -32 448 0 c 0
 494 56.6666666667 522 97.3333333333 532 122 c 0
 542 146.666666667 544.666666667 181 540 225 c 0
 535.333333333 275 523.333333333 368.666666667 504 506 c 0
 484.666666667 643.333333333 473.666666667 714.333333333 471 719 c 0
 464.333333333 730.333333333 474.666666667 740.666666667 502 750 c 0
 521.333333333 756.666666667 544.333333333 761 571 763 c 0
 609.666666667 765.666666667 635.5 765 648.5 761 c 0
 661.5 757 666.333333333 748 663 734 c 0
 661.666666667 726 657.166666667 720.833333333 649.5 718.5 c 0xa0
 641.833333333 716.166666667 625.333333333 715 600 715 c 0
 570 715 552.5 713.833333333 547.5 711.5 c 0
 542.5 709.166666667 540 700.333333333 540 685 c 0
 540 670.333333333 542.666666667 661.5 548 658.5 c 0
 553.333333333 655.5 570 652.666666667 598 650 c 0
 626.666666667 647.333333333 646.833333333 642.166666667 658.5 634.5 c 0
 670.166666667 626.833333333 673.333333333 616.666666667 668 604 c 0
 662 586 640 581 602 589 c 0
 574 595.666666667 558.333333333 593.5 555 582.5 c 0
 551.666666667 571.5 555 535.666666667 565 475 c 0
 593.666666667 309.666666667 603.333333333 197.666666667 594 139 c 0
 590 110.333333333 578.5 80.6666666667 559.5 50 c 0
 540.5 19.3333333333 505.666666667 -26.3333333333 455 -87 c 0
 422.333333333 -126.333333333 397.833333333 -149.5 381.5 -156.5 c 0
 365.166666667 -163.5 343.666666667 -160 317 -146 c 0
 302.333333333 -138 271.333333333 -108.666666667 224 -58 c 0
 176.666666667 -7.33333333333 142.333333333 33.3333333333 121 64 c 0
 104.333333333 88.6666666667 96 119.666666667 96 157 c 0
 96 194.333333333 104 264 120 366 c 0
 138 475.333333333 146 538.333333333 144 555 c 0
 142 569 134 578 120 582 c 0
 117.333333333 582.666666667 110 584 98 586 c 0
 79.3333333333 589.333333333 66.5 593.166666667 59.5 597.5 c 0
 52.5 601.833333333 48.3333333333 608.333333333 47 617 c 0
 45 630.333333333 50.3333333333 639.333333333 63 644 c 0
 75.6666666667 648.666666667 91 647.333333333 109 640 c 0
 128.333333333 632.666666667 141 629.666666667 147 631 c 0
 153 632.333333333 159 638.666666667 165 650 c 0
 175 667.333333333 174.833333333 681.666666667 164.5 693 c 0
 154.166666667 704.333333333 136.333333333 710 111 710 c 0
 73.6666666667 710 53.6666666667 717.666666667 51 733 c 0
 50.3333333333 739.666666667 53.6666666667 747 61 755 c 0xc0
EndSplineSet
Validated: 33
LCarets2: 2 0 0
EndChar

StartChar: uni0905
Encoding: 6 2309 1
Width: 512
Flags: W
VStem: 45 2<459.188 473.719> 202 75<235 337.625> 215 61<270.231 519.628 595 757.613>
LayerCount: 2
Fore
SplineSet
222 763 m 0xa0
 225.333333333 767.666666667 235.333333333 770 252 770 c 0
 263.333333333 770 270 766 272 758 c 0
 274 750 275 725 275 683 c 2
 276 595 l 1xa0
 357 554 l 2
 401.666666667 531.333333333 430.333333333 513.833333333 443 501.5 c 0
 455.666666667 489.166666667 457.666666667 476 449 462 c 0
 439.666666667 447.333333333 428.666666667 441.5 416 444.5 c 0
 403.333333333 447.5 381.333333333 460.666666667 350 484 c 0
 309.333333333 514.666666667 285.333333333 530 278 530 c 0
 270 530 267.666666667 481 271 383 c 2
 277 235 l 1
 339 125 l 2
 423 -23.6666666667 465 -114 465 -146 c 0
 465 -155.333333333 463.333333333 -161.666666667 460 -165 c 0
 456.666666667 -168.333333333 450.333333333 -170 441 -170 c 0
 431 -170 419.833333333 -161 407.5 -143 c 0
 395.166666667 -125 371.666666667 -83.3333333333 337 -18 c 0
 283.666666667 83.3333333333 253.666666667 135.333333333 247 138 c 0
 241 140 232.333333333 123.333333333 221 88 c 0
 207.666666667 42 188 -12 162 -74 c 0
 136 -136 119.333333333 -169.333333333 112 -174 c 0
 101.333333333 -180.666666667 90.8333333333 -181 80.5 -175 c 0
 70.1666666667 -169 65 -159.333333333 65 -146 c 0
 65 -130 88 -69.3333333333 134 36 c 2
 202 195 l 1xc0
 210 358 l 2
 214 466 213 520 207 520 c 0
 200.333333333 520 176.666666667 506.333333333 136 479 c 0
 82.6666666667 443 53 436.333333333 47 459 c 0
 45.6666666667 463 45 468 45 474 c 0
 45 488.666666667 53.5 502.666666667 70.5 516 c 0
 87.5 529.333333333 116.666666667 545.333333333 158 564 c 2
 215 589 l 1
 215 673 l 2
 215 729.666666667 217.333333333 759.666666667 222 763 c 0xa0
EndSplineSet
Validated: 33
EndChar

StartChar: uni0906
Encoding: 7 2310 2
Width: 917
Flags: W
VStem: 210 60<235 509.964 619 747.609> 617 65<238 504.778> 626 59<589.666 746.988>
LayerCount: 2
Fore
SplineSet
222 748 m 0xc0
 230 756 239.333333333 759.333333333 250 758 c 0
 260 755.333333333 266.666666667 726 270 670 c 2
 275 585 l 1
 365 536 l 1
 455 488 l 1
 538 531 l 2
 583.333333333 555.666666667 610.666666667 575 620 589 c 0
 629.333333333 603 631.333333333 629.666666667 626 669 c 0xa0
 622.666666667 695.666666667 624.666666667 716.333333333 632 731 c 0
 639.333333333 745.666666667 650.666666667 751.333333333 666 748 c 0
 674.666666667 746.666666667 680 741.333333333 682 732 c 0xc0
 684 722.666666667 685 700.333333333 685 665 c 2
 685 586 l 1
 770 540 l 2
 805.333333333 520.666666667 828.333333333 506.5 839 497.5 c 0
 849.666666667 488.5 855 479 855 469 c 0
 855 442.333333333 839.333333333 434.333333333 808 445 c 0
 791.333333333 451 771.666666667 462.333333333 749 479 c 0
 714.333333333 506.333333333 693 520 685 520 c 0xa0
 678.333333333 520 676 473 678 379 c 2
 682 238 l 1
 776 72 l 2
 799.333333333 30.6666666667 817.666666667 -3.33333333333 831 -30 c 0
 844.333333333 -56.6666666667 854.166666667 -79 860.5 -97 c 0
 866.833333333 -115 869.5 -128.166666667 868.5 -136.5 c 0
 867.5 -144.833333333 863.333333333 -150.333333333 856 -153 c 0
 844.666666667 -157.666666667 830.5 -148.166666667 813.5 -124.5 c 0
 796.5 -100.833333333 770.333333333 -55 735 13 c 0
 690.333333333 97.6666666667 663.666666667 140 655 140 c 0
 646.333333333 140 639.666666667 131 635 113 c 0
 631.666666667 99 616.833333333 56.8333333333 590.5 -13.5 c 0
 564.166666667 -83.8333333333 547.666666667 -126 541 -140 c 0
 535.666666667 -150.666666667 525 -155.666666667 509 -155 c 0
 493 -154.333333333 484 -148.666666667 482 -138 c 0
 480 -127.333333333 502 -67.3333333333 548 42 c 2
 617 205 l 1
 623 352 l 2
 626.333333333 450 625.666666667 501 621 505 c 0
 614.333333333 507.666666667 588.666666667 494.333333333 544 465 c 0
 498.666666667 435 469 420 455 420 c 0
 443 420 410.333333333 436.666666667 357 470 c 0
 305.666666667 503.333333333 276.666666667 520 270 520 c 0
 264 520 262.666666667 472.666666667 266 378 c 2
 272 235 l 1
 323 150 l 2
 436.333333333 -40.6666666667 471.666666667 -140 429 -148 c 0
 423.666666667 -149.333333333 413.666666667 -138.833333333 399 -116.5 c 0
 384.333333333 -94.1666666667 363.333333333 -57.3333333333 336 -6 c 0
 285.333333333 90 257 140.333333333 251 145 c 0
 245 148.333333333 238.5 144.666666667 231.5 134 c 0
 224.5 123.333333333 217.666666667 106 211 82 c 0
 203.666666667 54.6666666667 186.666666667 8 160 -58 c 0
 133.333333333 -124.666666667 111.666666667 -158.666666667 95 -160 c 0
 87 -160.666666667 78.6666666667 -155.666666667 70 -145 c 0
 60.6666666667 -134.333333333 60.6666666667 -120 70 -102 c 0
 84 -71.3333333333 109 -14 145 70 c 2
 208 216 l 1
 211 363 l 2
 213.666666667 461 210.666666667 510 202 510 c 0
 192.666666667 510 170.666666667 498 136 474 c 0
 75.3333333333 434 45 432.666666667 45 470 c 0
 45 480.666666667 50.1666666667 490.166666667 60.5 498.5 c 0
 70.8333333333 506.833333333 93.3333333333 520 128 538 c 2
 210 581 l 1
 210 658 l 2
 210 710 214 740 222 748 c 0xc0
EndSplineSet
Validated: 33
EndChar

StartChar: uni0907
Encoding: 8 2311 3
Width: 450
Flags: W
HStem: -160 49<72.0976 326.661> 55.5 55.5<74.1592 214> 281 54<77.9316 227> 518 59<79.2538 110.5 202 268.5>
VStem: 332 55<-103.641 -19 579.23 641 674 695>
LayerCount: 2
Fore
SplineSet
369 749 m 0
 355.666992188 757 304 760.666992188 214 760 c 0
 124 759.333007812 77.3330078125 755 74 747 c 0
 69.3330078125 733 75 723.5 91 718.5 c 0
 107 713.5 145.666992188 708.666992188 207 704 c 2
 332 695 l 1
 335 641 l 2
 337 604.333007812 333.666992188 583.666992188 325 579 c 0
 316.333007812 574.333007812 275.333007812 573.666992188 202 577 c 0
 156.666992188 579.666992188 126.166992188 580.333007812 110.5 579 c 0
 94.8330078125 577.666992188 84.3330078125 574 79 568 c 0
 70.3330078125 556.666992188 68.3330078125 546.333007812 73 537 c 0
 75.6669921875 530.333007812 85.1669921875 525.833007812 101.5 523.5 c 0
 117.833007812 521.166992188 152.333007812 519.333007812 205 518 c 2
 332 515 l 1
 332 425 l 1
 332 335 l 1
 227 338 l 2
 162.333007812 340 121.166992188 339 103.5 335 c 0
 85.8330078125 331 77 321 77 305 c 2
 77 281 l 1
 204 278 l 1
 332 275 l 1
 332 195 l 1
 332 115 l 1
 222 113 l 2
 140.666992188 111.666992188 98.6669921875 111 96 111 c 0
 84.6669921875 109.666992188 77.3330078125 102.666992188 74 90 c 0
 69.3330078125 72 76 60.5 94 55.5 c 0
 112 50.5 152 49 214 51 c 2
 332 55 l 1
 335 -19 l 2
 337 -68.3330078125 334.333007812 -96.6669921875 327 -104 c 0
 320.333007812 -110.666992188 278 -113 200 -111 c 0
 122.666992188 -109 81.3330078125 -112.333007812 76 -121 c 0
 66 -137 72.3330078125 -147.666992188 95 -153 c 0
 115.666992188 -157.666992188 158 -160 222 -160 c 0
 309.333007812 -160 359 -158 371 -154 c 0
 378.333007812 -151.333007812 382.833007812 -124.833007812 384.5 -74.5 c 0
 386.166992188 -24.1669921875 387 99.3330078125 387 296 c 0
 387 502.666992188 386.166992188 628.666992188 384.5 674 c 0
 382.833007812 719.333007812 377.666992188 744.333007812 369 749 c 0
EndSplineSet
Validated: 41
EndChar

StartChar: uni0908
Encoding: 9 2312 4
Width: 878
Flags: W
HStem: -163 48<63.2847 269.214 506.846 748> 55 50<68 280.5 498 710.5> 280 55<68 295.45 522.467 743.84> 522 58<68 297.45 498 673> 713 54.5<75.343 307> 717 45<65.067 215.812 495.066 600.794>
VStem: 318 50<335.625 493> 748 55<-115 49 115 275 342.423 519 585 704.238>
LayerCount: 2
Fore
SplineSet
75 762 m 0xf7
 81.6666666667 767.333333333 130 768.666666667 220 766 c 0
 310 763.333333333 357.333333333 759.333333333 362 754 c 0
 366 750 368 598.5 368 299.5 c 0
 368 0.5 365.666666667 -151 361 -155 c 0
 357.666666667 -159 308.666666667 -161.666666667 214 -163 c 0
 116.666666667 -164.333333333 64 -159.666666667 56 -149 c 0
 52 -143.666666667 54.3333333333 -135.666666667 63 -125 c 0
 69 -117.666666667 79.6666666667 -113.5 95 -112.5 c 0
 110.333333333 -111.5 143.333333333 -112.333333333 194 -115 c 2
 311 -122 l 1
 318 -79 l 2
 322.666666667 -51.6666666667 323.666666667 -23.6666666667 321 5 c 2
 318 45 l 1
 193 50 l 1
 68 55 l 1
 68 80 l 1
 68 105 l 1
 189 108 l 1
 310 111 l 1
 317 171 l 2
 320.333333333 211.666666667 320.333333333 240 317 256 c 0
 314.333333333 268 307.333333333 275 296 277 c 0
 284.666666667 279 248 280 186 280 c 2
 62 280 l 1
 65 308 l 1
 68 335 l 1
 188 335 l 1
 307 335 l 1
 314 375 l 2
 318 397 318.666666667 427.666666667 316 467 c 2
 310 519 l 1
 189 522 l 1
 68 525 l 1
 65 553 l 1
 62 580 l 1
 187 580 l 2
 249.666666667 580 286.666666667 581 298 583 c 0
 309.333333333 585 316.333333333 592.333333333 319 605 c 0
 323 622.333333333 322 643 316 667 c 2
 307 705 l 1
 188 710 l 2
 134.666666667 712 101.166666667 714.333333333 87.5 717 c 0
 73.8333333333 719.666666667 66.3333333333 725.333333333 65 734 c 0
 62.3333333333 746.666666667 65.6666666667 756 75 762 c 0xf7
505 762 m 0
 512.333333333 767.333333333 559.5 769.166666667 646.5 767.5 c 0
 733.5 765.833333333 781.666666667 762.333333333 791 757 c 0
 795.666666667 753.666666667 798.833333333 719.5 800.5 654.5 c 0
 802.166666667 589.5 803 470 803 296 c 2
 803 -157 l 1
 721 -163 l 2
 595 -173 523 -172.333333333 505 -161 c 0
 495.666666667 -155 492.333333333 -146 495 -134 c 0
 495.666666667 -129.333333333 497.166666667 -125.833333333 499.5 -123.5 c 0
 501.833333333 -121.166666667 508 -119.333333333 518 -118 c 0
 528 -116.666666667 540.333333333 -115.833333333 555 -115.5 c 0
 569.666666667 -115.166666667 592.333333333 -115 623 -115 c 2
 748 -115 l 1
 751 -33 l 1
 754 49 l 1
 626 52 l 1
 498 55 l 1
 498 80 l 1
 498 105 l 1
 623 110 l 1
 748 115 l 1
 748 195 l 1
 748 275 l 1
 623 280 l 2
 563 282.666666667 527 285.166666667 515 287.5 c 0
 503 289.833333333 496.333333333 296.333333333 495 307 c 0
 492.333333333 322.333333333 501.166666667 332 521.5 336 c 0
 541.833333333 340 581.333333333 340 640 336 c 0
 677.333333333 333.333333333 703.166666667 332.333333333 717.5 333 c 0
 731.833333333 333.666666667 740.666666667 336.666666667 744 342 c 0
 750 350.666666667 753 382.333333333 753 437 c 2
 753 519 l 1
 626 522 l 1
 498 525 l 1
 498 550 l 1
 498 575 l 1
 623 580 l 1
 748 585 l 1
 751 642 l 2
 751 643 751 643 751 646 c 0
 753 677.333333333 748.333333333 695.833333333 737 701.5 c 0
 725.666666667 707.166666667 685 711 615 713 c 0
 607 713 607 713 603 713 c 0xfb
 555.666666667 714.333333333 526.166666667 716 514.5 718 c 0
 502.833333333 720 496.333333333 725.333333333 495 734 c 0
 492.333333333 746.666666667 495.666666667 756 505 762 c 0
EndSplineSet
Validated: 33
EndChar

StartChar: uni0909
Encoding: 10 2313 5
Width: 707
Flags: W
HStem: -60 100<324.568 385.976> 590 78<315.722 373.402>
VStem: 200 51<142.779 364.121> 446.5 68<168.812 493.139>
LayerCount: 2
Fore
SplineSet
60 763 m 0
 77.3333333333 770.333333333 92.6666666667 769.333333333 106 760 c 0
 119.333333333 750.666666667 138.333333333 727.666666667 163 691 c 0
 191 649 212.333333333 618.666666667 227 600 c 2
 247 575 l 1
 272 605 l 2
 296 633.666666667 312.833333333 651.666666667 322.5 659 c 0
 332.166666667 666.333333333 343.333333333 669.333333333 356 668 c 0
 373.333333333 666 389.333333333 653.333333333 404 630 c 0
 426 594.666666667 442 572.166666667 452 562.5 c 0
 462 552.833333333 470.666666667 551 478 557 c 0
 488 564.333333333 511 600 547 664 c 0
 573 708.666666667 593.333333333 738.5 608 753.5 c 0
 622.666666667 768.5 635.666666667 772.333333333 647 765 c 0
 660.333333333 757 658.333333333 733 641 693 c 0
 623.666666667 653 597.333333333 610.333333333 562 565 c 0
 534.666666667 530.333333333 518.666666667 504.333333333 514 487 c 0
 509.333333333 469.666666667 508.666666667 434.333333333 512 381 c 0
 515.333333333 342.333333333 516.166666667 311.166666667 514.5 287.5 c 0
 512.833333333 263.833333333 508.666666667 237.333333333 502 208 c 2
 484 132 l 1
 570 9 l 2
 592 -23 609.333333333 -48.8333333333 622 -68.5 c 0
 634.666666667 -88.1666666667 643.833333333 -104.833333333 649.5 -118.5 c 0
 655.166666667 -132.166666667 657.166666667 -142.333333333 655.5 -149 c 0
 653.833333333 -155.666666667 649 -160.666666667 641 -164 c 0
 627 -169.333333333 612.666666667 -164.333333333 598 -149 c 0
 583.333333333 -133.666666667 560.333333333 -99.3333333333 529 -46 c 0
 486.333333333 24.6666666667 462.333333333 61.6666666667 457 65 c 0
 455.666666667 66.3333333333 453 65.1666666667 449 61.5 c 0
 445 57.8333333333 440.666666667 52.3333333333 436 45 c 0
 431.333333333 37.6666666667 427 29.6666666667 423 21 c 0
 395.666666667 -33 372.666666667 -60 354 -60 c 0
 347.333333333 -60 327.333333333 -42.6666666667 294 -8 c 2
 246 45 l 1
 217 13 l 2
 200.333333333 -5.66666666667 177.333333333 -39.3333333333 148 -88 c 0
 126.666666667 -125.333333333 111 -148.166666667 101 -156.5 c 0
 91 -164.833333333 78.6666666667 -165.333333333 64 -158 c 0
 49.3333333333 -150.666666667 45 -138 51 -120 c 0
 57 -102 75 -73.3333333333 105 -34 c 0
 107.666666667 -30 111.666666667 -24.6666666667 117 -18 c 0
 164.333333333 45.3333333333 191.5 84 198.5 98 c 0
 205.5 112 206 129.333333333 200 150 c 0
 200 152.666666667 199.666666667 154.666666667 199 156 c 0
 176.333333333 240.666666667 173.666666667 328.333333333 191 419 c 2
 208 503 l 1
 172 557 l 2
 158 578.333333333 131 616.666666667 91 672 c 0
 68.3333333333 702.666666667 54.6666666667 724.5 50 737.5 c 0
 45.3333333333 750.5 48.6666666667 759 60 763 c 0
383 558 m 0
 364.333333333 579.333333333 350.333333333 590 341 590 c 0
 333.666666667 590 321.5 577.666666667 304.5 553 c 0
 287.5 528.333333333 274.666666667 505 266 483 c 0
 259.333333333 465 254.333333333 422.666666667 251 356 c 0
 244.333333333 246 259.666666667 154 297 80 c 0
 305.666666667 63.3333333333 313.166666667 52.5 319.5 47.5 c 0
 325.833333333 42.5 334.666666667 40 346 40 c 0
 364.666666667 40 378 45.6666666667 386 57 c 0
 394 68.3333333333 406.333333333 99.3333333333 423 150 c 0
 435 186.666666667 442.833333333 216.333333333 446.5 239 c 0
 450.166666667 261.666666667 451.666666667 293.666666667 451 335 c 0
 451 389 446.166666667 431.833333333 436.5 463.5 c 0
 426.833333333 495.166666667 409 526.666666667 383 558 c 0
EndSplineSet
EndChar

StartChar: uni090F
Encoding: 16 2319 6
Width: 789
Flags: HW
LayerCount: 2
Fore
SplineSet
386 685 m 0
 381.333333333 688.333333333 368.666666667 655 348 585 c 0
 344.666666667 573 343.666666667 566.333333333 345 565 c 0
 348.333333333 561.666666667 360.333333333 559.666666667 381 559 c 0
 405.666666667 559 420.166666667 560.166666667 424.5 562.5 c 128
 428.833333333 564.833333333 428.666666667 571.333333333 424 582 c 0
 405.333333333 646 392.666666667 680.333333333 386 685 c 0
375 758 m 0
 381.666666667 766 389.666666667 766.333333333 399 759 c 128
 408.333333333 751.666666667 413 745 413 739 c 128
 413 733 450.833333333 630.833333333 526.5 432.5 c 128
 602.166666667 234.166666667 656.333333333 94.3333333333 689 13 c 0
 725 -73.6666666667 743 -124 743 -138 c 0
 743 -151.333333333 723.166666667 -160 683.5 -164 c 128
 643.833333333 -168 560 -170 432 -170 c 0
 172.666666667 -170 43 -161.666666667 43 -145 c 0
 43 -137 68.3333333333 -65 119 71 c 0
 127 92.3333333333 151.333333333 158.333333333 192 269 c 128
 232.666666667 379.666666667 262 460 280 510 c 0
 336 666.666666667 367.666666667 749.333333333 375 758 c 0
451 493 m 0
 449.666666667 502.333333333 445.666666667 508.5 439 511.5 c 128
 432.333333333 514.5 417 516.666666667 393 518 c 0
 339.666666667 520.666666667 313 509 313 483 c 0
 313 474.333333333 336.666666667 470 384 470 c 0
 417.333333333 470 437.166666667 471.166666667 443.5 473.5 c 128
 449.833333333 475.833333333 452.333333333 482.333333333 451 493 c 0
480 412 m 0
 470.666666667 417.333333333 439.333333333 420 386 420 c 0
 349.333333333 420 325.666666667 418.833333333 315 416.5 c 128
 304.333333333 414.166666667 295.666666667 408 289 398 c 0
 278.333333333 383.333333333 275.666666667 373.333333333 281 368 c 128
 286.333333333 362.666666667 324 360.666666667 394 362 c 0
 443.333333333 363.333333333 472.833333333 365.166666667 482.5 367.5 c 128
 492.166666667 369.833333333 496.333333333 375.666666667 495 385 c 0
 492.333333333 397.666666667 487.333333333 406.666666667 480 412 c 0
514 310 m 0
 496 319.333333333 432.333333333 319.666666667 323 311 c 0
 289 308.333333333 267.833333333 305.5 259.5 302.5 c 128
 251.166666667 299.5 246.333333333 293 245 283 c 0
 243.666666667 271.666666667 248.833333333 265 260.5 263 c 128
 272.166666667 261 314.333333333 260 387 260 c 0
 456.333333333 260 498 261 512 263 c 128
 526 265 533 270.666666667 533 280 c 0
 533 292.666666667 526.666666667 302.666666667 514 310 c 0
572 188 m 0
 568 198.666666667 558.333333333 205 543 207 c 128
 527.666666667 209 478.333333333 210 395 210 c 0
 347.666666667 210 312.833333333 209.666666667 290.5 209 c 128
 268.166666667 208.333333333 249.5 206.333333333 234.5 203 c 128
 219.5 199.666666667 210.5 195.5 207.5 190.5 c 128
 204.5 185.5 203 178 203 168 c 0
 203 159.333333333 212.166666667 154.166666667 230.5 152.5 c 128
 248.833333333 150.833333333 301 150 387 150 c 0
 511 150 574 152.666666667 576 158 c 0
 579.333333333 162.666666667 578 172.666666667 572 188 c 0
613 79 m 0
 607.666666667 89 594.833333333 95 574.5 97 c 128
 554.166666667 99 493.666666667 100 393 100 c 128
 292.333333333 100 231.833333333 99 211.5 97 c 128
 191.166666667 95 178.333333333 89 173 79 c 0
 164.333333333 65 162.666666667 56 168 52 c 0
 171.333333333 48.6666666667 246.666666667 47.3333333333 394 48 c 128
 541.333333333 48.6666666667 617 50.6666666667 621 54 c 0
 624.333333333 57.3333333333 621.666666667 65.6666666667 613 79 c 0
651 -27 m 1
 648 -5 l 1
 397 -2 l 2
 231 -0.666666666667 145.333333333 -2 140 -6 c 0
 135.333333333 -10.6666666667 133 -19.3333333333 133 -32 c 0
 133 -40.6666666667 145.666666667 -45.8333333333 171 -47.5 c 128
 196.333333333 -49.1666666667 270.666666667 -50 394 -50 c 2
 654 -50 l 1
 651 -27 l 1
682 -105 m 0
 678.666666667 -101.666666667 593.333333333 -98.8333333333 426 -96.5 c 128
 258.666666667 -94.1666666667 163.333333333 -94.3333333333 140 -97 c 0
 132 -97.6666666667 125.333333333 -98.8333333333 120 -100.5 c 128
 114.666666667 -102.166666667 110.666666667 -104 108 -106 c 128
 105.333333333 -108 104.666666667 -110.333333333 106 -113 c 0
 108.666666667 -121 202.666666667 -126 388 -128 c 128
 573.333333333 -130 669.666666667 -127.333333333 677 -120 c 0
 683 -114 684.666666667 -109 682 -105 c 0
EndSplineSet
EndChar

StartChar: uni0903
Encoding: 5 2307 7
Width: 833
Flags: W
HStem: 0 21G<716.833 721.167>
VStem: 422.5 90<280.51 351.938> 727 48<65.4587 279 294 322.065>
LayerCount: 2
Fore
SplineSet
776.5 761 m 0
 772.5 767.666992188 765.833007812 770.333007812 756.5 769 c 0
 747.166992188 767.666992188 738.166992188 762.333007812 729.5 753 c 0
 720.166992188 742.333007812 662.166992188 659 555.5 503 c 0
 534.833007812 471.666992188 515.666992188 445 498 423 c 0
 480.333007812 401 469.833007812 390 466.5 390 c 0
 462.5 390 457.666992188 393.166992188 452 399.5 c 0
 446.333007812 405.833007812 441.166992188 413.666992188 436.5 423 c 0
 427.833007812 439.666992188 392.166992188 497 329.5 595 c 0
 266.833007812 693 231.166992188 747.333007812 222.5 758 c 0
 214.5 766 208.166992188 770 203.5 770 c 0
 200.833007812 770 192.333007812 762 178 746 c 0
 163.666992188 730 147.833007812 711 130.5 689 c 0
 97.8330078125 646.333007812 79 616.166992188 74 598.5 c 0
 69 580.833007812 74.8330078125 563.333007812 91.5 546 c 0
 103.5 534.666992188 113.666992188 531.5 122 536.5 c 0
 130.333007812 541.5 142.5 559.333007812 158.5 590 c 0
 165.833007812 604 173.5 615.833007812 181.5 625.5 c 0
 189.5 635.166992188 195.166992188 640 198.5 640 c 0
 204.5 640 243.333007812 587.666992188 315 483 c 0
 386.666992188 378.333007812 422.5 321.666992188 422.5 313 c 0
 422.5 309 408.166992188 288.333007812 379.5 251 c 0
 350.166992188 213 314.833007812 163.666992188 273.5 103 c 0
 232.166992188 41 208.833007812 10 203.5 10 c 0
 198.833007812 10 181.833007812 28.6669921875 152.5 66 c 0
 105.833007812 128 79.8330078125 133 74.5 81 c 0
 72.5 59 77.8330078125 40.6669921875 90.5 26 c 0
 101.166992188 15.3330078125 119.833007812 -10.6669921875 146.5 -52 c 0
 155.833007812 -67.3330078125 165 -80.8330078125 174 -92.5 c 0
 183 -104.166992188 188.833007812 -110 191.5 -110 c 0
 198.166992188 -110 215.666992188 -92 244 -56 c 0
 272.333007812 -20 303.5 23.6669921875 337.5 75 c 0
 382.833007812 142.333007812 414.5 188.166992188 432.5 212.5 c 0
 450.5 236.833007812 462.166992188 249.333007812 467.5 250 c 0
 474.166992188 250 490.833007812 227 517.5 181 c 0
 553.5 118.333007812 600.833007812 45 659.5 -39 c 0
 718.166992188 -123 751.166992188 -165 758.5 -165 c 0
 761.833007812 -165 764.333007812 -159.833007812 766 -149.5 c 0
 767.666992188 -139.166992188 769.333007812 -116.333007812 771 -81 c 0
 772.666992188 -45.6669921875 774 0.1669921875 775 56.5 c 0
 776 112.833007812 776.833007812 192 777.5 294 c 0
 781.5 598 781.166992188 753.666992188 776.5 761 c 0
627.5 495 m 0
 670.833007812 559.666992188 697.833007812 598 708.5 610 c 0
 714.5 616 718.5 618.833007812 720.5 618.5 c 0
 722.5 618.166992188 723.833007812 613.666992188 724.5 605 c 0
 727.833007812 573.666992188 728.666992188 465 727 279 c 0
 725.333007812 93 722.833007812 0 719.5 0 c 0
 714.166992188 0 695.833007812 25.3330078125 664.5 76 c 0
 627.833007812 134 594.5 185.666992188 564.5 231 c 0
 529.833007812 285.666992188 512.5 316 512.5 322 c 0
 512.5 328 520.166992188 342 535.5 364 c 0
 546.166992188 377.333007812 576.833007812 421 627.5 495 c 0
EndSplineSet
EndChar

StartChar: uni0915
Encoding: 22 2325 8
Width: 515
Flags: W
VStem: 218 82.5<229.613 367.295>
LayerCount: 2
Fore
SplineSet
52 755 m 0
 54.6666666667 763 60 767.666666667 68 769 c 0
 76 770.333333333 85 768 95 762 c 0
 102.333333333 757.333333333 126.666666667 705 168 605 c 0
 177.333333333 581 187.666666667 555.333333333 199 528 c 0
 210.333333333 500.666666667 219.5 478.333333333 226.5 461 c 0
 233.5 443.666666667 237.666666667 433.666666667 239 431 c 0
 241.666666667 424.333333333 244.833333333 419.5 248.5 416.5 c 0
 252.166666667 413.5 255.333333333 413.333333333 258 416 c 0
 263.333333333 421.333333333 285 476 323 580 c 0
 352.333333333 660 373.333333333 711.666666667 386 735 c 0
 398.666666667 758.333333333 411.333333333 767.666666667 424 763 c 0
 430 761 434.5 758 437.5 754 c 0
 440.5 750 442.333333333 744.166666667 443 736.5 c 0
 443.666666667 728.833333333 442.833333333 719.833333333 440.5 709.5 c 0
 438.166666667 699.166666667 434 685.333333333 428 668 c 0
 422 650.666666667 414.833333333 631.333333333 406.5 610 c 0
 398.166666667 588.666666667 387.333333333 562.333333333 374 531 c 0
 356.666666667 489.666666667 343.833333333 458.833333333 335.5 438.5 c 0
 327.166666667 418.166666667 319.5 396.166666667 312.5 372.5 c 0
 305.5 348.833333333 301.5 331.833333333 300.5 321.5 c 0
 299.5 311.166666667 300.166666667 297.833333333 302.5 281.5 c 0
 304.833333333 265.166666667 308.5 251.333333333 313.5 240 c 0
 318.5 228.666666667 326.333333333 212.666666667 337 192 c 0
 360.333333333 145.333333333 387.5 86 418.5 14 c 0
 449.5 -58 466 -99.3333333333 468 -110 c 0
 470 -126.666666667 469.333333333 -137.5 466 -142.5 c 0
 462.666666667 -147.5 454.333333333 -149.333333333 441 -148 c 0
 431.666666667 -146.666666667 423.666666667 -142.333333333 417 -135 c 0
 410.333333333 -127.666666667 401.833333333 -113.5 391.5 -92.5 c 0
 381.166666667 -71.5 364.666666667 -34 342 20 c 0
 322 67.3333333333 304 106.666666667 288 138 c 0
 272 169.333333333 262 185 258 185 c 256
 254 185 249.5 181.166666667 244.5 173.5 c 0
 239.5 165.833333333 235 156.333333333 231 145 c 0
 215 100.333333333 190.666666667 41.5 158 -31.5 c 0
 125.333333333 -104.5 104.666666667 -145.666666667 96 -155 c 0
 86 -165 79.6666666667 -170 77 -170 c 0
 74.3333333333 -170 69.6666666667 -165.333333333 63 -156 c 0
 57 -148.666666667 53.5 -142 52.5 -136 c 0
 51.5 -130 54 -117.166666667 60 -97.5 c 0
 66 -77.8333333333 74.3333333333 -55.5 85 -30.5 c 0
 95.6666666667 -5.5 113.666666667 35 139 91 c 0
 160.333333333 139 178.833333333 183.333333333 194.5 224 c 0
 210.166666667 264.666666667 218 289.333333333 218 298 c 256
 218 306.666666667 210.166666667 331.666666667 194.5 373 c 0
 178.833333333 414.333333333 160 459.666666667 138 509 c 0
 95.3333333333 604.333333333 69.1666666667 666.166666667 59.5 694.5 c 0
 49.8333333333 722.833333333 47.3333333333 743 52 755 c 0
  Spiro
    52 755 o
    58 764.5 o
    68 769 o
    80.75 768.25 o
    95 762 o
    118.75 719.25 o
    168 605 o
    182.75 567.75 o
    199 528 o
    214.375 490.75 o
    226.5 461 o
    234.875 440.5 o
    239 431 o
    243.375 422.375 o
    248.5 416.5 o
    253.625 414.125 o
    258 416 o
    278.25 461 o
    323 580 o
    360.75 678.75 o
    386 735 o
    405 759.5 o
    424 763 o
    431.875 759.25 o
    437.5 754 o
    441.125 746.625 o
    443 736.5 o
    442.875 724 o
    440.5 709.5 o
    435.625 691.375 o
    428 668 o
    418.125 640.5 o
    406.5 610 o
    392.125 574.25 o
    374 531 o
    351.375 476.875 o
    335.5 438.5 o
    323.5 406.75 o
    312.5 372.5 o
    304.25 342 o
    300.5 321.5 o
    300.25 303.75 o
    302.5 281.5 o
    307 258.875 o
    313.5 240 o
    323.125 219.5 o
    337 192 o
    374.875 112.5 o
    418.5 14 o
    454.125 -71 o
    468 -110 o
    469 -130.625 o
    466 -142.5 o
    457.25 -147.625 o
    441 -148 o
    428 -143.75 o
    417 -135 o
    405.625 -118.875 o
    391.5 -92.5 o
    371.375 -48.625 o
    342 20 o
    313.5 85 o
    288 138 o
    268.5 173.25 o
    258 185 o
    251.625 182.125 o
    244.5 173.5 o
    237.375 160.625 o
    231 145 o
    200.75 67.375 o
    158 -31.5 o
    118 -117.125 o
    96 -155 o
    83.75 -166.25 o
    77 -170 o
    71.5 -166.5 o
    63 -156 o
    55.875 -145.5 o
    52.5 -136 o
    53.625 -121.875 o
    60 -97.5 o
    70.75 -66 o
    85 -30.5 o
    106.5 18.625 o
    139 91 o
    168.875 160.25 o
    194.5 224 o
    212.125 273 o
    218 298 o
    212.125 323.25 o
    194.5 373 o
    168.625 438 o
    138 509 o
    86.375 626.875 o
    59.5 694.5 o
    50.375 730.875 o
    0 0 z
  EndSpiro
EndSplineSet
EndChar

StartChar: uni0916
Encoding: 23 2326 9
Width: 515
Flags: W
VStem: 218 82.5<229.613 367.295>
LayerCount: 2
Fore
SplineSet
52 755 m 0
 54.6666666667 763 60 767.666666667 68 769 c 0
 76 770.333333333 85 768 95 762 c 0
 102.333333333 757.333333333 126.666666667 705 168 605 c 0
 177.333333333 581 187.666666667 555.333333333 199 528 c 0
 210.333333333 500.666666667 219.5 478.333333333 226.5 461 c 0
 233.5 443.666666667 237.666666667 433.666666667 239 431 c 0
 241.666666667 424.333333333 244.833333333 419.5 248.5 416.5 c 0
 252.166666667 413.5 255.333333333 413.333333333 258 416 c 0
 263.333333333 421.333333333 285 476 323 580 c 0
 352.333333333 660 373.333333333 711.666666667 386 735 c 0
 398.666666667 758.333333333 411.333333333 767.666666667 424 763 c 0
 430 761 434.5 758 437.5 754 c 0
 440.5 750 442.333333333 744.166666667 443 736.5 c 0
 443.666666667 728.833333333 442.833333333 719.833333333 440.5 709.5 c 0
 438.166666667 699.166666667 434 685.333333333 428 668 c 0
 422 650.666666667 414.833333333 631.333333333 406.5 610 c 0
 398.166666667 588.666666667 387.333333333 562.333333333 374 531 c 0
 356.666666667 489.666666667 343.833333333 458.833333333 335.5 438.5 c 0
 327.166666667 418.166666667 319.5 396.166666667 312.5 372.5 c 0
 305.5 348.833333333 301.5 331.833333333 300.5 321.5 c 0
 299.5 311.166666667 300.166666667 297.833333333 302.5 281.5 c 0
 304.833333333 265.166666667 308.5 251.333333333 313.5 240 c 0
 318.5 228.666666667 326.333333333 212.666666667 337 192 c 0
 360.333333333 145.333333333 387.5 86 418.5 14 c 0
 449.5 -58 466 -99.3333333333 468 -110 c 0
 470 -126.666666667 469.333333333 -137.5 466 -142.5 c 0
 462.666666667 -147.5 454.333333333 -149.333333333 441 -148 c 0
 431.666666667 -146.666666667 423.666666667 -142.333333333 417 -135 c 0
 410.333333333 -127.666666667 401.833333333 -113.5 391.5 -92.5 c 0
 381.166666667 -71.5 364.666666667 -34 342 20 c 0
 322 67.3333333333 304 106.666666667 288 138 c 0
 272 169.333333333 262 185 258 185 c 256
 254 185 249.5 181.166666667 244.5 173.5 c 0
 239.5 165.833333333 235 156.333333333 231 145 c 0
 215 100.333333333 190.666666667 41.5 158 -31.5 c 0
 125.333333333 -104.5 104.666666667 -145.666666667 96 -155 c 0
 86 -165 79.6666666667 -170 77 -170 c 0
 74.3333333333 -170 69.6666666667 -165.333333333 63 -156 c 0
 57 -148.666666667 53.5 -142 52.5 -136 c 0
 51.5 -130 54 -117.166666667 60 -97.5 c 0
 66 -77.8333333333 74.3333333333 -55.5 85 -30.5 c 0
 95.6666666667 -5.5 113.666666667 35 139 91 c 0
 160.333333333 139 178.833333333 183.333333333 194.5 224 c 0
 210.166666667 264.666666667 218 289.333333333 218 298 c 256
 218 306.666666667 210.166666667 331.666666667 194.5 373 c 0
 178.833333333 414.333333333 160 459.666666667 138 509 c 0
 95.3333333333 604.333333333 69.1666666667 666.166666667 59.5 694.5 c 0
 49.8333333333 722.833333333 47.3333333333 743 52 755 c 0
EndSplineSet
Validated: 33
EndChar

StartChar: uni0917
Encoding: 24 2327 10
Width: 680
Flags: W
VStem: 549 76.5<-152.888 -41.6993>
LayerCount: 2
Fore
SplineSet
312 728 m 0
 304.666992188 744.666992188 294.833007812 755 282.5 759 c 0
 270.166992188 763 259.333007812 759.333007812 250 748 c 0
 243.333007812 740 207.666992188 668 143 532 c 0
 115.666992188 474.666992188 95.1669921875 430.666992188 81.5 400 c 0
 67.8330078125 369.333007812 58.5 343.833007812 53.5 323.5 c 0
 48.5 303.166992188 48.1669921875 289.833007812 52.5 283.5 c 0
 56.8330078125 277.166992188 65.3330078125 273.333007812 78 272 c 0
 94.6669921875 270 106.666992188 273.333007812 114 282 c 0
 120 290 144.333007812 344.333007812 187 445 c 0
 205.666992188 488.333007812 219.666992188 520.5 229 541.5 c 0
 238.333007812 562.5 246.666992188 580.166992188 254 594.5 c 0
 261.333007812 608.833007812 266.166992188 615.666992188 268.5 615 c 0
 270.833007812 614.333007812 274 613.666992188 278 613 c 0
 284 607.666992188 302.333007812 561.666992188 333 475 c 0
 339 458.333007812 365.333007812 385 412 255 c 0
 428.666992188 211 455 143 491 51 c 0
 522.333007812 -25 541.666992188 -77.6669921875 549 -107 c 0
 555 -129.666992188 563.5 -146.166992188 574.5 -156.5 c 0
 585.5 -166.833007812 597.666992188 -169.333007812 611 -164 c 0
 630.333007812 -156 635.166992188 -133 625.5 -95 c 0
 615.833007812 -57 580 41.3330078125 518 200 c 0
 444 391.333007812 396.666992188 513 376 565 c 0
 365.333007812 593.666992188 352.166992188 627.666992188 336.5 667 c 0
 320.833007812 706.333007812 312.666992188 726.666992188 312 728 c 0
EndSplineSet
EndChar

StartChar: uni0918
Encoding: 25 2328 11
Width: 680
Flags: W
VStem: 549 76.5<-152.888 -41.6993>
LayerCount: 2
Fore
SplineSet
312 728 m 0
 304.666992188 744.666992188 294.833007812 755 282.5 759 c 0
 270.166992188 763 259.333007812 759.333007812 250 748 c 0
 243.333007812 740 207.666992188 668 143 532 c 0
 115.666992188 474.666992188 95.1669921875 430.666992188 81.5 400 c 0
 67.8330078125 369.333007812 58.5 343.833007812 53.5 323.5 c 0
 48.5 303.166992188 48.1669921875 289.833007812 52.5 283.5 c 0
 56.8330078125 277.166992188 65.3330078125 273.333007812 78 272 c 0
 94.6669921875 270 106.666992188 273.333007812 114 282 c 0
 120 290 144.333007812 344.333007812 187 445 c 0
 205.666992188 488.333007812 219.666992188 520.5 229 541.5 c 0
 238.333007812 562.5 246.666992188 580.166992188 254 594.5 c 0
 261.333007812 608.833007812 266.166992188 615.666992188 268.5 615 c 0
 270.833007812 614.333007812 274 613.666992188 278 613 c 0
 284 607.666992188 302.333007812 561.666992188 333 475 c 0
 339 458.333007812 365.333007812 385 412 255 c 0
 428.666992188 211 455 143 491 51 c 0
 522.333007812 -25 541.666992188 -77.6669921875 549 -107 c 0
 555 -129.666992188 563.5 -146.166992188 574.5 -156.5 c 0
 585.5 -166.833007812 597.666992188 -169.333007812 611 -164 c 0
 630.333007812 -156 635.166992188 -133 625.5 -95 c 0
 615.833007812 -57 580 41.3330078125 518 200 c 0
 444 391.333007812 396.666992188 513 376 565 c 0
 365.333007812 593.666992188 352.166992188 627.666992188 336.5 667 c 0
 320.833007812 706.333007812 312.666992188 726.666992188 312 728 c 0
EndSplineSet
EndChar

StartChar: uni091A
Encoding: 27 2330 12
Width: 548
Flags: HW
LayerCount: 2
Fore
SplineSet
246 760 m 0
 250.666666667 768 260 770.666666667 274 768 c 0
 282.666666667 766.666666667 288 762 290 754 c 0
 294 739.333333333 296.666666667 664.666666667 298 530 c 0
 299.333333333 374 303.333333333 293 310 287 c 0
 314 283 320.833333333 286.666666667 330.5 298 c 128
 340.166666667 309.333333333 350.5 325.833333333 361.5 347.5 c 128
 372.5 369.166666667 382 391.666666667 390 415 c 0
 403.333333333 460.333333333 412.666666667 519 418 591 c 0
 423.333333333 649.666666667 429.333333333 690.833333333 436 714.5 c 128
 442.666666667 738.166666667 452 750 464 750 c 256
 476 750 483.166666667 740.666666667 485.5 722 c 128
 487.833333333 703.333333333 486 666 480 610 c 0
 472 519.333333333 462.833333333 454.333333333 452.5 415 c 128
 442.166666667 375.666666667 426 341.666666667 404 313 c 0
 388 292.333333333 380 280 380 276 c 256
 380 272 396.666666667 270 430 270 c 0
 457.333333333 270 475.5 266 484.5 258 c 128
 493.5 250 492.666666667 239.333333333 482 226 c 0
 473.333333333 216.666666667 449.333333333 213.666666667 410 217 c 0
 370 220.333333333 350 220 350 216 c 0
 350 209.333333333 359.333333333 195 378 173 c 0
 390 157.666666667 397.833333333 143 401.5 129 c 128
 405.166666667 115 407.333333333 92 408 60 c 0
 410 18 406.666666667 -16 398 -42 c 128
 389.333333333 -68 372 -97 346 -129 c 0
 326 -152.333333333 306.833333333 -162.666666667 288.5 -160 c 128
 270.166666667 -157.333333333 246.666666667 -141.333333333 218 -112 c 0
 187.333333333 -80 168.166666667 -55 160.5 -37 c 128
 152.833333333 -19 148.666666667 11.6666666667 148 55 c 0
 148 87.6666666667 149.5 110.666666667 152.5 124 c 128
 155.5 137.333333333 162.666666667 152.666666667 174 170 c 0
 191.333333333 197.333333333 200 212.666666667 200 216 c 0
 200 220 178.666666667 220.333333333 136 217 c 0
 111.333333333 214.333333333 93.6666666667 213.666666667 83 215 c 128
 72.3333333333 216.333333333 64.6666666667 219.666666667 60 225 c 0
 55.3333333333 231 53 236 53 240 c 128
 53 244 55.5 249 60.5 255 c 128
 65.5 261 72.3333333333 264.666666667 81 266 c 128
 89.6666666667 267.333333333 103.333333333 266.666666667 122 264 c 0
 151.333333333 260 166.833333333 261.5 168.5 268.5 c 128
 170.166666667 275.5 160 295.333333333 138 328 c 0
 119.333333333 355.333333333 105.333333333 387.166666667 96 423.5 c 128
 86.6666666667 459.833333333 78 515 70 589 c 0
 62.6666666667 666.333333333 59.6666666667 712.5 61 727.5 c 128
 62.3333333333 742.5 70.6666666667 750 86 750 c 0
 100.666666667 750 110.166666667 742.5 114.5 727.5 c 128
 118.833333333 712.5 124 666.333333333 130 589 c 0
 134.666666667 528.333333333 142.333333333 479.333333333 153 442 c 128
 163.666666667 404.666666667 181.333333333 365.333333333 206 324 c 0
 226 288.666666667 240.666666667 276.333333333 250 287 c 0
 254 291 256 299 256 311 c 0
 256 313 253.333333333 390 248 542 c 0
 241.333333333 680 240.666666667 752.666666667 246 760 c 0
330 156 m 0
 317.333333333 181.333333333 303.833333333 197.833333333 289.5 205.5 c 128
 275.166666667 213.166666667 262.666666667 210.333333333 252 197 c 0
 229.333333333 169.666666667 214.166666667 133.833333333 206.5 89.5 c 128
 198.833333333 45.1666666667 201.333333333 7.66666666667 214 -23 c 0
 224 -47 237.833333333 -66.5 255.5 -81.5 c 128
 273.166666667 -96.5 287.333333333 -100.666666667 298 -94 c 0
 326 -76 343.5 -40.3333333333 350.5 13 c 128
 357.5 66.3333333333 350.666666667 114 330 156 c 0
EndSplineSet
EndChar

StartChar: uni091B
Encoding: 28 2331 13
Width: 548
Flags: HW
LayerCount: 2
Fore
SplineSet
246 760 m 0
 250.666666667 768 260 770.666666667 274 768 c 0
 282.666666667 766.666666667 288 762 290 754 c 0
 294 739.333333333 296.666666667 664.666666667 298 530 c 0
 299.333333333 374 303.333333333 293 310 287 c 0
 314 283 320.833333333 286.666666667 330.5 298 c 128
 340.166666667 309.333333333 350.5 325.833333333 361.5 347.5 c 128
 372.5 369.166666667 382 391.666666667 390 415 c 0
 403.333333333 460.333333333 412.666666667 519 418 591 c 0
 423.333333333 649.666666667 429.333333333 690.833333333 436 714.5 c 128
 442.666666667 738.166666667 452 750 464 750 c 256
 476 750 483.166666667 740.666666667 485.5 722 c 128
 487.833333333 703.333333333 486 666 480 610 c 0
 472 519.333333333 462.833333333 454.333333333 452.5 415 c 128
 442.166666667 375.666666667 426 341.666666667 404 313 c 0
 388 292.333333333 380 280 380 276 c 256
 380 272 396.666666667 270 430 270 c 0
 457.333333333 270 475.5 266 484.5 258 c 128
 493.5 250 492.666666667 239.333333333 482 226 c 0
 473.333333333 216.666666667 449.333333333 213.666666667 410 217 c 0
 370 220.333333333 350 220 350 216 c 0
 350 209.333333333 359.333333333 195 378 173 c 0
 390 157.666666667 397.833333333 143 401.5 129 c 128
 405.166666667 115 407.333333333 92 408 60 c 0
 410 18 406.666666667 -16 398 -42 c 128
 389.333333333 -68 372 -97 346 -129 c 0
 326 -152.333333333 306.833333333 -162.666666667 288.5 -160 c 128
 270.166666667 -157.333333333 246.666666667 -141.333333333 218 -112 c 0
 187.333333333 -80 168.166666667 -55 160.5 -37 c 128
 152.833333333 -19 148.666666667 11.6666666667 148 55 c 0
 148 87.6666666667 149.5 110.666666667 152.5 124 c 128
 155.5 137.333333333 162.666666667 152.666666667 174 170 c 0
 191.333333333 197.333333333 200 212.666666667 200 216 c 0
 200 220 178.666666667 220.333333333 136 217 c 0
 111.333333333 214.333333333 93.6666666667 213.666666667 83 215 c 128
 72.3333333333 216.333333333 64.6666666667 219.666666667 60 225 c 0
 55.3333333333 231 53 236 53 240 c 128
 53 244 55.5 249 60.5 255 c 128
 65.5 261 72.3333333333 264.666666667 81 266 c 128
 89.6666666667 267.333333333 103.333333333 266.666666667 122 264 c 0
 151.333333333 260 166.833333333 261.5 168.5 268.5 c 128
 170.166666667 275.5 160 295.333333333 138 328 c 0
 119.333333333 355.333333333 105.333333333 387.166666667 96 423.5 c 128
 86.6666666667 459.833333333 78 515 70 589 c 0
 62.6666666667 666.333333333 59.6666666667 712.5 61 727.5 c 128
 62.3333333333 742.5 70.6666666667 750 86 750 c 0
 100.666666667 750 110.166666667 742.5 114.5 727.5 c 128
 118.833333333 712.5 124 666.333333333 130 589 c 0
 134.666666667 528.333333333 142.333333333 479.333333333 153 442 c 128
 163.666666667 404.666666667 181.333333333 365.333333333 206 324 c 0
 226 288.666666667 240.666666667 276.333333333 250 287 c 0
 254 291 256 299 256 311 c 0
 256 313 253.333333333 390 248 542 c 0
 241.333333333 680 240.666666667 752.666666667 246 760 c 0
330 156 m 0
 317.333333333 181.333333333 303.833333333 197.833333333 289.5 205.5 c 128
 275.166666667 213.166666667 262.666666667 210.333333333 252 197 c 0
 229.333333333 169.666666667 214.166666667 133.833333333 206.5 89.5 c 128
 198.833333333 45.1666666667 201.333333333 7.66666666667 214 -23 c 0
 224 -47 237.833333333 -66.5 255.5 -81.5 c 128
 273.166666667 -96.5 287.333333333 -100.666666667 298 -94 c 0
 326 -76 343.5 -40.3333333333 350.5 13 c 128
 357.5 66.3333333333 350.666666667 114 330 156 c 0
EndSplineSet
EndChar

StartChar: uni091C
Encoding: 29 2332 14
Width: 702
Flags: HW
LayerCount: 2
Fore
SplineSet
83 762 m 0
 97 770.666666667 106.166666667 767.833333333 110.5 753.5 c 128
 114.833333333 739.166666667 117.666666667 701.666666667 119 641 c 2
 122 519 l 1
 99 522 l 2
 87.6666666667 523.333333333 80.8333333333 529.5 78.5 540.5 c 128
 76.1666666667 551.5 74.3333333333 584.333333333 73 639 c 0
 71 715.666666667 74.3333333333 756.666666667 83 762 c 0
227 755 m 0
 231.666666667 765.666666667 241 770 255 768 c 0
 265 766.666666667 271 760.166666667 273 748.5 c 128
 275 736.833333333 276 702.333333333 276 645 c 0
 276 591 275 557.333333333 273 544 c 128
 271 530.666666667 265.666666667 523.333333333 257 522 c 0
 245 519.333333333 236 522.666666667 230 532 c 0
 225.333333333 539.333333333 222.5 575.166666667 221.5 639.5 c 128
 220.5 703.833333333 222.333333333 742.333333333 227 755 c 0
405 757 m 0
 408.333333333 765 414.5 769.166666667 423.5 769.5 c 128
 432.5 769.833333333 441 766 449 758 c 0
 456.333333333 750.666666667 460.333333333 713.833333333 461 647.5 c 128
 461.666666667 581.166666667 458.666666667 542.666666667 452 532 c 0
 446 522.666666667 437 519.333333333 425 522 c 0
 416.333333333 523.333333333 410.833333333 530.166666667 408.5 542.5 c 128
 406.166666667 554.833333333 404.333333333 585.333333333 403 634 c 0
 401.666666667 707.333333333 402.333333333 748.333333333 405 757 c 0
583 762 m 0
 592.333333333 767.333333333 598.333333333 770 601 770 c 0
 614.333333333 770 622.666666667 761.666666667 626 745 c 128
 629.333333333 728.333333333 630.333333333 693 629 639 c 2
 626 525 l 1
 601 525 l 1
 576 525 l 1
 573 639 l 2
 571 715.666666667 574.333333333 756.666666667 583 762 c 0
84 413 m 0
 102.666666667 421 115.166666667 417.833333333 121.5 403.5 c 128
 127.833333333 389.166666667 131 357.666666667 131 309 c 0
 131 257 128.833333333 224.166666667 124.5 210.5 c 128
 120.166666667 196.833333333 110.333333333 190 95 190 c 0
 83 190 76 194.666666667 74 204 c 128
 72 213.333333333 71 245 71 299 c 0
 71 372.333333333 75.3333333333 410.333333333 84 413 c 0
226 407 m 0
 229.333333333 417 238.333333333 420.666666667 253 418 c 0
 264.333333333 416.666666667 271 410.833333333 273 400.5 c 128
 275 390.166666667 276 358.333333333 276 305 c 2
 276 195 l 1
 251 195 l 2
 238.333333333 195 230.833333333 199.166666667 228.5 207.5 c 128
 226.166666667 215.833333333 224.333333333 244.666666667 223 294 c 0
 221.666666667 362 222.666666667 399.666666667 226 407 c 0
401 394 m 0
 404.333333333 404 409 411.166666667 415 415.5 c 128
 421 419.833333333 427.333333333 420.666666667 434 418 c 128
 440.666666667 415.333333333 446.333333333 409.666666667 451 401 c 0
 457.666666667 388.333333333 461 356.666666667 461 306 c 128
 461 255.333333333 457.666666667 221.666666667 451 205 c 0
 445 188.333333333 436.333333333 180.666666667 425 182 c 128
 413.666666667 183.333333333 405.333333333 192.666666667 400 210 c 0
 394.666666667 229.333333333 392.166666667 261.333333333 392.5 306 c 128
 392.833333333 350.666666667 395.666666667 380 401 394 c 0
584 413 m 0
 593.333333333 415 600.833333333 417 606.5 419 c 128
 612.166666667 421 616.5 417.166666667 619.5 407.5 c 128
 622.5 397.833333333 624.333333333 386 625 372 c 128
 625.666666667 358 626 335.666666667 626 305 c 2
 626 195 l 1
 599 192 l 1
 571 189 l 1
 571 299 l 2
 571 372.333333333 575.333333333 410.333333333 584 413 c 0
83 72 m 0
 103.666666667 85.3333333333 117.333333333 79.6666666667 124 55 c 0
 128.666666667 36.3333333333 131 3.33333333333 131 -44 c 0
 131 -98 128.666666667 -133 124 -149 c 128
 119.333333333 -165 109.666666667 -171.333333333 95 -168 c 0
 86.3333333333 -166.666666667 80.8333333333 -159.666666667 78.5 -147 c 128
 76.1666666667 -134.333333333 74.3333333333 -102.333333333 73 -51 c 0
 71 25.6666666667 74.3333333333 66.6666666667 83 72 c 0
232 66 m 0
 240 75.3333333333 249.333333333 79.3333333333 260 78 c 0
 266.666666667 76.6666666667 271.166666667 68.1666666667 273.5 52.5 c 128
 275.833333333 36.8333333333 277.666666667 3.33333333333 279 -48 c 2
 282 -171 l 1
 254 -168 l 1
 226 -165 l 1
 223 -56 l 2
 221 16.6666666667 224 57.3333333333 232 66 c 0
408 73 m 0
 414.666666667 80.3333333333 422.5 82 431.5 78 c 128
 440.5 74 447.333333333 65.6666666667 452 53 c 0
 458 36.3333333333 460.333333333 -4.33333333333 459 -69 c 2
 456 -165 l 1
 429 -168 l 1
 401 -171 l 1
 401 -52 l 2
 401 28 403.333333333 69.6666666667 408 73 c 0
575 67 m 0
 579 75.6666666667 585.333333333 80 594 80 c 0
 609.333333333 80 619.333333333 71 624 53 c 128
 628.666666667 35 630.333333333 -1.33333333333 629 -56 c 128
 627.666666667 -110.666666667 625.833333333 -142.5 623.5 -151.5 c 128
 621.166666667 -160.5 613.666666667 -165 601 -165 c 128
 588.333333333 -165 580.833333333 -160.5 578.5 -151.5 c 128
 576.166666667 -142.5 574.333333333 -110.666666667 573 -56 c 0
 571.666666667 17.3333333333 572.333333333 58.3333333333 575 67 c 0
EndSplineSet
EndChar

StartChar: uni091D
Encoding: 30 2333 15
Width: 702
Flags: HW
LayerCount: 2
Fore
SplineSet
83 762 m 0
 97 770.666666667 106.166666667 767.833333333 110.5 753.5 c 128
 114.833333333 739.166666667 117.666666667 701.666666667 119 641 c 2
 122 519 l 1
 99 522 l 2
 87.6666666667 523.333333333 80.8333333333 529.5 78.5 540.5 c 128
 76.1666666667 551.5 74.3333333333 584.333333333 73 639 c 0
 71 715.666666667 74.3333333333 756.666666667 83 762 c 0
227 755 m 0
 231.666666667 765.666666667 241 770 255 768 c 0
 265 766.666666667 271 760.166666667 273 748.5 c 128
 275 736.833333333 276 702.333333333 276 645 c 0
 276 591 275 557.333333333 273 544 c 128
 271 530.666666667 265.666666667 523.333333333 257 522 c 0
 245 519.333333333 236 522.666666667 230 532 c 0
 225.333333333 539.333333333 222.5 575.166666667 221.5 639.5 c 128
 220.5 703.833333333 222.333333333 742.333333333 227 755 c 0
405 757 m 0
 408.333333333 765 414.5 769.166666667 423.5 769.5 c 128
 432.5 769.833333333 441 766 449 758 c 0
 456.333333333 750.666666667 460.333333333 713.833333333 461 647.5 c 128
 461.666666667 581.166666667 458.666666667 542.666666667 452 532 c 0
 446 522.666666667 437 519.333333333 425 522 c 0
 416.333333333 523.333333333 410.833333333 530.166666667 408.5 542.5 c 128
 406.166666667 554.833333333 404.333333333 585.333333333 403 634 c 0
 401.666666667 707.333333333 402.333333333 748.333333333 405 757 c 0
583 762 m 0
 592.333333333 767.333333333 598.333333333 770 601 770 c 0
 614.333333333 770 622.666666667 761.666666667 626 745 c 128
 629.333333333 728.333333333 630.333333333 693 629 639 c 2
 626 525 l 1
 601 525 l 1
 576 525 l 1
 573 639 l 2
 571 715.666666667 574.333333333 756.666666667 583 762 c 0
84 413 m 0
 102.666666667 421 115.166666667 417.833333333 121.5 403.5 c 128
 127.833333333 389.166666667 131 357.666666667 131 309 c 0
 131 257 128.833333333 224.166666667 124.5 210.5 c 128
 120.166666667 196.833333333 110.333333333 190 95 190 c 0
 83 190 76 194.666666667 74 204 c 128
 72 213.333333333 71 245 71 299 c 0
 71 372.333333333 75.3333333333 410.333333333 84 413 c 0
226 407 m 0
 229.333333333 417 238.333333333 420.666666667 253 418 c 0
 264.333333333 416.666666667 271 410.833333333 273 400.5 c 128
 275 390.166666667 276 358.333333333 276 305 c 2
 276 195 l 1
 251 195 l 2
 238.333333333 195 230.833333333 199.166666667 228.5 207.5 c 128
 226.166666667 215.833333333 224.333333333 244.666666667 223 294 c 0
 221.666666667 362 222.666666667 399.666666667 226 407 c 0
401 394 m 0
 404.333333333 404 409 411.166666667 415 415.5 c 128
 421 419.833333333 427.333333333 420.666666667 434 418 c 128
 440.666666667 415.333333333 446.333333333 409.666666667 451 401 c 0
 457.666666667 388.333333333 461 356.666666667 461 306 c 128
 461 255.333333333 457.666666667 221.666666667 451 205 c 0
 445 188.333333333 436.333333333 180.666666667 425 182 c 128
 413.666666667 183.333333333 405.333333333 192.666666667 400 210 c 0
 394.666666667 229.333333333 392.166666667 261.333333333 392.5 306 c 128
 392.833333333 350.666666667 395.666666667 380 401 394 c 0
584 413 m 0
 593.333333333 415 600.833333333 417 606.5 419 c 128
 612.166666667 421 616.5 417.166666667 619.5 407.5 c 128
 622.5 397.833333333 624.333333333 386 625 372 c 128
 625.666666667 358 626 335.666666667 626 305 c 2
 626 195 l 1
 599 192 l 1
 571 189 l 1
 571 299 l 2
 571 372.333333333 575.333333333 410.333333333 584 413 c 0
83 72 m 0
 103.666666667 85.3333333333 117.333333333 79.6666666667 124 55 c 0
 128.666666667 36.3333333333 131 3.33333333333 131 -44 c 0
 131 -98 128.666666667 -133 124 -149 c 128
 119.333333333 -165 109.666666667 -171.333333333 95 -168 c 0
 86.3333333333 -166.666666667 80.8333333333 -159.666666667 78.5 -147 c 128
 76.1666666667 -134.333333333 74.3333333333 -102.333333333 73 -51 c 0
 71 25.6666666667 74.3333333333 66.6666666667 83 72 c 0
232 66 m 0
 240 75.3333333333 249.333333333 79.3333333333 260 78 c 0
 266.666666667 76.6666666667 271.166666667 68.1666666667 273.5 52.5 c 128
 275.833333333 36.8333333333 277.666666667 3.33333333333 279 -48 c 2
 282 -171 l 1
 254 -168 l 1
 226 -165 l 1
 223 -56 l 2
 221 16.6666666667 224 57.3333333333 232 66 c 0
408 73 m 0
 414.666666667 80.3333333333 422.5 82 431.5 78 c 128
 440.5 74 447.333333333 65.6666666667 452 53 c 0
 458 36.3333333333 460.333333333 -4.33333333333 459 -69 c 2
 456 -165 l 1
 429 -168 l 1
 401 -171 l 1
 401 -52 l 2
 401 28 403.333333333 69.6666666667 408 73 c 0
575 67 m 0
 579 75.6666666667 585.333333333 80 594 80 c 0
 609.333333333 80 619.333333333 71 624 53 c 128
 628.666666667 35 630.333333333 -1.33333333333 629 -56 c 128
 627.666666667 -110.666666667 625.833333333 -142.5 623.5 -151.5 c 128
 621.166666667 -160.5 613.666666667 -165 601 -165 c 128
 588.333333333 -165 580.833333333 -160.5 578.5 -151.5 c 128
 576.166666667 -142.5 574.333333333 -110.666666667 573 -56 c 0
 571.666666667 17.3333333333 572.333333333 58.3333333333 575 67 c 0
EndSplineSet
EndChar

StartChar: uni091F
Encoding: 32 2335 16
Width: 631
Flags: W
HStem: 515 55<102.256 176 341 411 467 494>
VStem: 59 42<653.609 769.59> 176 51<572.19 766.871> 291 50<-165 413 569.109 766.871> 411 56<575 745.207> 533 39.5<690.904 762.778>
LayerCount: 2
Fore
SplineSet
56 651 m 0
 56 707 57 740.833333333 59 752.5 c 0
 61 764.166666667 66.6666666667 770 76 770 c 0
 101.333333333 770 109.666666667 735 101 665 c 0
 96.3333333333 626.333333333 96.6666666667 600.833333333 102 588.5 c 0
 107.333333333 576.166666667 120.666666667 570 142 570 c 2
 176 570 l 1
 176 665 l 2
 176 703.666666667 177 729.666666667 179 743 c 0
 181 756.333333333 185.333333333 764.333333333 192 767 c 0
 198.666666667 769 204.333333333 769.333333333 209 768 c 0
 213.666666667 766.666666667 217.333333333 761.833333333 220 753.5 c 0
 222.666666667 745.166666667 224.5 734 225.5 720 c 0
 226.5 706 227 688 227 666 c 0
 226.333333333 630 227 606.333333333 229 595 c 0
 231 583.666666667 235.666666667 576 243 572 c 0
 251.666666667 568.666666667 258.833333333 566.333333333 264.5 565 c 0
 270.166666667 563.666666667 274.666666667 567 278 575 c 0
 281.333333333 583 283.5 593.833333333 284.5 607.5 c 0
 285.5 621.166666667 286 640.666666667 286 666 c 0
 286 704.666666667 287 730.5 289 743.5 c 0
 291 756.5 295.333333333 764.333333333 302 767 c 0
 309.333333333 769 315.333333333 769.333333333 320 768 c 0
 324.666666667 766.666666667 328.333333333 761.5 331 752.5 c 0
 333.666666667 743.5 335.5 731.833333333 336.5 717.5 c 0
 337.5 703.166666667 337.666666667 684 337 660 c 2
 336 569 l 1
 373 572 l 1
 411 575 l 1
 408 648 l 2
 405.333333333 696.666666667 406.166666667 729.333333333 410.5 746 c 0
 414.833333333 762.666666667 424.333333333 770 439 768 c 0
 449.666666667 766.666666667 456.166666667 761.166666667 458.5 751.5 c 0
 460.833333333 741.833333333 462.666666667 713.666666667 464 667 c 2
 467 569 l 1
 494 572 l 2
 507.333333333 573.333333333 515.333333333 578.166666667 518 586.5 c 0
 520.666666667 594.833333333 523.333333333 622.666666667 526 670 c 0
 528 709.333333333 530.333333333 735.166666667 533 747.5 c 0
 535.666666667 759.833333333 540.666666667 766.666666667 548 768 c 0
 554.666666667 769.333333333 560 767.666666667 564 763 c 0
 568 758.333333333 570.833333333 749.833333333 572.5 737.5 c 0
 574.166666667 725.166666667 574.833333333 709.333333333 574.5 690 c 0
 574.166666667 670.666666667 572.666666667 646.333333333 570 617 c 2
 561 515 l 1
 451 515 l 1
 341 515 l 1
 341 175 l 1
 341 -165 l 1
 316 -165 l 1
 291 -165 l 1
 286 175 l 1
 281 515 l 1
 181 515 l 2
 114.333333333 515 77 517.666666667 69 523 c 0
 60.3333333333 529 56 571.666666667 56 651 c 0
EndSplineSet
Validated: 33
EndChar

StartChar: uni0920
Encoding: 33 2336 17
Width: 631
Flags: W
HStem: 515 55<102.256 176 341 411 467 494>
VStem: 59 42<653.609 769.59> 176 51<572.19 766.871> 291 50<-165 413 569.109 766.871> 411 56<575 745.207> 533 39.5<690.904 762.778>
LayerCount: 2
Fore
SplineSet
56 651 m 0
 56 707 57 740.833333333 59 752.5 c 0
 61 764.166666667 66.6666666667 770 76 770 c 0
 101.333333333 770 109.666666667 735 101 665 c 0
 96.3333333333 626.333333333 96.6666666667 600.833333333 102 588.5 c 0
 107.333333333 576.166666667 120.666666667 570 142 570 c 2
 176 570 l 1
 176 665 l 2
 176 703.666666667 177 729.666666667 179 743 c 0
 181 756.333333333 185.333333333 764.333333333 192 767 c 0
 198.666666667 769 204.333333333 769.333333333 209 768 c 0
 213.666666667 766.666666667 217.333333333 761.833333333 220 753.5 c 0
 222.666666667 745.166666667 224.5 734 225.5 720 c 0
 226.5 706 227 688 227 666 c 0
 226.333333333 630 227 606.333333333 229 595 c 0
 231 583.666666667 235.666666667 576 243 572 c 0
 251.666666667 568.666666667 258.833333333 566.333333333 264.5 565 c 0
 270.166666667 563.666666667 274.666666667 567 278 575 c 0
 281.333333333 583 283.5 593.833333333 284.5 607.5 c 0
 285.5 621.166666667 286 640.666666667 286 666 c 0
 286 704.666666667 287 730.5 289 743.5 c 0
 291 756.5 295.333333333 764.333333333 302 767 c 0
 309.333333333 769 315.333333333 769.333333333 320 768 c 0
 324.666666667 766.666666667 328.333333333 761.5 331 752.5 c 0
 333.666666667 743.5 335.5 731.833333333 336.5 717.5 c 0
 337.5 703.166666667 337.666666667 684 337 660 c 2
 336 569 l 1
 373 572 l 1
 411 575 l 1
 408 648 l 2
 405.333333333 696.666666667 406.166666667 729.333333333 410.5 746 c 0
 414.833333333 762.666666667 424.333333333 770 439 768 c 0
 449.666666667 766.666666667 456.166666667 761.166666667 458.5 751.5 c 0
 460.833333333 741.833333333 462.666666667 713.666666667 464 667 c 2
 467 569 l 1
 494 572 l 2
 507.333333333 573.333333333 515.333333333 578.166666667 518 586.5 c 0
 520.666666667 594.833333333 523.333333333 622.666666667 526 670 c 0
 528 709.333333333 530.333333333 735.166666667 533 747.5 c 0
 535.666666667 759.833333333 540.666666667 766.666666667 548 768 c 0
 554.666666667 769.333333333 560 767.666666667 564 763 c 0
 568 758.333333333 570.833333333 749.833333333 572.5 737.5 c 0
 574.166666667 725.166666667 574.833333333 709.333333333 574.5 690 c 0
 574.166666667 670.666666667 572.666666667 646.333333333 570 617 c 2
 561 515 l 1
 451 515 l 1
 341 515 l 1
 341 175 l 1
 341 -165 l 1
 316 -165 l 1
 291 -165 l 1
 286 175 l 1
 281 515 l 1
 181 515 l 2
 114.333333333 515 77 517.666666667 69 523 c 0
 60.3333333333 529 56 571.666666667 56 651 c 0
EndSplineSet
Validated: 33
EndChar

StartChar: uni0924
Encoding: 37 2340 18
Width: 590
Flags: W
HStem: 190.5 49.5<102.627 177.817>
VStem: 48.5 50<243.475 377.513> 240.5 78<303.531 375.129> 260.5 57<660 755.583> 457 51.5<243.604 399.208>
LayerCount: 2
Fore
SplineSet
307.5 756 m 0xd8
 299.5 765.333007812 290.166992188 769.333007812 279.5 768 c 0
 273.5 766.666992188 269 760.833007812 266 750.5 c 0
 263 740.166992188 261.166992188 721.666992188 260.5 695 c 2
 257.5 625 l 1
 188.5 554 l 2
 95.1669921875 457.333007812 48.5 364.333007812 48.5 275 c 0
 48.5 234.333007812 52.5 210 60.5 202 c 0
 71.1669921875 191.333007812 90.5 187.5 118.5 190.5 c 0
 146.5 193.5 170.5 201.666992188 190.5 215 c 0
 227.833007812 240.333007812 246.5 246.333007812 246.5 233 c 0
 247.166992188 222.333007812 236.166992188 194.666992188 213.5 150 c 0
 188.166992188 100.666992188 161 42.6669921875 132 -24 c 0
 103 -90.6669921875 88.5 -127.666992188 88.5 -135 c 0
 88.5 -143.666992188 94.1669921875 -149.833007812 105.5 -153.5 c 0
 116.833007812 -157.166992188 126.166992188 -156 133.5 -150 c 0
 140.166992188 -144.666992188 155.833007812 -113.666992188 180.5 -57 c 0
 205.166992188 -0.3330078125 226.833007812 53.6669921875 245.5 105 c 0
 257.5 138.333007812 266.5 155 272.5 155 c 0
 277.833007812 155 302.166992188 104.333007812 345.5 3 c 0
 363.5 -39.6669921875 380.166992188 -76.1669921875 395.5 -106.5 c 0
 410.833007812 -136.833007812 420.833007812 -153 425.5 -155 c 0
 430.166992188 -156.333007812 435.666992188 -156.166992188 442 -154.5 c 0
 448.333007812 -152.833007812 453.5 -149.666992188 457.5 -145 c 0
 464.166992188 -137.666992188 463.5 -123.333007812 455.5 -102 c 0
 447.5 -80.6669921875 422.5 -28.3330078125 380.5 55 c 0
 313.833007812 189 283.5 262.666992188 289.5 276 c 0
 290.833007812 278.666992188 293.166992188 280 296.5 280 c 0
 301.166992188 280 313.833007812 269.666992188 334.5 249 c 0
 368.5 213 400.666992188 191.333007812 431 184 c 0
 461.333007812 176.666992188 482.833007812 185.333007812 495.5 210 c 0
 504.166992188 227.333007812 508.5 258.666992188 508.5 304 c 0
 508.5 334 506.333007812 356.666992188 502 372 c 0
 497.666992188 387.333007812 487.5 409.666992188 471.5 439 c 2
 435.5 506 l 1
 486.5 574 l 2
 514.5 610.666992188 530.333007812 633.166992188 534 641.5 c 0
 537.666992188 649.833007812 535.166992188 658.666992188 526.5 668 c 0
 515.166992188 678.666992188 504.5 680.666992188 494.5 674 c 0
 484.5 667.333007812 468.833007812 647.666992188 447.5 615 c 0
 434.833007812 595 423.333007812 579.166992188 413 567.5 c 0
 402.666992188 555.833007812 395.166992188 550.666992188 390.5 552 c 0
 381.166992188 554 366.166992188 567.333007812 345.5 592 c 0
 332.166992188 608.666992188 323.833007812 622.333007812 320.5 633 c 0
 317.166992188 643.666992188 316.166992188 661.333007812 317.5 686 c 0
 318.833007812 724 315.5 747.333007812 307.5 756 c 0xd8
238.5 536 m 2
 269.166992188 565.333007812 286.166992188 580 289.5 580 c 0
 294.166992188 580 306.833007812 568 327.5 544 c 0
 348.166992188 520 358.5 505 358.5 499 c 0
 358.5 491.666992188 345.833007812 471.666992188 320.5 439 c 0
 295.166992188 406.333007812 279.5 390 273.5 390 c 0
 270.833007812 390 265.166992188 395 256.5 405 c 0
 247.833007812 415 238.833007812 427 229.5 441 c 2
 195.5 491 l 1
 238.5 536 l 2
354.5 406 m 0
 375.833007812 431.333007812 391.333007812 445.166992188 401 447.5 c 0
 410.666992188 449.833007812 419.166992188 441.666992188 426.5 423 c 0
 443.166992188 380.333007812 453.333007812 341 457 305 c 0
 460.666992188 269 456.5 248.666992188 444.5 244 c 0
 429.166992188 238 404.333007812 248.666992188 370 276 c 0
 335.666992188 303.333007812 318.5 325.666992188 318.5 343 c 0xe8
 318.5 348.333007812 322 357.166992188 329 369.5 c 0
 336 381.833007812 344.5 394 354.5 406 c 0
113.5 357 m 0
 123.5 391.666992188 134.833007812 414 147.5 424 c 0
 156.833007812 432.666992188 164.333007812 435.333007812 170 432 c 0
 175.666992188 428.666992188 188.166992188 414.666992188 207.5 390 c 0
 229.5 362 240.5 342.333007812 240.5 331 c 0
 240.5 319.666992188 229.166992188 304 206.5 284 c 0
 173.833007812 254.666992188 144.833007812 240 119.5 240 c 0
 110.833007812 240 105.166992188 242.166992188 102.5 246.5 c 0
 99.8330078125 250.833007812 98.5 259.666992188 98.5 273 c 0
 98.5 293.666992188 103.5 321.666992188 113.5 357 c 0
EndSplineSet
EndChar

StartChar: uni0925
Encoding: 38 2341 19
Width: 590
Flags: W
HStem: 190.5 49.5<102.627 177.817>
VStem: 457 51.5<243.604 399.208> 240.5 78<303.531 375.129> 260.5 57<660 755.583> 48.5 50<243.475 377.513>
LayerCount: 2
Fore
SplineSet
307.5 756 m 0xd8
 299.5 765.333007812 290.166992188 769.333007812 279.5 768 c 0
 273.5 766.666992188 269 760.833007812 266 750.5 c 0
 263 740.166992188 261.166992188 721.666992188 260.5 695 c 2
 257.5 625 l 1
 188.5 554 l 2
 95.1669921875 457.333007812 48.5 364.333007812 48.5 275 c 0
 48.5 234.333007812 52.5 210 60.5 202 c 0
 71.1669921875 191.333007812 90.5 187.5 118.5 190.5 c 0
 146.5 193.5 170.5 201.666992188 190.5 215 c 0
 227.833007812 240.333007812 246.5 246.333007812 246.5 233 c 0
 247.166992188 222.333007812 236.166992188 194.666992188 213.5 150 c 0
 188.166992188 100.666992188 161 42.6669921875 132 -24 c 0
 103 -90.6669921875 88.5 -127.666992188 88.5 -135 c 0
 88.5 -143.666992188 94.1669921875 -149.833007812 105.5 -153.5 c 0
 116.833007812 -157.166992188 126.166992188 -156 133.5 -150 c 0
 140.166992188 -144.666992188 155.833007812 -113.666992188 180.5 -57 c 0
 205.166992188 -0.3330078125 226.833007812 53.6669921875 245.5 105 c 0
 257.5 138.333007812 266.5 155 272.5 155 c 0
 277.833007812 155 302.166992188 104.333007812 345.5 3 c 0
 363.5 -39.6669921875 380.166992188 -76.1669921875 395.5 -106.5 c 0
 410.833007812 -136.833007812 420.833007812 -153 425.5 -155 c 0
 430.166992188 -156.333007812 435.666992188 -156.166992188 442 -154.5 c 0
 448.333007812 -152.833007812 453.5 -149.666992188 457.5 -145 c 0
 464.166992188 -137.666992188 463.5 -123.333007812 455.5 -102 c 0
 447.5 -80.6669921875 422.5 -28.3330078125 380.5 55 c 0
 313.833007812 189 283.5 262.666992188 289.5 276 c 0
 290.833007812 278.666992188 293.166992188 280 296.5 280 c 0
 301.166992188 280 313.833007812 269.666992188 334.5 249 c 0
 368.5 213 400.666992188 191.333007812 431 184 c 0
 461.333007812 176.666992188 482.833007812 185.333007812 495.5 210 c 0
 504.166992188 227.333007812 508.5 258.666992188 508.5 304 c 0
 508.5 334 506.333007812 356.666992188 502 372 c 0
 497.666992188 387.333007812 487.5 409.666992188 471.5 439 c 2
 435.5 506 l 1
 486.5 574 l 2
 514.5 610.666992188 530.333007812 633.166992188 534 641.5 c 0
 537.666992188 649.833007812 535.166992188 658.666992188 526.5 668 c 0
 515.166992188 678.666992188 504.5 680.666992188 494.5 674 c 0
 484.5 667.333007812 468.833007812 647.666992188 447.5 615 c 0
 434.833007812 595 423.333007812 579.166992188 413 567.5 c 0
 402.666992188 555.833007812 395.166992188 550.666992188 390.5 552 c 0
 381.166992188 554 366.166992188 567.333007812 345.5 592 c 0
 332.166992188 608.666992188 323.833007812 622.333007812 320.5 633 c 0
 317.166992188 643.666992188 316.166992188 661.333007812 317.5 686 c 0
 318.833007812 724 315.5 747.333007812 307.5 756 c 0xd8
238.5 536 m 2
 269.166992188 565.333007812 286.166992188 580 289.5 580 c 0
 294.166992188 580 306.833007812 568 327.5 544 c 0
 348.166992188 520 358.5 505 358.5 499 c 0
 358.5 491.666992188 345.833007812 471.666992188 320.5 439 c 0
 295.166992188 406.333007812 279.5 390 273.5 390 c 0
 270.833007812 390 265.166992188 395 256.5 405 c 0
 247.833007812 415 238.833007812 427 229.5 441 c 2
 195.5 491 l 1
 238.5 536 l 2
354.5 406 m 0
 375.833007812 431.333007812 391.333007812 445.166992188 401 447.5 c 0
 410.666992188 449.833007812 419.166992188 441.666992188 426.5 423 c 0
 443.166992188 380.333007812 453.333007812 341 457 305 c 0
 460.666992188 269 456.5 248.666992188 444.5 244 c 0
 429.166992188 238 404.333007812 248.666992188 370 276 c 0
 335.666992188 303.333007812 318.5 325.666992188 318.5 343 c 0xe8
 318.5 348.333007812 322 357.166992188 329 369.5 c 0
 336 381.833007812 344.5 394 354.5 406 c 0
113.5 357 m 0
 123.5 391.666992188 134.833007812 414 147.5 424 c 0
 156.833007812 432.666992188 164.333007812 435.333007812 170 432 c 0
 175.666992188 428.666992188 188.166992188 414.666992188 207.5 390 c 0
 229.5 362 240.5 342.333007812 240.5 331 c 0
 240.5 319.666992188 229.166992188 304 206.5 284 c 0
 173.833007812 254.666992188 144.833007812 240 119.5 240 c 0
 110.833007812 240 105.166992188 242.166992188 102.5 246.5 c 0
 99.8330078125 250.833007812 98.5 259.666992188 98.5 273 c 0
 98.5 293.666992188 103.5 321.666992188 113.5 357 c 0
EndSplineSet
EndChar

StartChar: uni0926
Encoding: 39 2342 20
Width: 1031
Flags: W
HStem: -160 60<659.863 730.308> -10 100<507.969 547.294> 670 60<675.818 747.859> 710 58<316.971 370.495>
VStem: 64 59.5<133.817 246.079 308.033 440.483> 484 90<6.41699 76> 914 59<124 409.195>
LayerCount: 2
Fore
SplineSet
309 751 m 0xee
 327.666666667 762.333333333 339.5 768 344.5 768 c 0xde
 349.5 768 361.666666667 762.333333333 381 751 c 0
 397 741 419.666666667 718.833333333 449 684.5 c 0
 478.333333333 650.166666667 497.666666667 623 507 603 c 0
 513.666666667 587.666666667 519.333333333 580 524 580 c 0
 528 580 555.666666667 605 607 655 c 0
 657.666666667 705 691.333333333 730 708 730 c 0
 740.666666667 730 779.333333333 703 824 649 c 0
 868.666666667 595 905.666666667 531.333333333 935 458 c 0
 961.666666667 388.666666667 974.333333333 319 973 249 c 0
 971.666666667 179 956.333333333 114.333333333 927 55 c 0
 909.666666667 21 873.166666667 -23.3333333333 817.5 -78 c 0
 761.833333333 -132.666666667 725 -160 707 -160 c 0
 689.666666667 -160 665 -148 633 -124 c 0
 601 -100 576.666666667 -75.3333333333 560 -50 c 0
 542.666666667 -23.3333333333 531.666666667 -10 527 -10 c 0
 523 -10 495 -35 443 -85 c 0
 423 -103.666666667 407.666666667 -117.833333333 397 -127.5 c 0
 386.333333333 -137.166666667 374.666666667 -145.166666667 362 -151.5 c 0
 349.333333333 -157.833333333 339.5 -161 332.5 -161 c 0
 325.5 -161 316 -157.833333333 304 -151.5 c 0
 292 -145.166666667 281.166666667 -137.5 271.5 -128.5 c 0
 261.833333333 -119.5 248 -105.666666667 230 -87 c 0
 190.666666667 -47.6666666667 155.833333333 -1.83333333333 125.5 50.5 c 0
 95.1666666667 102.833333333 74.6666666667 152.333333333 64 199 c 0
 56 233.666666667 54 274.333333333 58 321 c 0
 62 367.666666667 71.6666666667 411.333333333 87 452 c 0
 105.666666667 503.333333333 138.5 560.666666667 185.5 624 c 0
 232.5 687.333333333 273.666666667 729.666666667 309 751 c 0xee
395 663 m 0
 365.666666667 694.333333333 348.666666667 710 344 710 c 0
 338 710 317.333333333 690.333333333 282 651 c 0
 246.666666667 611.666666667 221.333333333 580 206 556 c 0
 188.666666667 532.666666667 169.666666667 497.333333333 149 450 c 0
 136.333333333 421.333333333 128.333333333 397.5 125 378.5 c 0
 121.666666667 359.5 120 328.333333333 120 285 c 0
 119.333333333 240.333333333 120.5 209.333333333 123.5 192 c 0
 126.5 174.666666667 134.666666667 153 148 127 c 0
 165.333333333 91 194 47.3333333333 234 -4 c 0
 274 -55.3333333333 302.333333333 -84.6666666667 319 -92 c 0
 329.666666667 -96.6666666667 340.166666667 -96.3333333333 350.5 -91 c 0
 360.833333333 -85.6666666667 382 -68.6666666667 414 -40 c 0
 460.666666667 2 484 26.6666666667 484 34 c 0
 484 41.3333333333 473.666666667 70 453 120 c 0
 439 154.666666667 430.666666667 180.833333333 428 198.5 c 0
 425.333333333 216.166666667 424.666666667 247 426 291 c 0
 427.333333333 333.666666667 430 363.833333333 434 381.5 c 0
 438 399.166666667 447.333333333 422 462 450 c 0
 483.333333333 492.666666667 494 518.666666667 494 528 c 0
 494 546.666666667 461 591.666666667 395 663 c 0
752 645 m 0
 732.666666667 661.666666667 718.666666667 670 710 670 c 0xee
 702 670 677.166666667 651.333333333 635.5 614 c 0
 593.833333333 576.666666667 569.666666667 551.333333333 563 538 c 0
 559 530 558 522.166666667 560 514.5 c 0
 562 506.833333333 568 495.333333333 578 480 c 0
 598 449.333333333 612.666666667 420.166666667 622 392.5 c 0
 631.333333333 364.833333333 637.666666667 332.333333333 641 295 c 0
 648.333333333 205.666666667 634.333333333 134.666666667 599 82 c 0
 582.333333333 58 574 40.6666666667 574 30 c 0
 574 18.6666666667 591.166666667 -5.83333333333 625.5 -43.5 c 0
 659.833333333 -81.1666666667 682 -100 692 -100 c 0
 703.333333333 -100 731.333333333 -80 776 -40 c 0
 800.666666667 -17.3333333333 820.666666667 3.83333333333 836 23.5 c 0
 851.333333333 43.1666666667 865.333333333 66 878 92 c 0
 894.666666667 125.333333333 904.833333333 150.166666667 908.5 166.5 c 0
 912.166666667 182.833333333 914 214.333333333 914 261 c 0
 914 303.666666667 912.166666667 335.166666667 908.5 355.5 c 0
 904.833333333 375.833333333 896.333333333 402.666666667 883 436 c 0
 865.666666667 480.666666667 845 522 821 560 c 0
 797 598 774 626.333333333 752 645 c 0
559 412 m 0
 539 451.333333333 523.333333333 463.333333333 512 448 c 0
 502.666666667 435.333333333 493 401.333333333 483 346 c 0
 475 304 474.666666667 259 482 211 c 0
 495.333333333 130.333333333 510.666666667 90 528 90 c 0
 538.666666667 90 551.333333333 103.333333333 566 130 c 0
 574 145.333333333 579 161.5 581 178.5 c 0
 583 195.5 583 226 581 270 c 0
 579 338 571.666666667 385.333333333 559 412 c 0
EndSplineSet
Validated: 33
EndChar

StartChar: uni0927
Encoding: 40 2343 21
Width: 593
Flags: W
VStem: 118 57<150 439.484> 487 58<-100.296 261> 496 49<361.409 682.715>
LayerCount: 2
Fore
SplineSet
542 758 m 256xa0
 539.333007812 765.333007812 532.5 767.833007812 521.5 765.5 c 0
 510.5 763.166992188 485 754.666992188 445 740 c 0
 379 715.333007812 320.666992188 681 270 637 c 2
 235 606 l 1
 172 675 l 2
 144.666992188 704.333007812 126.166992188 722.666992188 116.5 730 c 0
 106.833007812 737.333007812 98.3330078125 738.666992188 91 734 c 0
 75 724.666992188 69 714.166992188 73 702.5 c 0
 77 690.833007812 94.6669921875 669 126 637 c 0
 142 619.666992188 156.166992188 603.666992188 168.5 589 c 0
 180.833007812 574.333007812 187 565.333007812 187 562 c 0
 187 556 176.333007812 534.666992188 155 498 c 0
 138.333007812 471.333007812 128.5 449.666992188 125.5 433 c 0
 122.5 416.333007812 120 371 118 297 c 0
 116 210.333007812 119.166992188 150.166992188 127.5 116.5 c 0
 135.833007812 82.8330078125 157 48 191 12 c 0
 234.333007812 -35.3330078125 291.333007812 -78.3330078125 362 -117 c 0
 432.666992188 -155.666992188 485 -172.666992188 519 -168 c 2
 542 -165 l 1
 545 290 l 2
 545.666992188 594.666992188 544.666992188 750.666992188 542 758 c 256xa0
412 663 m 0
 455.333007812 684.333007812 481.333007812 691 490 683 c 0
 494.666992188 677.666992188 496.666992188 624.666992188 496 524 c 0
 495.333007812 423.333007812 492.666992188 369 488 361 c 0
 486 359 482.833007812 358.666992188 478.5 360 c 0
 474.166992188 361.333007812 467.666992188 365.5 459 372.5 c 0
 450.333007812 379.5 439.833007812 389.166992188 427.5 401.5 c 0
 415.166992188 413.833007812 399.666992188 430 381 450 c 0
 355 476 331.666992188 500.666992188 311 524 c 0
 290.333007812 547.333007812 279.666992188 560.666992188 279 564 c 0
 277 570 291.5 584.5 322.5 607.5 c 0
 353.5 630.5 383.333007812 649 412 663 c 0
206 462 m 0
 220.666992188 493.333007812 230.333007812 510.333007812 235 513 c 0
 236.333007812 513.666992188 242.833007812 508.666992188 254.5 498 c 0
 266.166992188 487.333007812 281.833007812 472.166992188 301.5 452.5 c 0
 321.166992188 432.833007812 342 411.666992188 364 389 c 2
 487 261 l 1
 487 81 l 2xc0
 487 -16.3330078125 484.333007812 -72.3330078125 479 -87 c 0
 474.333007812 -101.666992188 462.666992188 -104.333007812 444 -95 c 0
 437.333007812 -91.6669921875 423 -83 401 -69 c 0
 303.666992188 -7 239 49 207 99 c 2
 175 150 l 1
 179 282 l 2
 181 338 183.666992188 377.166992188 187 399.5 c 0
 190.333007812 421.833007812 196.666992188 442.666992188 206 462 c 0
EndSplineSet
EndChar

StartChar: uni0921
Encoding: 34 2337 22
Width: 399
Flags: W
VStem: 56 50<200.892 371.195>
LayerCount: 2
Fore
SplineSet
241 698 m 0
 272.333333333 730.666666667 295 749.833333333 309 755.5 c 0
 323 761.166666667 335.666666667 757.333333333 347 744 c 0
 353 736.666666667 354.833333333 730.5 352.5 725.5 c 0
 350.166666667 720.5 341.333333333 712.333333333 326 701 c 0
 270.666666667 659.666666667 223.666666667 604.333333333 185 535 c 0
 162.333333333 493.666666667 150.166666667 463.833333333 148.5 445.5 c 0
 146.833333333 427.166666667 154.333333333 411.333333333 171 398 c 0
 209 368 227.166666667 329.666666667 225.5 283 c 0
 223.833333333 236.333333333 202.666666667 197.666666667 162 167 c 2
 126 139 l 1
 142 107 l 2
 152 87.6666666667 175.666666667 54.3333333333 213 7 c 0
 250.333333333 -40.3333333333 280.333333333 -75 303 -97 c 0
 317.666666667 -111 326.333333333 -121.166666667 329 -127.5 c 0
 331.666666667 -133.833333333 330.666666667 -141.333333333 326 -150 c 0
 318.666666667 -164.666666667 310 -170.666666667 300 -168 c 0
 290 -165.333333333 275 -153.333333333 255 -132 c 0
 183 -55.3333333333 131.833333333 14 101.5 76 c 0
 71.1666666667 138 56 204.333333333 56 275 c 0
 56 343 73.3333333333 416.666666667 108 496 c 0
 142.666666667 575.333333333 187 642.666666667 241 698 c 0
161 340 m 0
 141.666666667 377.333333333 126.666666667 382.333333333 116 355 c 0
 109.333333333 336.333333333 106 305.666666667 106 263 c 0
 106 227.666666667 109.833333333 207 117.5 201 c 0
 125.166666667 195 137.666666667 203.333333333 155 226 c 0
 181 259.333333333 183 297.333333333 161 340 c 0
EndSplineSet
EndChar

StartChar: uni0922
Encoding: 35 2338 23
Width: 399
Flags: W
VStem: 56 50<200.892 371.195>
LayerCount: 2
Fore
SplineSet
241 698 m 0
 272.333333333 730.666666667 295 749.833333333 309 755.5 c 0
 323 761.166666667 335.666666667 757.333333333 347 744 c 0
 353 736.666666667 354.833333333 730.5 352.5 725.5 c 0
 350.166666667 720.5 341.333333333 712.333333333 326 701 c 0
 270.666666667 659.666666667 223.666666667 604.333333333 185 535 c 0
 162.333333333 493.666666667 150.166666667 463.833333333 148.5 445.5 c 0
 146.833333333 427.166666667 154.333333333 411.333333333 171 398 c 0
 209 368 227.166666667 329.666666667 225.5 283 c 0
 223.833333333 236.333333333 202.666666667 197.666666667 162 167 c 2
 126 139 l 1
 142 107 l 2
 152 87.6666666667 175.666666667 54.3333333333 213 7 c 0
 250.333333333 -40.3333333333 280.333333333 -75 303 -97 c 0
 317.666666667 -111 326.333333333 -121.166666667 329 -127.5 c 0
 331.666666667 -133.833333333 330.666666667 -141.333333333 326 -150 c 0
 318.666666667 -164.666666667 310 -170.666666667 300 -168 c 0
 290 -165.333333333 275 -153.333333333 255 -132 c 0
 183 -55.3333333333 131.833333333 14 101.5 76 c 0
 71.1666666667 138 56 204.333333333 56 275 c 0
 56 343 73.3333333333 416.666666667 108 496 c 0
 142.666666667 575.333333333 187 642.666666667 241 698 c 0
161 340 m 0
 141.666666667 377.333333333 126.666666667 382.333333333 116 355 c 0
 109.333333333 336.333333333 106 305.666666667 106 263 c 0
 106 227.666666667 109.833333333 207 117.5 201 c 0
 125.166666667 195 137.666666667 203.333333333 155 226 c 0
 181 259.333333333 183 297.333333333 161 340 c 0
EndSplineSet
EndChar

StartChar: uni0928
Encoding: 41 2344 24
Width: 464
Flags: HW
LayerCount: 2
Fore
SplineSet
195.5 748 m 0
 184.833007812 771.333007812 168.5 775.666992188 146.5 761 c 0
 140.5 757.666992188 139.333007812 745.5 143 724.5 c 128
 146.666992188 703.5 157.166992188 661.666992188 174.5 599 c 0
 203.166992188 487.666992188 218.833007812 421.333007812 221.5 400 c 0
 224.166992188 378 223 362 218 352 c 128
 213 342 195.5 319.666992188 165.5 285 c 0
 115.5 229 83 187.333007812 68 160 c 128
 53 132.666992188 45.5 101.333007812 45.5 66 c 0
 45.5 25.3330078125 48.1669921875 -2.8330078125 53.5 -18.5 c 128
 58.8330078125 -34.1669921875 69.5 -46.3330078125 85.5 -55 c 0
 96.8330078125 -61 106.333007812 -63.6669921875 114 -63 c 128
 121.666992188 -62.3330078125 134.5 -57.6669921875 152.5 -49 c 0
 163.166992188 -43.6669921875 177.5 -34.1669921875 195.5 -20.5 c 128
 213.5 -6.8330078125 229.333007812 7 243 21 c 128
 256.666992188 35 269.666992188 46.3330078125 282 55 c 128
 294.333007812 63.6669921875 301.833007812 67.3330078125 304.5 66 c 0
 309.833007812 62.6669921875 318.833007812 28.6669921875 331.5 -36 c 0
 340.833007812 -87.3330078125 350.833007812 -123.333007812 361.5 -144 c 128
 372.166992188 -164.666992188 384.5 -172.333007812 398.5 -167 c 0
 410.5 -162.333007812 415.333007812 -149.833007812 413 -129.5 c 128
 410.666992188 -109.166992188 398.5 -58.6669921875 376.5 22 c 0
 355.166992188 99.3330078125 320.166992188 240.333007812 271.5 445 c 0
 226.166992188 632.333007812 200.833007812 733.333007812 195.5 748 c 0
167.5 208 m 0
 171.5 231.333007812 185.166992188 234 208.5 216 c 0
 217.833007812 209.333007812 227.833007812 199.333007812 238.5 186 c 0
 276.5 140 284.833007812 115 263.5 111 c 0
 262.166992188 110.333007812 260.5 110 258.5 110 c 0
 247.166992188 110 228.666992188 123.833007812 203 151.5 c 128
 177.333007812 179.166992188 165.5 198 167.5 208 c 0
117.5 138 m 0
 121.5 161.333007812 137.5 160.333007812 165.5 135 c 0
 171.5 129 171.5 129 179.5 121 c 0
 206.166992188 93 216.833007812 72 211.5 58 c 0
 208.833007812 52.6669921875 203.833007812 50 196.5 50 c 0
 187.166992188 50 171.166992188 62.5 148.5 87.5 c 128
 125.833007812 112.5 115.5 129.333007812 117.5 138 c 0
EndSplineSet
Substitution2: "end_char substitutions" an_am
EndChar

StartChar: uni092A
Encoding: 43 2346 25
Width: 491
Flags: W
HStem: 705 55<130.187 357.786>
VStem: 73 52<65.4734 503.508> 80 338<308.078 756.188> 358 60<440 705> 368 50<175 625.5>
LayerCount: 2
Fore
SplineSet
80 753 m 0xa0
 83.3333333333 757.666666667 139.666666667 760 249 760 c 0
 329.666666667 760 377.333333333 759 392 757 c 0
 406.666666667 755 415.333333333 748.666666667 418 738 c 0xa0
 421.333333333 724 422.333333333 626.333333333 421 445 c 2
 418 175 l 1
 393 175 l 1
 368 175 l 1x88
 363 440 l 1
 358 705 l 1
 243 705 l 1
 128 705 l 1
 125 281 l 2
 123.666666667 -1.66666666667 119.333333333 -147.333333333 112 -156 c 0
 104.666666667 -164 96.3333333333 -166.333333333 87 -163 c 0
 81 -161 77.1666666667 -132.333333333 75.5 -77 c 0
 73.8333333333 -21.6666666667 73 102 73 294 c 0xd0
 73 596.666666667 75.3333333333 749.666666667 80 753 c 0xa0
EndSplineSet
EndChar

StartChar: uni092B
Encoding: 44 2347 26
Width: 491
Flags: W
HStem: 705 55<130.187 357.786>
VStem: 73 52<65.4734 503.508> 80 338<308.078 756.188> 358 60<440 705> 368 50<175 625.5>
LayerCount: 2
Fore
SplineSet
80 753 m 0xa0
 83.3333333333 757.666666667 139.666666667 760 249 760 c 0
 329.666666667 760 377.333333333 759 392 757 c 0
 406.666666667 755 415.333333333 748.666666667 418 738 c 0xa0
 421.333333333 724 422.333333333 626.333333333 421 445 c 2
 418 175 l 1
 393 175 l 1
 368 175 l 1x88
 363 440 l 1
 358 705 l 1
 243 705 l 1
 128 705 l 1
 125 281 l 2
 123.666666667 -1.66666666667 119.333333333 -147.333333333 112 -156 c 0
 104.666666667 -164 96.3333333333 -166.333333333 87 -163 c 0
 81 -161 77.1666666667 -132.333333333 75.5 -77 c 0
 73.8333333333 -21.6666666667 73 102 73 294 c 0xd0
 73 596.666666667 75.3333333333 749.666666667 80 753 c 0xa0
EndSplineSet
EndChar

StartChar: uni092C
Encoding: 45 2348 27
Width: 1040
Flags: W
HStem: -108.5 57.5<59.0233 170.65 833.153 984.546> -108.5 42.5<50.1277 161.043> 0 60<62.1478 176.709> 28 34<910.709 990.997> 530 60<388 426> 530 50<591.823 633>
VStem: 326 73.5<-77.5 -12.4897> 433 36<675.606 767.934> 505 44<-115 156.919> 543 45<590.252 766.93> 776 50<-35.4077 16.3868>
LayerCount: 2
Fore
SplineSet
433 764 m 0xab60
 437 768 444.666666667 769.333333333 456 768 c 0
 462 766.666666667 466.333333333 760 469 748 c 0
 471.666666667 736 474 713.666666667 476 681 c 0
 478 649 480.5 626.333333333 483.5 613 c 0
 486.5 599.666666667 491.333333333 591 498 587 c 0
 508.666666667 579.666666667 519.666666667 580.666666667 531 590 c 0xab60
 537.666666667 595.333333333 541.666666667 603.333333333 543 614 c 0
 544.333333333 624.666666667 543.666666667 645 541 675 c 0
 537.666666667 704.333333333 536.666666667 724.333333333 538 735 c 0
 539.333333333 745.666666667 543.333333333 753.666666667 550 759 c 0
 556.666666667 764.333333333 562 767 566 767 c 0
 570 767 575.333333333 764.333333333 582 759 c 0
 588 754.333333333 591.666666667 746.333333333 593 735 c 0
 594.333333333 723.666666667 593.666666667 703.333333333 591 674 c 0
 587.666666667 640.666666667 586.666666667 619.833333333 588 611.5 c 0
 589.333333333 603.166666667 594.666666667 596.333333333 604 591 c 0
 617.333333333 583.666666667 632.666666667 580 650 580 c 0
 660.666666667 580 668 576.666666667 672 570 c 0
 681.333333333 556.666666667 705.666666667 481.666666667 745 345 c 0
 747 336.333333333 755 308 769 260 c 2
 821 75 l 1
 906 70 l 2
 944.666666667 67.3333333333 968.5 64.6666666667 977.5 62 c 0
 986.5 59.3333333333 991 53.6666666667 991 45 c 0
 991 36.3333333333 986.5 30.6666666667 977.5 28 c 0
 968.5 25.3333333333 945.666666667 23.3333333333 909 22 c 2
 909 22 909 22 908 22 c 0
 867.333333333 20.6666666667 843.5 18.8333333333 836.5 16.5 c 0
 829.5 14.1666666667 826 6.66666666667 826 -6 c 0
 826 -9.33333333333 826.166666667 -12.1666666667 826.5 -14.5 c 0
 827 -18 827 -18 827.5 -21.5 c 0
 827.833333333 -23.8333333333 828.833333333 -25.6666666667 830.5 -27 c 0
 832.166666667 -28.3333333333 833.833333333 -29.8333333333 835.5 -31.5 c 0
 837.166666667 -33.1666666667 839.833333333 -34.3333333333 843.5 -35 c 0
 847.166666667 -35.6666666667 851 -36.5 855 -37.5 c 0
 859 -38.5 864.5 -39.3333333333 871.5 -40 c 0
 878.5 -40.6666666667 885.333333333 -41.5 892 -42.5 c 0
 898.666666667 -43.5 907.666666667 -44.3333333333 919 -45 c 0
 949.666666667 -48.3333333333 968.5 -51.5 975.5 -54.5 c 0
 982.5 -57.5 986 -64.3333333333 986 -75 c 0
 986 -90.3333333333 980.5 -99.5 969.5 -102.5 c 0
 958.5 -105.5 932.333333333 -104.333333333 891 -99 c 0
 889 -99 886 -98.6666666667 882 -98 c 0
 828.666666667 -92 797.666666667 -86.1666666667 789 -80.5 c 0
 780.333333333 -74.8333333333 776 -59 776 -33 c 0
 776 -29 776 -29 776 -27 c 0
 776 6.33333333333 752.333333333 108 705 278 c 2
 633 530 l 1
 510 530 l 1x1760
 388 530 l 1
 378 498 l 2
 370.666666667 477.333333333 365.333333333 456.333333333 362 435 c 0
 356 409.666666667 342.333333333 361 321 289 c 0
 299.666666667 217 282.666666667 162.666666667 270 126 c 0
 254 81.3333333333 243.666666667 33.6666666667 239 -17 c 0
 235 -65.6666666667 231 -91.3333333333 227 -94 c 0
 224.333333333 -96 195 -99.6666666667 139 -105 c 0
 102.333333333 -108.333333333 79 -109.5 69 -108.5 c 0x8b60
 59 -107.5 52.6666666667 -103.333333333 50 -96 c 0
 44.6666666667 -82.6666666667 47.5 -72.6666666667 58.5 -66 c 0x4360
 69.5 -59.3333333333 91 -54.3333333333 123 -51 c 0
 147.666666667 -48.3333333333 163.666666667 -45.3333333333 171 -42 c 0
 178.333333333 -38.6666666667 182.666666667 -32 184 -22 c 0
 185.333333333 -11.3333333333 183 -5 177 -3 c 0
 171 -1 152.333333333 0 121 0 c 0
 77 0 53.3333333333 5 50 15 c 0
 44 30.3333333333 47.8333333333 41.6666666667 61.5 49 c 0
 75.1666666667 56.3333333333 98.6666666667 60 132 60 c 2
 195 60 l 1
 206 103 l 2
 224 172.333333333 251.166666667 267.5 287.5 388.5 c 0
 323.833333333 509.5 344 572.666666667 348 578 c 0
 356 586 370.666666667 590 392 590 c 2
 426 590 l 1
 426 673 l 2
 426 729 428.333333333 759.333333333 433 764 c 0xab60
416 130 m 0
 450 199.333333333 474.666666667 246.666666667 490 272 c 0
 505.333333333 297.333333333 516.833333333 310 524.5 310 c 0
 532.166666667 310 543.833333333 297 559.5 271 c 0
 575.166666667 245 601 196.333333333 637 125 c 0
 681.666666667 37 707.5 -16.5 714.5 -35.5 c 0
 721.5 -54.5 721 -68.3333333333 713 -77 c 0
 705 -84.3333333333 699.333333333 -88.1666666667 696 -88.5 c 0
 692.666666667 -88.8333333333 687.666666667 -85.6666666667 681 -79 c 0
 669.666666667 -68.3333333333 648.666666667 -27 618 45 c 0
 585.333333333 117 565.333333333 154.666666667 558 158 c 0
 553.333333333 159.333333333 550.333333333 149 549 127 c 0
 547.666666667 105.666666667 547.666666667 71 549 23 c 2
 551 -115 l 1
 526 -115 l 1
 501 -115 l 1
 505 35 l 2x03a0
 505.666666667 128.333333333 503.333333333 175 498 175 c 1
 490.666666667 169 470 125.666666667 436 45 c 0
 420 8.33333333333 407.833333333 -18.8333333333 399.5 -36.5 c 0
 391.166666667 -54.1666666667 383.166666667 -69 375.5 -81 c 0
 367.833333333 -93 362 -98.1666666667 358 -96.5 c 0
 354 -94.8333333333 348.666666667 -92.6666666667 342 -90 c 0
 331.333333333 -82 326 -73.3333333333 326 -64 c 0
 326 -56 356 8.66666666667 416 130 c 0
EndSplineSet
Validated: 33
EndChar

StartChar: uni092D
Encoding: 46 2349 28
Width: 1040
Flags: W
HStem: -108.5 57.5<59.0233 170.65 833.153 984.546> -108.5 42.5<50.1277 161.043> 0 60<62.1478 176.709> 28 34<910.709 990.997> 530 60<388 426> 530 50<591.823 633>
VStem: 326 73.5<-77.5 -12.4897> 433 36<675.606 767.934> 505 44<-115 156.919> 543 45<590.252 766.93> 776 50<-35.4077 16.3868>
LayerCount: 2
Fore
SplineSet
433 764 m 0xab60
 437 768 444.666666667 769.333333333 456 768 c 0
 462 766.666666667 466.333333333 760 469 748 c 0
 471.666666667 736 474 713.666666667 476 681 c 0
 478 649 480.5 626.333333333 483.5 613 c 0
 486.5 599.666666667 491.333333333 591 498 587 c 0
 508.666666667 579.666666667 519.666666667 580.666666667 531 590 c 0xab60
 537.666666667 595.333333333 541.666666667 603.333333333 543 614 c 0
 544.333333333 624.666666667 543.666666667 645 541 675 c 0
 537.666666667 704.333333333 536.666666667 724.333333333 538 735 c 0
 539.333333333 745.666666667 543.333333333 753.666666667 550 759 c 0
 556.666666667 764.333333333 562 767 566 767 c 0
 570 767 575.333333333 764.333333333 582 759 c 0
 588 754.333333333 591.666666667 746.333333333 593 735 c 0
 594.333333333 723.666666667 593.666666667 703.333333333 591 674 c 0
 587.666666667 640.666666667 586.666666667 619.833333333 588 611.5 c 0
 589.333333333 603.166666667 594.666666667 596.333333333 604 591 c 0
 617.333333333 583.666666667 632.666666667 580 650 580 c 0
 660.666666667 580 668 576.666666667 672 570 c 0
 681.333333333 556.666666667 705.666666667 481.666666667 745 345 c 0
 747 336.333333333 755 308 769 260 c 2
 821 75 l 1
 906 70 l 2
 944.666666667 67.3333333333 968.5 64.6666666667 977.5 62 c 0
 986.5 59.3333333333 991 53.6666666667 991 45 c 0
 991 36.3333333333 986.5 30.6666666667 977.5 28 c 0
 968.5 25.3333333333 945.666666667 23.3333333333 909 22 c 2
 909 22 909 22 908 22 c 0
 867.333333333 20.6666666667 843.5 18.8333333333 836.5 16.5 c 0
 829.5 14.1666666667 826 6.66666666667 826 -6 c 0
 826 -9.33333333333 826.166666667 -12.1666666667 826.5 -14.5 c 0
 827 -18 827 -18 827.5 -21.5 c 0
 827.833333333 -23.8333333333 828.833333333 -25.6666666667 830.5 -27 c 0
 832.166666667 -28.3333333333 833.833333333 -29.8333333333 835.5 -31.5 c 0
 837.166666667 -33.1666666667 839.833333333 -34.3333333333 843.5 -35 c 0
 847.166666667 -35.6666666667 851 -36.5 855 -37.5 c 0
 859 -38.5 864.5 -39.3333333333 871.5 -40 c 0
 878.5 -40.6666666667 885.333333333 -41.5 892 -42.5 c 0
 898.666666667 -43.5 907.666666667 -44.3333333333 919 -45 c 0
 949.666666667 -48.3333333333 968.5 -51.5 975.5 -54.5 c 0
 982.5 -57.5 986 -64.3333333333 986 -75 c 0
 986 -90.3333333333 980.5 -99.5 969.5 -102.5 c 0
 958.5 -105.5 932.333333333 -104.333333333 891 -99 c 0
 889 -99 886 -98.6666666667 882 -98 c 0
 828.666666667 -92 797.666666667 -86.1666666667 789 -80.5 c 0
 780.333333333 -74.8333333333 776 -59 776 -33 c 0
 776 -29 776 -29 776 -27 c 0
 776 6.33333333333 752.333333333 108 705 278 c 2
 633 530 l 1
 510 530 l 1x1760
 388 530 l 1
 378 498 l 2
 370.666666667 477.333333333 365.333333333 456.333333333 362 435 c 0
 356 409.666666667 342.333333333 361 321 289 c 0
 299.666666667 217 282.666666667 162.666666667 270 126 c 0
 254 81.3333333333 243.666666667 33.6666666667 239 -17 c 0
 235 -65.6666666667 231 -91.3333333333 227 -94 c 0
 224.333333333 -96 195 -99.6666666667 139 -105 c 0
 102.333333333 -108.333333333 79 -109.5 69 -108.5 c 0x8b60
 59 -107.5 52.6666666667 -103.333333333 50 -96 c 0
 44.6666666667 -82.6666666667 47.5 -72.6666666667 58.5 -66 c 0x4360
 69.5 -59.3333333333 91 -54.3333333333 123 -51 c 0
 147.666666667 -48.3333333333 163.666666667 -45.3333333333 171 -42 c 0
 178.333333333 -38.6666666667 182.666666667 -32 184 -22 c 0
 185.333333333 -11.3333333333 183 -5 177 -3 c 0
 171 -1 152.333333333 0 121 0 c 0
 77 0 53.3333333333 5 50 15 c 0
 44 30.3333333333 47.8333333333 41.6666666667 61.5 49 c 0
 75.1666666667 56.3333333333 98.6666666667 60 132 60 c 2
 195 60 l 1
 206 103 l 2
 224 172.333333333 251.166666667 267.5 287.5 388.5 c 0
 323.833333333 509.5 344 572.666666667 348 578 c 0
 356 586 370.666666667 590 392 590 c 2
 426 590 l 1
 426 673 l 2
 426 729 428.333333333 759.333333333 433 764 c 0xab60
416 130 m 0
 450 199.333333333 474.666666667 246.666666667 490 272 c 0
 505.333333333 297.333333333 516.833333333 310 524.5 310 c 0
 532.166666667 310 543.833333333 297 559.5 271 c 0
 575.166666667 245 601 196.333333333 637 125 c 0
 681.666666667 37 707.5 -16.5 714.5 -35.5 c 0
 721.5 -54.5 721 -68.3333333333 713 -77 c 0
 705 -84.3333333333 699.333333333 -88.1666666667 696 -88.5 c 0
 692.666666667 -88.8333333333 687.666666667 -85.6666666667 681 -79 c 0
 669.666666667 -68.3333333333 648.666666667 -27 618 45 c 0
 585.333333333 117 565.333333333 154.666666667 558 158 c 0
 553.333333333 159.333333333 550.333333333 149 549 127 c 0
 547.666666667 105.666666667 547.666666667 71 549 23 c 2
 551 -115 l 1
 526 -115 l 1
 501 -115 l 1
 505 35 l 2x03a0
 505.666666667 128.333333333 503.333333333 175 498 175 c 1
 490.666666667 169 470 125.666666667 436 45 c 0
 420 8.33333333333 407.833333333 -18.8333333333 399.5 -36.5 c 0
 391.166666667 -54.1666666667 383.166666667 -69 375.5 -81 c 0
 367.833333333 -93 362 -98.1666666667 358 -96.5 c 0
 354 -94.8333333333 348.666666667 -92.6666666667 342 -90 c 0
 331.333333333 -82 326 -73.3333333333 326 -64 c 0
 326 -56 356 8.66666666667 416 130 c 0
EndSplineSet
Validated: 33
EndChar

StartChar: uni092E
Encoding: 47 2350 29
Width: 484
Flags: W
VStem: 47 37<84.2855 127.635> 150.5 64.5<-163.169 -56.2866> 269 72<-161.999 -79.1625>
LayerCount: 2
Fore
SplineSet
207 754 m 0
 234.333333333 773.333333333 262.333333333 767.833333333 291 737.5 c 0
 319.666666667 707.166666667 346 655 370 581 c 0
 377.333333333 559 381.666666667 536.666666667 383 514 c 0
 384.333333333 491.333333333 383.333333333 452 380 396 c 2
 373 265 l 1
 404 200 l 2
 435.333333333 134 442 95.3333333333 424 84 c 0
 416 78.6666666667 407 82.5 397 95.5 c 0
 387 108.5 375.666666667 131.333333333 363 164 c 0
 357 180 350.5 194.166666667 343.5 206.5 c 0
 336.5 218.833333333 331.333333333 225.666666667 328 227 c 0
 320.666666667 229.666666667 310 211.833333333 296 173.5 c 0
 282 135.166666667 275 104 275 80 c 0
 275 54.6666666667 285.333333333 14 306 -42 c 0
 306.666666667 -43.3333333333 307.666666667 -45.6666666667 309 -49 c 0
 328.333333333 -103 339 -134.833333333 341 -144.5 c 0
 343 -154.166666667 339.666666667 -160.333333333 331 -163 c 0
 330.333333333 -163.666666667 329.666666667 -164 329 -164 c 0
 295.666666667 -176.666666667 275.666666667 -159.333333333 269 -112 c 0
 263.666666667 -78.6666666667 258 -54.6666666667 252 -40 c 2
 243 -15 l 1
 229 -45 l 2
 221 -63 216.333333333 -82.3333333333 215 -103 c 0
 215 -122.333333333 211.166666667 -138.333333333 203.5 -151 c 0
 195.833333333 -163.666666667 186 -170 174 -170 c 0
 165.333333333 -170 159.166666667 -168.333333333 155.5 -165 c 0
 151.833333333 -161.666666667 150.166666667 -154.666666667 150.5 -144 c 0
 150.833333333 -133.333333333 153.333333333 -119.5 158 -102.5 c 0
 162.666666667 -85.5 170 -62.3333333333 180 -33 c 0
 204.666666667 40.3333333333 215 85.6666666667 211 103 c 0
 206.333333333 126.333333333 196.666666667 153.333333333 182 184 c 0
 167.333333333 214.666666667 157 229 151 227 c 0
 143.666666667 224.333333333 132.666666667 203.666666667 118 165 c 0
 105.333333333 132.333333333 94 109.333333333 84 96 c 0
 74 82.6666666667 64.6666666667 78.6666666667 56 84 c 0
 46.6666666667 90 43.6666666667 101.833333333 47 119.5 c 0
 50.3333333333 137.166666667 61 166.333333333 79 207 c 2
 113 285 l 1
 102 397 l 2
 97.3333333333 447 95.3333333333 481.333333333 96 500 c 0
 96.6666666667 518.666666667 101 541 109 567 c 0
 122.333333333 608.333333333 138.666666667 647.666666667 158 685 c 0
 177.333333333 722.333333333 193.666666667 745.333333333 207 754 c 0
281 654 m 0
 274.333333333 669.333333333 267.166666667 682.5 259.5 693.5 c 0
 251.833333333 704.5 246.333333333 710 243 710 c 0
 224.333333333 710 201.666666667 668.666666667 175 586 c 0
 158.333333333 536 151.666666667 482 155 424 c 0
 158.333333333 366 171.333333333 310.666666667 194 258 c 0
 216 205.333333333 230 177.333333333 236 174 c 0
 240 172 245.333333333 175.666666667 252 185 c 0
 258.666666667 194.333333333 265.833333333 207.666666667 273.5 225 c 0
 281.166666667 242.333333333 288.666666667 261 296 281 c 0
 303.333333333 301 309.833333333 321.833333333 315.5 343.5 c 0
 321.166666667 365.166666667 325 384.333333333 327 401 c 0
 333 445.666666667 332.833333333 485.5 326.5 520.5 c 0
 320.166666667 555.5 305 600 281 654 c 0
EndSplineSet
Validated: 33
EndChar

StartChar: uni092F
Encoding: 48 2351 30
Width: 918
Flags: W
HStem: 530 59<391.226 407.124> 548 47<179.883 328.941> 548 42<561.007 699.682> 630 50<253.383 343.261> 637.5 28.5<529.596 628.888> 718 49<250.897 319.694 550.399 622.133>
VStem: 53 38<39 165.742> 124 57<264.67 329.881> 124 49<400.406 525.648> 247 144<634.312 667.719 729.252 767.864> 349 42<597.815 626.904 683.611 713.781> 411 53<184 528.5> 559 67<-168.738 -103.301> 623 42<-11.9155 186.838> 710 49<401.946 535.868> 821.5 43.5<-38.3291 171.404>
LayerCount: 2
Fore
SplineSet
244 754 m 0x5633
 246.666666667 760.666666667 253.166666667 765 263.5 767 c 0
 273.833333333 769 293 770 321 770 c 2
 391 770 l 1
 391 679 l 1
 391 589 l 1x9633
 429 592 l 1
 466 595 l 1
 471 680 l 1x5633
 476 765 l 1
 549 768 l 2
 579 769.333333333 598.833333333 769.166666667 608.5 767.5 c 0
 618.166666667 765.833333333 624.333333333 761.666666667 627 755 c 0
 631.666666667 743.666666667 630.166666667 735.666666667 622.5 731 c 0
 614.833333333 726.333333333 596.666666667 722.666666667 568 720 c 0
 546 718 531.833333333 715.5 525.5 712.5 c 0
 519.166666667 709.5 516 703.666666667 516 695 c 0
 516 686.333333333 519.333333333 680.666666667 526 678 c 0
 532.666666667 675.333333333 548.666666667 673.333333333 574 672 c 0
 598.666666667 670.666666667 614.333333333 668.666666667 621 666 c 0
 627.666666667 663.333333333 630.333333333 658.666666667 629 652 c 256
 627.666666667 645.333333333 622.833333333 640.5 614.5 637.5 c 0x0e33
 606.166666667 634.5 591.666666667 632 571 630 c 0
 550.333333333 628 535.666666667 625.5 527 622.5 c 0
 518.333333333 619.5 513.666666667 614.666666667 513 608 c 0
 512.333333333 604 512.833333333 600.833333333 514.5 598.5 c 0
 516.166666667 596.166666667 521.666666667 594.333333333 531 593 c 0
 540.333333333 591.666666667 552.166666667 590.666666667 566.5 590 c 0
 580.833333333 589.333333333 603 588.666666667 633 588 c 2
 756 585 l 1
 759 450 l 2
 760.333333333 400 761.666666667 367 763 351 c 0
 764.333333333 335 766.666666667 322.833333333 770 314.5 c 0
 773.333333333 306.166666667 780.333333333 296.333333333 791 285 c 0
 817 258.333333333 835.833333333 227.833333333 847.5 193.5 c 0
 859.166666667 159.166666667 865 118 865 70 c 0
 865 -30.6666666667 839.666666667 -102.333333333 789 -145 c 0
 769.666666667 -161.666666667 754.833333333 -169.333333333 744.5 -168 c 0
 734.166666667 -166.666666667 719.666666667 -155 701 -133 c 0
 655 -82.3333333333 629 -17.6666666667 623 61 c 0x3637
 619.666666667 108.333333333 621.333333333 144.333333333 628 169 c 0
 634.666666667 193.666666667 649.333333333 221.333333333 672 252 c 0
 682.666666667 266 691.666666667 279.333333333 699 292 c 0
 706.333333333 304.666666667 709.666666667 312.666666667 709 316 c 0
 707 322.666666667 686 345.5 646 384.5 c 0
 606 423.5 566 460.5 526 495.5 c 0
 486 530.5 464.666666667 546.666666667 462 544 c 0
 456 538 456.666666667 473.333333333 464 350 c 0
 468.666666667 262.666666667 473 207.666666667 477 185 c 0
 481 162.333333333 489.666666667 139.666666667 503 117 c 0
 521.666666667 84.3333333333 531 66.6666666667 531 64 c 0
 531 62.6666666667 547.666666667 24.3333333333 581 -51 c 0
 595 -80.3333333333 606.333333333 -106.833333333 615 -130.5 c 0
 623.666666667 -154.166666667 627.333333333 -167.333333333 626 -170 c 0
 621.333333333 -176.666666667 612.666666667 -180 600 -180 c 0
 586.666666667 -180 573 -164 559 -132 c 0
 489.666666667 26 450.333333333 105 441 105 c 0
 437.666666667 105 429.333333333 90.8333333333 416 62.5 c 0
 402.666666667 34.1666666667 388 0 372 -40 c 0
 349.333333333 -97.3333333333 332.666666667 -135.833333333 322 -155.5 c 0
 311.333333333 -175.166666667 302.333333333 -185 295 -185 c 0
 275.666666667 -185 272.666666667 -163.333333333 286 -120 c 0
 295.333333333 -88.6666666667 315 -38.6666666667 345 30 c 2
 411 184 l 1
 411 357 l 2
 411 472.333333333 408 530 402 530 c 0
 395.333333333 530 377.666666667 514.333333333 349 483 c 0
 322.333333333 453 287.333333333 416.333333333 244 373 c 0
 226.666666667 356.333333333 211.833333333 340.833333333 199.5 326.5 c 0
 187.166666667 312.166666667 181 303.333333333 181 300 c 0x873b
 181 292.666666667 194 274 220 244 c 0
 256 202.666666667 276 152.5 280 93.5 c 0
 284 34.5 271 -23 241 -79 c 0
 219 -119.666666667 202.333333333 -145 191 -155 c 0
 169 -175 144 -166.666666667 116 -130 c 0
 83.3333333333 -87.3333333333 63 -31 55 39 c 0
 54 51 54 51 53 63 c 0
 50.3333333333 105.666666667 53 141.833333333 61 171.5 c 0
 69 201.166666667 84 230.666666667 106 260 c 0
 118 276.666666667 124.833333333 292.666666667 126.5 308 c 0
 128.166666667 323.333333333 127.333333333 368 124 442 c 0
 121.333333333 503.333333333 120.5 543.5 121.5 562.5 c 0
 122.5 581.5 126 591.333333333 132 592 c 0
 148 594 186 595 246 595 c 0
 290 595 317.833333333 596 329.5 598 c 0
 341.166666667 600 347.666666667 605 349 613 c 0x46b3
 350.333333333 620.333333333 348.5 625 343.5 627 c 0
 338.5 629 326.666666667 630 308 630 c 0
 272 630 251.666666667 637 247 651 c 0x5653
 245 656.333333333 247 662 253 668 c 0
 261 676 279.666666667 680 309 680 c 0
 327 680 338.5 681.166666667 343.5 683.5 c 0
 348.5 685.833333333 350.333333333 690.666666667 349 698 c 0
 347 709.333333333 331 716 301 718 c 0
 275.666666667 720 258.833333333 723.666666667 250.5 729 c 0
 242.166666667 734.333333333 240 742.666666667 244 754 c 0x5633
329 542 m 0
 330.333333333 544.666666667 322.833333333 546.666666667 306.5 548 c 0
 290.166666667 549.333333333 271.333333333 549.333333333 250 548 c 0
 228.666666667 546.666666667 212.333333333 544.333333333 201 541 c 0
 189.666666667 538.333333333 182.5 533.333333333 179.5 526 c 0
 176.5 518.666666667 174.333333333 500.333333333 173 471 c 0x4693
 170.333333333 423.666666667 174.166666667 399.166666667 184.5 397.5 c 0
 194.833333333 395.833333333 219.666666667 416.333333333 259 459 c 0
 305 509.666666667 328.333333333 537.333333333 329 542 c 0
700 536 m 0
 693.333333333 540 678.5 543.166666667 655.5 545.5 c 0
 632.5 547.833333333 611 548.666666667 591 548 c 0x2613
 571 547.333333333 561 545 561 541 c 0
 561 535.666666667 582.166666667 512 624.5 470 c 0
 666.833333333 428 692.666666667 405.333333333 702 402 c 0
 706 400.666666667 708.666666667 410.5 710 431.5 c 0
 711.333333333 452.5 711 474.5 709 497.5 c 0
 707 520.5 704 533.333333333 700 536 c 0
788 200 m 0
 759.333333333 257.333333333 730.666666667 263 702 217 c 0
 676 175 663.666666667 130 665 82 c 0x0617
 666.333333333 34 681 -12.3333333333 709 -57 c 0
 725 -81.6666666667 739.166666667 -95.1666666667 751.5 -97.5 c 0
 763.833333333 -99.8333333333 775.333333333 -91 786 -71 c 0
 809.333333333 -24.3333333333 821.166666667 20.6666666667 821.5 64 c 0
 821.833333333 107.333333333 810.666666667 152.666666667 788 200 c 0
206 178 m 0
 196.666666667 197.333333333 188.666666667 210.833333333 182 218.5 c 0
 175.333333333 226.166666667 168.333333333 230 161 230 c 0
 147 230 131.833333333 212.833333333 115.5 178.5 c 0
 99.1666666667 144.166666667 91 112.333333333 91 83 c 0
 91 60.3333333333 97 30.6666666667 109 -6 c 0
 121 -42.6666666667 133.333333333 -69.3333333333 146 -86 c 0
 153.333333333 -95.3333333333 158.833333333 -99.5 162.5 -98.5 c 0
 166.166666667 -97.5 174 -90.3333333333 186 -77 c 0
 211.333333333 -48.3333333333 226 -9.33333333333 230 40 c 0
 234 89.3333333333 226 135.333333333 206 178 c 0
EndSplineSet
Validated: 33
EndChar

StartChar: uni0930
Encoding: 49 2352 31
Width: 696
Flags: HW
LayerCount: 2
Fore
SplineSet
285 746 m 0
 331 766.666666667 380.166666667 754.5 432.5 709.5 c 128
 484.833333333 664.5 534 591.666666667 580 491 c 0
 597.333333333 453 609.5 422 616.5 398 c 128
 623.5 374 628.666666667 345 632 311 c 0
 638.666666667 247 638.5 198.833333333 631.5 166.5 c 128
 624.5 134.166666667 605 91.3333333333 573 38 c 0
 531.666666667 -34 495.666666667 -83.3333333333 465 -110 c 128
 434.333333333 -136.666666667 399.333333333 -150 360 -150 c 0
 314 -150 264.166666667 -122.166666667 210.5 -66.5 c 128
 156.833333333 -10.8333333333 115 56.3333333333 85 135 c 0
 69 178.333333333 59.8333333333 229 57.5 287 c 128
 55.1666666667 345 60.6666666667 397.666666667 74 445 c 0
 91.3333333333 503.666666667 122.166666667 564.666666667 166.5 628 c 128
 210.833333333 691.333333333 250.333333333 730.666666667 285 746 c 0
314 537 m 0
 309.333333333 636.333333333 304.666666667 688.333333333 300 693 c 0
 298 695.666666667 294.666666667 696.166666667 290 694.5 c 128
 285.333333333 692.833333333 280.666666667 689.666666667 276 685 c 0
 263.333333333 671.666666667 244.166666667 645.666666667 218.5 607 c 128
 192.833333333 568.333333333 180 545.666666667 180 539 c 0
 180 533 198.166666667 509.833333333 234.5 469.5 c 128
 270.833333333 429.166666667 295 405 307 397 c 0
 310.333333333 395.666666667 312.666666667 396.5 314 399.5 c 128
 315.333333333 402.5 316.333333333 409.5 317 420.5 c 128
 317.666666667 431.5 317.666666667 445.833333333 317 463.5 c 128
 316.333333333 481.166666667 315.333333333 505.666666667 314 537 c 0
450 609 m 0
 422 647.666666667 403 671.5 393 680.5 c 128
 383 689.5 374.666666667 690.666666667 368 684 c 0
 364.666666667 681.333333333 364.333333333 632.666666667 367 538 c 128
 369.666666667 443.333333333 373 390.666666667 377 380 c 0
 380.333333333 369.333333333 403.333333333 387.666666667 446 435 c 256
 488.666666667 482.333333333 510 509.666666667 510 517 c 0
 510 525 490 555.666666667 450 609 c 0
234 399 m 256
 176.666666667 453 145.333333333 480 140 480 c 0
 128.666666667 480 119.833333333 454.833333333 113.5 404.5 c 128
 107.166666667 354.166666667 105.5 301.5 108.5 246.5 c 128
 111.5 191.5 118.333333333 158.333333333 129 147 c 0
 133 143 165.833333333 167.333333333 227.5 220 c 128
 289.166666667 272.666666667 320 303 320 311 c 0
 320 315.666666667 291.333333333 345 234 399 c 256
547 428 m 0
 540.333333333 436 535 440 531 440 c 0
 526.333333333 440 502.666666667 418.333333333 460 375 c 2
 396 310 l 1
 480 225 l 2
 495.333333333 209.666666667 509.833333333 195.833333333 523.5 183.5 c 128
 537.166666667 171.166666667 548.333333333 161.833333333 557 155.5 c 128
 565.666666667 149.166666667 570.666666667 146.666666667 572 148 c 0
 576.666666667 152.666666667 581.333333333 180.333333333 586 231 c 0
 589.333333333 269 587.333333333 306.833333333 580 344.5 c 128
 572.666666667 382.166666667 561.666666667 410 547 428 c 0
341 -39 m 0
 340.333333333 -30.3333333333 339 -5.66666666667 337 35 c 128
 335 75.6666666667 333 107.333333333 331 130 c 2
 325 245 l 1
 255 171 l 2
 231 145.666666667 214.166666667 127.666666667 204.5 117 c 128
 194.833333333 106.333333333 187 96 181 86 c 128
 175 76 172.666666667 68.8333333333 174 64.5 c 128
 175.333333333 60.1666666667 178.333333333 54 183 46 c 0
 195.666666667 26.6666666667 222.666666667 -2.5 264 -41.5 c 128
 305.333333333 -80.5 328.666666667 -99 334 -97 c 0
 342 -93.6666666667 344.333333333 -74.3333333333 341 -39 c 0
464 166 m 0
 420 215.333333333 395 240 389 240 c 1
 386.333333333 234 385.166666667 212.5 385.5 175.5 c 128
 385.833333333 138.5 387.333333333 95 390 45 c 128
 392.666666667 -5 395.666666667 -39.3333333333 399 -58 c 0
 402.333333333 -73.3333333333 405.333333333 -81.8333333333 408 -83.5 c 128
 410.666666667 -85.1666666667 417.333333333 -82.3333333333 428 -75 c 0
 442 -65 462.5 -40.1666666667 489.5 -0.5 c 128
 516.5 39.1666666667 530 64.3333333333 530 75 c 128
 530 85.6666666667 508 116 464 166 c 0
EndSplineSet
Substitution2: "start_char substitutions" r_start
EndChar

StartChar: uni0932
Encoding: 51 2354 32
Width: 673
Flags: W
VStem: 330 50<280.656 363.338> 581 46<131.5 259.5>
LayerCount: 2
Fore
SplineSet
352 743 m 0
 342 754.333007812 330 760 316 760 c 0
 304 760 273.833007812 748.333007812 225.5 725 c 0
 177.166992188 701.666992188 148.666992188 685 140 675 c 0
 133.333007812 666.333007812 134.333007812 653.166992188 143 635.5 c 0
 151.666992188 617.833007812 184.333007812 564 241 474 c 0
 300.333007812 379.333007812 330 328.333007812 330 321 c 0
 330 313 285.333007812 239.666992188 196 101 c 0
 106.666992188 -38.3330078125 60 -114.666992188 56 -128 c 0
 52.6669921875 -138.666992188 55.3330078125 -149 64 -159 c 0
 72.6669921875 -169 81 -171.333007812 89 -166 c 0
 95.6669921875 -162 124.666992188 -117.333007812 176 -32 c 0
 242.666992188 76 289.666992188 151.333007812 317 194 c 0
 334.333007812 221.333007812 349.166992188 247 361.5 271 c 0
 373.833007812 295 380 310.333007812 380 317 c 0
 380 332.333007812 374.166992188 351.166992188 362.5 373.5 c 0
 350.833007812 395.833007812 321.666992188 443.333007812 275 516 c 0
 225 596 201 638.666992188 203 644 c 0
 205.666992188 651.333007812 213 655 225 655 c 0
 233 655 260.5 620.666992188 307.5 552 c 0
 354.5 483.333007812 392.333007812 421.666992188 421 367 c 0
 422.333007812 364.333007812 424.333007812 361 427 357 c 0
 435.666992188 342.333007812 435.666992188 325.666992188 427 307 c 0
 418.333007812 288.333007812 384.666992188 229.666992188 326 131 c 0
 312.666992188 108.333007812 302 90.6669921875 294 78 c 0
 211.333007812 -59.3330078125 170 -133 170 -143 c 0
 170 -151.666992188 173.833007812 -157.833007812 181.5 -161.5 c 0
 189.166992188 -165.166992188 198 -165.333007812 208 -162 c 0
 212 -161.333007812 217.833007812 -155.333007812 225.5 -144 c 0
 233.166992188 -132.666992188 240.333007812 -120 247 -106 c 0
 265.666992188 -69.3330078125 303.333007812 -2.3330078125 360 95 c 0
 417.333007812 191 454 256.333007812 470 291 c 2
 492 337 l 1
 390 499 l 2
 322.666992188 608.333007812 287 668.666992188 283 680 c 0
 280.333007812 691.333007812 282.833007812 699.333007812 290.5 704 c 0
 298.166992188 708.666992188 306.333007812 707.333007812 315 700 c 0
 321.666992188 694.666992188 353.5 644.5 410.5 549.5 c 0
 467.5 454.5 505.333007812 389 524 353 c 2
 540 320 l 1
 430 94 l 2
 356.666992188 -58.6669921875 320 -138.666992188 320 -146 c 0
 320 -156.666992188 326.333007812 -162.833007812 339 -164.5 c 0
 351.666992188 -166.166992188 362.333007812 -162.333007812 371 -153 c 0
 383 -139.666992188 402.666992188 -100.333007812 430 -35 c 0
 461.333007812 40.3330078125 491.666992188 108.333007812 521 169 c 0
 550.333007812 229.666992188 567 260 571 260 c 0
 578.333007812 260 583 253 585 239 c 0
 587 225 585.666992188 210.333007812 581 195 c 0
 575 173.666992188 555 116 521 22 c 0
 511.666992188 -6 504 -28.5 498 -45.5 c 0
 492 -62.5 486.833007812 -78.5 482.5 -93.5 c 0
 478.166992188 -108.5 475.333007812 -119.833007812 474 -127.5 c 0
 472.666992188 -135.166992188 472.166992188 -142 472.5 -148 c 0
 472.833007812 -154 474.166992188 -158.166992188 476.5 -160.5 c 0
 478.833007812 -162.833007812 482 -165 486 -167 c 0
 493.333007812 -169.666992188 499.666992188 -169.5 505 -166.5 c 0
 510.333007812 -163.5 516.666992188 -154.666992188 524 -140 c 0
 531.333007812 -125.333007812 539.166992188 -106.166992188 547.5 -82.5 c 0
 555.833007812 -58.8330078125 566.666992188 -25 580 19 c 0
 606.666992188 106.333007812 622.333007812 169 627 207 c 0
 631.666992188 245 627.333007812 277 614 303 c 0
 599.333007812 331 554 409 478 537 c 0
 402 665 360 733.666992188 352 743 c 0
EndSplineSet
EndChar

StartChar: uni0935
Encoding: 54 2357 33
Width: 662
Flags: HW
LayerCount: 2
Fore
SplineSet
290 763 m 0
 293.333333333 767.666666667 301.333333333 770 314 770 c 128
 326.666666667 770 334.666666667 752.833333333 338 718.5 c 128
 341.333333333 684.166666667 342.333333333 614.666666667 341 510 c 2
 338 335 l 1
 460 330 l 2
 540.666666667 326.666666667 583.333333333 322.666666667 588 318 c 0
 592 314.666666667 594.666666667 234.666666667 596 78 c 2
 598 -155 l 1
 514 -164 l 2
 452.666666667 -169.333333333 363.333333333 -169.666666667 246 -165 c 2
 63 -158 l 1
 63 70 l 2
 63 168 64 231.5 66 260.5 c 128
 68 289.5 72.3333333333 307.333333333 79 314 c 0
 89.6666666667 324.666666667 126.333333333 330 189 330 c 2
 283 330 l 1
 283 543 l 2
 283 686.333333333 285.333333333 759.666666667 290 763 c 0
541 72 m 1
 538 265 l 1
 333 267 l 2
 195.666666667 269.666666667 123.666666667 268 117 262 c 0
 111 257.333333333 109.333333333 193.333333333 112 70 c 2
 118 -115 l 1
 331 -118 l 1
 543 -120 l 1
 541 72 l 1
EndSplineSet
EndChar

StartChar: uni0936
Encoding: 55 2358 34
Width: 957
Flags: HW
LayerCount: 2
Fore
SplineSet
512.5 748 m 128
 504.5 756 494.5 760 482.5 760 c 0
 471.166992188 760 438 746.333007812 383 719 c 128
 328 691.666992188 273.5 662 219.5 630 c 0
 172.166992188 600.666992188 129.5 577 91.5 559 c 0
 60.1669921875 543.666992188 44.5 530.333007812 44.5 519 c 0
 44.5 511.666992188 71.3330078125 489.833007812 125 453.5 c 128
 178.666992188 417.166992188 242.5 377.666992188 316.5 335 c 0
 348.5 317 364.5 304.333007812 364.5 297 c 0
 363.166992188 288.333007812 310.833007812 252.666992188 207.5 190 c 0
 103.5 126.666992188 47.8330078125 88.6669921875 40.5 76 c 0
 35.8330078125 68.6669921875 34.3330078125 62.6669921875 36 58 c 128
 37.6669921875 53.3330078125 43.8330078125 47 54.5 39 c 0
 82.5 17.6669921875 160.5 -21.1669921875 288.5 -77.5 c 128
 416.5 -133.833007812 487.833007812 -160.666992188 502.5 -158 c 0
 509.833007812 -156.666992188 514.666992188 -146 517 -126 c 128
 519.333007812 -106 521.166992188 -56.3330078125 522.5 23 c 0
 523.833007812 141 526.833007812 200 531.5 200 c 128
 536.166992188 200 573.5 177 643.5 131 c 0
 706.166992188 89.6669921875 760.833007812 56 807.5 30 c 0
 842.833007812 10 864.5 3.1669921875 872.5 9.5 c 128
 880.5 15.8330078125 884.5 42.6669921875 884.5 90 c 0
 884.5 135.333007812 881 229 874 371 c 128
 867 513 862.166992188 585.333007812 859.5 588 c 0
 851.5 596 791.833007812 563 680.5 489 c 0
 591.166992188 429.666992188 542.5 400 534.5 400 c 0
 527.833007812 400 524.5 456 524.5 568 c 128
 524.5 680 520.5 740 512.5 748 c 128
359.5 635 m 0
 421.5 671.666992188 454.5 690 458.5 690 c 0
 463.166992188 690 466 635.333007812 467 526 c 128
 468 416.666992188 466.166992188 357.333007812 461.5 348 c 0
 454.833007812 334 445.166992188 329.333007812 432.5 334 c 128
 419.833007812 338.666992188 391.833007812 356 348.5 386 c 0
 293.166992188 424.666992188 247.5 453 211.5 471 c 0
 196.166992188 479 182.833007812 487.333007812 171.5 496 c 128
 160.166992188 504.666992188 154.5 511 154.5 515 c 0
 154.5 525 172.833007812 538.333007812 209.5 555 c 0
 244.833007812 569.666992188 294.833007812 596.333007812 359.5 635 c 0
703.5 430 m 0
 765.5 470 798.833007812 490 803.5 490 c 0
 809.5 490 814.166992188 436 817.5 328 c 0
 822.833007812 213.333007812 827.166992188 148.333007812 830.5 133 c 0
 833.166992188 120.333007812 833.833007812 111.666992188 832.5 107 c 128
 831.166992188 102.333007812 827.5 100 821.5 100 c 0
 812.166992188 100 765.833007812 125.666992188 682.5 177 c 0
 637.166992188 205 588.5 235 536.5 267 c 0
 501.166992188 288.333007812 510.166992188 314 563.5 344 c 0
 593.5 359.333007812 640.166992188 388 703.5 430 c 0
336.5 202 m 0
 358.5 216.666992188 377 228.333007812 392 237 c 128
 407 245.666992188 419.833007812 251.833007812 430.5 255.5 c 128
 441.166992188 259.166992188 449.333007812 260.333007812 455 259 c 128
 460.666992188 257.666992188 464.5 254 466.5 248 c 0
 469.166992188 239.333007812 469.166992188 182.666992188 466.5 78 c 0
 463.833007812 -27.3330078125 458.166992188 -80 449.5 -80 c 128
 440.833007812 -80 398.833007812 -62.3330078125 323.5 -27 c 0
 255.5 5.6669921875 204.833007812 29 171.5 43 c 0
 146.833007812 54.3330078125 134.5 63 134.5 69 c 128
 134.5 75 153.5 89 191.5 111 c 0
 227.5 131.666992188 275.833007812 162 336.5 202 c 0
EndSplineSet
EndChar

StartChar: uni0937
Encoding: 56 2359 35
Width: 719
Flags: W
VStem: 602 70<-126.658 -54.8939>
LayerCount: 2
Fore
SplineSet
324 468 m 0
 334.666666667 480 346 480.833333333 358 470.5 c 0
 370 460.166666667 387 435 409 395 c 0
 475.666666667 275 536.166666667 163.666666667 590.5 61 c 0
 644.833333333 -41.6666666667 672 -96.3333333333 672 -103 c 0
 672 -112.333333333 667 -121.333333333 657 -130 c 0
 651 -135.333333333 645.666666667 -137.666666667 641 -137 c 0
 636.333333333 -136.333333333 630 -132.333333333 622 -125 c 0
 608.666666667 -113 602 -104.333333333 602 -99 c 0
 602 -95.6666666667 575.333333333 -43.5 522 57.5 c 0
 468.666666667 158.5 417.333333333 253.666666667 368 343 c 0
 363.333333333 351 358.5 357.5 353.5 362.5 c 0
 348.5 367.5 344.666666667 369.333333333 342 368 c 0
 335.333333333 366 299.333333333 296.666666667 234 160 c 0
 199.333333333 87.3333333333 173.5 33.6666666667 156.5 -1 c 0
 139.5 -35.6666666667 124.666666667 -64.3333333333 112 -87 c 0
 99.3333333333 -109.666666667 90.3333333333 -123.333333333 85 -128 c 0
 79.6666666667 -132.666666667 73.6666666667 -135 67 -135 c 0
 55.6666666667 -135 48.8333333333 -131.5 46.5 -124.5 c 0
 44.1666666667 -117.5 47.1666666667 -101.5 55.5 -76.5 c 0
 63.8333333333 -51.5 77.1666666667 -19.6666666667 95.5 19 c 0
 113.833333333 57.6666666667 141 113 177 185 c 0
 267.666666667 363.666666667 316.666666667 458 324 468 c 0
EndSplineSet
EndChar

StartChar: uni0938
Encoding: 57 2360 36
Width: 689
Flags: W
VStem: 334 51<-73.321 190> 334 40<271.286 424.763> 421 47.5<270.642 436.685>
LayerCount: 2
Fore
SplineSet
316 763 m 0x20
 346 774.333333333 387 755.166666667 439 705.5 c 0
 491 655.833333333 535.333333333 593.666666667 572 519 c 0
 622 416.333333333 640.333333333 309.5 627 198.5 c 0
 613.666666667 87.5 571.666666667 -3 501 -73 c 0
 464.333333333 -109 435 -133 413 -145 c 0
 391 -157 369.166666667 -160.666666667 347.5 -156 c 0
 325.833333333 -151.333333333 298 -137.333333333 264 -114 c 0
 238.666666667 -96.6666666667 217.333333333 -79.1666666667 200 -61.5 c 0
 182.666666667 -43.8333333333 164.666666667 -21 146 7 c 0
 114.666666667 53.6666666667 93 96 81 134 c 0
 69 172 61.6666666667 222.333333333 59 285 c 0
 57 329 57 361.166666667 59 381.5 c 0
 61 401.833333333 67.6666666667 428.666666667 79 462 c 0
 98.3333333333 523.333333333 132.5 585 181.5 647 c 0
 230.5 709 275.333333333 747.666666667 316 763 c 0x20
366 695 m 0
 345.333333333 705.666666667 330.833333333 709.833333333 322.5 707.5 c 0
 314.166666667 705.166666667 299.666666667 693.333333333 279 672 c 0
 224.333333333 617.333333333 183.333333333 563.833333333 156 511.5 c 0
 128.666666667 459.166666667 113 403.666666667 109 345 c 0
 103 272.333333333 110.833333333 207.666666667 132.5 151 c 0
 154.166666667 94.3333333333 193 35.3333333333 249 -26 c 0
 285.666666667 -66 308.666666667 -86.3333333333 318 -87 c 0
 324 -87.6666666667 328.333333333 -83.3333333333 331 -74 c 0
 335.666666667 -60 336.666666667 -15 334 61 c 2xa0
 330 190 l 1
 298 223 l 2
 276 245 256.166666667 279.666666667 238.5 327 c 0
 220.833333333 374.333333333 216.666666667 403.666666667 226 415 c 0
 242.666666667 435.666666667 257.666666667 432 271 404 c 0
 277 391.333333333 283.333333333 373.666666667 290 351 c 0
 306 293.666666667 318.333333333 267 327 271 c 0
 333.666666667 275 336 300 334 346 c 0
 332 382.666666667 331.833333333 405 333.5 413 c 0
 335.166666667 421 341 425 351 425 c 0
 359.666666667 425 365.166666667 420.666666667 367.5 412 c 0
 369.833333333 403.333333333 372 380.333333333 374 343 c 0x60
 376 284.333333333 382.333333333 256.666666667 393 260 c 0
 404.333333333 262.666666667 413.666666667 296.666666667 421 362 c 0
 425.666666667 412 433.666666667 437 445 437 c 0
 449.666666667 437.666666667 456 434.333333333 464 427 c 0
 476 414.333333333 477.5 385.5 468.5 340.5 c 0
 459.5 295.5 444.666666667 258.666666667 424 230 c 0
 408 208 398.333333333 189 395 173 c 0
 391.666666667 157 388.333333333 116 385 50 c 0xa0
 381 -40.6666666667 381.333333333 -88.3333333333 386 -93 c 0
 389.333333333 -97.6666666667 398.5 -94.1666666667 413.5 -82.5 c 0
 428.5 -70.8333333333 445.5 -54.3333333333 464.5 -33 c 0
 483.5 -11.6666666667 500.333333333 10.3333333333 515 33 c 0
 557 98.3333333333 577.666666667 175.666666667 577 265 c 0
 576.333333333 354.333333333 554.333333333 438.333333333 511 517 c 0
 487 558.333333333 461.333333333 596 434 630 c 0
 406.666666667 664 384 685.666666667 366 695 c 0
EndSplineSet
EndChar

StartChar: uni0939
Encoding: 58 2361 37
Width: 866
Flags: W
HStem: 430 59.5<246.507 351.328>
VStem: 186.5 40<312.016 365.448>
LayerCount: 2
Fore
SplineSet
498.5 749 m 0
 473.166992188 764.333007812 435.833007812 764.166992188 386.5 748.5 c 0
 337.166992188 732.833007812 298.5 709 270.5 677 c 0
 249.166992188 652.333007812 233.5 629.166992188 223.5 607.5 c 0
 213.5 585.833007812 204 555.333007812 195 516 c 0
 186 476.666992188 174.833007812 453.333007812 161.5 446 c 0
 128.166992188 427.333007812 100.666992188 408.5 79 389.5 c 0
 57.3330078125 370.5 46.5 355.333007812 46.5 344 c 0
 46.5 333.333007812 49.8330078125 326.166992188 56.5 322.5 c 0
 63.1669921875 318.833007812 72.3330078125 319 84 323 c 0
 95.6669921875 327 108.833007812 334.666992188 123.5 346 c 0
 142.166992188 360 157.333007812 366.5 169 365.5 c 0
 180.666992188 364.5 186.5 356.333007812 186.5 341 c 0
 186.5 327.666992188 165.5 306.666992188 123.5 278 c 0
 61.5 233.333007812 47.1669921875 204 80.5 190 c 0
 81.8330078125 190 83.1669921875 189.666992188 84.5 189 c 0
 93.8330078125 185.666992188 102.5 185.666992188 110.5 189 c 0
 118.5 192.333007812 130.166992188 201 145.5 215 c 0
 171.5 238.333007812 188 250 195 250 c 0
 202 250 212.333007812 240.166992188 226 220.5 c 0
 239.666992188 200.833007812 246.5 186.333007812 246.5 177 c 0
 246.5 167 233.166992188 152.333007812 206.5 133 c 0
 185.166992188 117.666992188 171.5 105.333007812 165.5 96 c 0
 159.5 86.6669921875 158.5 76.3330078125 162.5 65 c 0
 168.5 50.3330078125 180.833007812 45.6669921875 199.5 51 c 0
 218.166992188 56.3330078125 237.5 70.3330078125 257.5 93 c 2
 296.5 135 l 1
 321.5 107 l 2
 338.166992188 88.3330078125 346 73.1669921875 345 61.5 c 0
 344 49.8330078125 333.833007812 32 314.5 8 c 0
 302.5 -7.3330078125 295 -19 292 -27 c 0
 289 -35 289.5 -42.3330078125 293.5 -49 c 0
 303.5 -64.3330078125 315 -69.5 328 -64.5 c 0
 341 -59.5 359.5 -42 383.5 -12 c 0
 512.166992188 144 580.833007812 219 589.5 213 c 0
 596.166992188 209 604.166992188 195 613.5 171 c 0
 640.166992188 105 672.166992188 31.5 709.5 -49.5 c 0
 746.833007812 -130.5 767.833007812 -172 772.5 -174 c 0
 780.5 -177.333007812 791.833007812 -173.333007812 806.5 -162 c 0
 816.5 -154 819.666992188 -143.166992188 816 -129.5 c 0
 812.333007812 -115.833007812 793.833007812 -73 760.5 -1 c 0
 757.833007812 6.3330078125 755.5 11.6669921875 753.5 15 c 0
 721.5 84.3330078125 697.666992188 135.666992188 682 169 c 0
 666.333007812 202.333007812 652.333007812 230 640 252 c 0
 627.666992188 274 618.833007812 287.5 613.5 292.5 c 0
 608.166992188 297.5 602.166992188 300 595.5 300 c 0
 584.833007812 300 563.833007812 284.833007812 532.5 254.5 c 0
 501.166992188 224.166992188 471.833007812 190.333007812 444.5 153 c 0
 436.5 141.666992188 428.166992188 131.666992188 419.5 123 c 0
 410.833007812 114.333007812 404.833007812 110 401.5 110 c 0
 395.5 110 371.333007812 136 329 188 c 0
 286.666992188 240 258.5 278.666992188 244.5 304 c 0
 233.833007812 324.666992188 227.833007812 351 226.5 383 c 2
 226.5 430 l 1
 276.5 430 l 2
 311.166992188 430 339.833007812 435.333007812 362.5 446 c 0
 385.166992188 456.666992188 408.5 475.666992188 432.5 503 c 0
 449.833007812 522.333007812 465.333007812 545.166992188 479 571.5 c 0
 492.666992188 597.833007812 502.666992188 623 509 647 c 0
 515.333007812 671 517.833007812 692.5 516.5 711.5 c 0
 515.166992188 730.5 509.166992188 743 498.5 749 c 0
371.5 677 m 0
 397.5 692.333007812 418.833007812 700 435.5 700 c 0
 446.833007812 700 453.333007812 698 455 694 c 0
 456.666992188 690 456.166992188 679.666992188 453.5 663 c 0
 448.833007812 637 434.5 606.833007812 410.5 572.5 c 0
 386.5 538.166992188 364.166992188 516.333007812 343.5 507 c 0
 318.833007812 495 296.5 489.166992188 276.5 489.5 c 0
 256.5 489.833007812 246.5 496.333007812 246.5 509 c 0
 246.5 525.666992188 262 554.833007812 293 596.5 c 0
 324 638.166992188 350.166992188 665 371.5 677 c 0
EndSplineSet
EndChar

StartChar: uni0913
Encoding: 20 2323 38
Width: 497
Flags: W
HStem: -160 100<153.5 203.5>
LayerCount: 2
Fore
SplineSet
345.5 760 m 0
 344.5 761 344.5 761 343.5 762 c 0
 336.833007812 766 327.333007812 764.333007812 315 757 c 0
 302.666992188 749.666992188 262.833007812 722 195.5 674 c 0
 187.5 668 181.5 663.666992188 177.5 661 c 0
 125.5 624.333007812 90.6669921875 598 73 582 c 0
 55.3330078125 566 46.8330078125 554 47.5 546 c 0
 51.5 521.333007812 69.8330078125 517 102.5 533 c 0
 121.166992188 543 147.166992188 560.333007812 180.5 585 c 0
 244.5 631 279.166992188 652.333007812 284.5 649 c 0
 285.166992188 647.666992188 285.5 646 285.5 644 c 0
 285.5 640.666992188 280.5 619.666992188 270.5 581 c 0
 258.5 535 231.333007812 407.333007812 189 198 c 0
 146.666992188 -11.3330078125 125.5 -122.666992188 125.5 -136 c 0
 125.5 -146 127.333007812 -152.5 131 -155.5 c 0
 134.666992188 -158.5 142.166992188 -160 153.5 -160 c 0
 173.5 -160 226.833007812 -125 313.5 -55 c 0
 376.166992188 -5 416.666992188 30.3330078125 435 51 c 0
 453.333007812 71.6669921875 458.666992188 88 451 100 c 0
 443.333007812 112 429.166992188 112.5 408.5 101.5 c 0
 387.833007812 90.5 354.833007812 65 309.5 25 c 0
 244.833007812 -31.6669921875 209.5 -60 203.5 -60 c 0
 197.5 -58 196 -48.1669921875 199 -30.5 c 0
 202 -12.8330078125 213.833007812 42.3330078125 234.5 135 c 0
 261.166992188 252.333007812 288.5 383.333007812 316.5 528 c 0
 334.5 620.666992188 345.333007812 681.666992188 349 711 c 0
 352.666992188 740.333007812 351.5 756.666992188 345.5 760 c 0
EndSplineSet
EndChar

StartChar: uni094D
Encoding: 75 2381 39
Width: 0
LayerCount: 2
Fore
SplineSet
46 561 m 1
 46 552 l 1025
EndSplineSet
Validated: 3
EndChar

StartChar: uni093E
Encoding: 60 2366 40
Width: 206
Flags: W
VStem: 73.5 57.5<-178.699 609.723> 80 41<557.112 777.966>
LayerCount: 2
Fore
SplineSet
80 774 m 0x40
 85.3333333333 778.666666667 94.6666666667 780 108 778 c 0
 114.666666667 777.333333333 119 772.666666667 121 764 c 0x40
 125.666666667 744 129 618.333333333 131 387 c 0
 131 370 131 370 131 330 c 0
 132.333333333 30.6666666667 131.333333333 -128.666666667 128 -148 c 0
 125.333333333 -165.333333333 118 -176 106 -180 c 0
 94 -184 85 -178.666666667 79 -164 c 0
 75 -152.666666667 73.1666666667 5.33333333333 73.5 310 c 0x80
 73.8333333333 614.666666667 76 769.333333333 80 774 c 0x40
EndSplineSet
Validated: 33
EndChar

StartChar: uni093F
Encoding: 61 2367 41
Width: 450
Flags: W
HStem: -160 49<72.0976 326.661> 55.5 55.5<74.1592 214> 281 54<77.9316 227> 518 59<79.2538 110.5 202 268.5>
VStem: 332 55<-103.641 -19 579.23 641 674 695>
LayerCount: 2
Fore
SplineSet
369 749 m 0
 355.666992188 757 304 760.666992188 214 760 c 0
 124 759.333007812 77.3330078125 755 74 747 c 0
 69.3330078125 733 75 723.5 91 718.5 c 0
 107 713.5 145.666992188 708.666992188 207 704 c 2
 332 695 l 1
 335 641 l 2
 337 604.333007812 333.666992188 583.666992188 325 579 c 0
 316.333007812 574.333007812 275.333007812 573.666992188 202 577 c 0
 156.666992188 579.666992188 126.166992188 580.333007812 110.5 579 c 0
 94.8330078125 577.666992188 84.3330078125 574 79 568 c 0
 70.3330078125 556.666992188 68.3330078125 546.333007812 73 537 c 0
 75.6669921875 530.333007812 85.1669921875 525.833007812 101.5 523.5 c 0
 117.833007812 521.166992188 152.333007812 519.333007812 205 518 c 2
 332 515 l 1
 332 425 l 1
 332 335 l 1
 227 338 l 2
 162.333007812 340 121.166992188 339 103.5 335 c 0
 85.8330078125 331 77 321 77 305 c 2
 77 281 l 1
 204 278 l 1
 332 275 l 1
 332 195 l 1
 332 115 l 1
 222 113 l 2
 140.666992188 111.666992188 98.6669921875 111 96 111 c 0
 84.6669921875 109.666992188 77.3330078125 102.666992188 74 90 c 0
 69.3330078125 72 76 60.5 94 55.5 c 0
 112 50.5 152 49 214 51 c 2
 332 55 l 1
 335 -19 l 2
 337 -68.3330078125 334.333007812 -96.6669921875 327 -104 c 0
 320.333007812 -110.666992188 278 -113 200 -111 c 0
 122.666992188 -109 81.3330078125 -112.333007812 76 -121 c 0
 66 -137 72.3330078125 -147.666992188 95 -153 c 0
 115.666992188 -157.666992188 158 -160 222 -160 c 0
 309.333007812 -160 359 -158 371 -154 c 0
 378.333007812 -151.333007812 382.833007812 -124.833007812 384.5 -74.5 c 0
 386.166992188 -24.1669921875 387 99.3330078125 387 296 c 0
 387 502.666992188 386.166992188 628.666992188 384.5 674 c 0
 382.833007812 719.333007812 377.666992188 744.333007812 369 749 c 0
EndSplineSet
Validated: 41
EndChar

StartChar: uni0940
Encoding: 62 2368 42
Width: 450
Flags: W
HStem: -160 49<72.0976 326.661> 55.5 55.5<74.1592 214> 281 54<77.9316 227> 518 59<79.2538 110.5 202 268.5>
VStem: 332 55<-103.641 -19 579.23 641 674 695>
LayerCount: 2
Fore
SplineSet
369 749 m 0
 355.666992188 757 304 760.666992188 214 760 c 0
 124 759.333007812 77.3330078125 755 74 747 c 0
 69.3330078125 733 75 723.5 91 718.5 c 0
 107 713.5 145.666992188 708.666992188 207 704 c 2
 332 695 l 1
 335 641 l 2
 337 604.333007812 333.666992188 583.666992188 325 579 c 0
 316.333007812 574.333007812 275.333007812 573.666992188 202 577 c 0
 156.666992188 579.666992188 126.166992188 580.333007812 110.5 579 c 0
 94.8330078125 577.666992188 84.3330078125 574 79 568 c 0
 70.3330078125 556.666992188 68.3330078125 546.333007812 73 537 c 0
 75.6669921875 530.333007812 85.1669921875 525.833007812 101.5 523.5 c 0
 117.833007812 521.166992188 152.333007812 519.333007812 205 518 c 2
 332 515 l 1
 332 425 l 1
 332 335 l 1
 227 338 l 2
 162.333007812 340 121.166992188 339 103.5 335 c 0
 85.8330078125 331 77 321 77 305 c 2
 77 281 l 1
 204 278 l 1
 332 275 l 1
 332 195 l 1
 332 115 l 1
 222 113 l 2
 140.666992188 111.666992188 98.6669921875 111 96 111 c 0
 84.6669921875 109.666992188 77.3330078125 102.666992188 74 90 c 0
 69.3330078125 72 76 60.5 94 55.5 c 0
 112 50.5 152 49 214 51 c 2
 332 55 l 1
 335 -19 l 2
 337 -68.3330078125 334.333007812 -96.6669921875 327 -104 c 0
 320.333007812 -110.666992188 278 -113 200 -111 c 0
 122.666992188 -109 81.3330078125 -112.333007812 76 -121 c 0
 66 -137 72.3330078125 -147.666992188 95 -153 c 0
 115.666992188 -157.666992188 158 -160 222 -160 c 0
 309.333007812 -160 359 -158 371 -154 c 0
 378.333007812 -151.333007812 382.833007812 -124.833007812 384.5 -74.5 c 0
 386.166992188 -24.1669921875 387 99.3330078125 387 296 c 0
 387 502.666992188 386.166992188 628.666992188 384.5 674 c 0
 382.833007812 719.333007812 377.666992188 744.333007812 369 749 c 0
EndSplineSet
Validated: 41
EndChar

StartChar: uniE000
Encoding: 103 57344 43
Width: 858
Flags: W
HStem: 480 90<624.897 664.991> 710 47.5<208.986 629.188>
VStem: 55 51<524.098 697.759> 746 53<494.997 685.55>
LayerCount: 2
Fore
SplineSet
61 744 m 0
 63.6666666667 751.333333333 85.1666666667 755.833333333 125.5 757.5 c 0
 165.833333333 759.166666667 268.666666667 759.333333333 434 758 c 2
 800 755 l 1
 799 632 l 2
 798.333333333 541.333333333 791.666666667 494.333333333 779 491 c 0
 773.666666667 490.333333333 767 494 759 502 c 0
 752.333333333 508.666666667 748 519.166666667 746 533.5 c 0
 744 547.833333333 743.333333333 572.666666667 744 608 c 0
 744.666666667 650.666666667 744 676.666666667 742 686 c 0
 740 695.333333333 733.666666667 701.333333333 723 704 c 0
 705.666666667 708 604.333333333 710 419 710 c 0
 232.333333333 710 132.666666667 705.333333333 120 696 c 0
 112 690.666666667 107.333333333 683.166666667 106 673.5 c 0
 104.666666667 663.833333333 105.333333333 643.666666667 108 613 c 0
 111.333333333 575.666666667 110 549.833333333 104 535.5 c 0
 98 521.166666667 86.6666666667 517.333333333 70 524 c 0
 64 526 60 534 58 548 c 0
 56 562 55 589 55 629 c 0
 55 695 57 733.333333333 61 744 c 0
177 568 m 0
 192.333333333 582.666666667 207.333333333 582.833333333 222 568.5 c 0
 236.666666667 554.166666667 270.666666667 507 324 427 c 0
 340 402.333333333 355.666666667 379.5 371 358.5 c 0
 386.333333333 337.5 398.833333333 321.5 408.5 310.5 c 0
 418.166666667 299.5 423.666666667 294.333333333 425 295 c 0
 431 297.666666667 464.666666667 344.666666667 526 436 c 0
 562 489.333333333 587.666666667 525 603 543 c 0
 618.333333333 561 630.666666667 570 640 570 c 0
 658.666666667 570 670.666666667 564.666666667 676 554 c 0
 681.333333333 543.333333333 679.333333333 529 670 511 c 0
 660 490.333333333 651.666666667 480 645 480 c 0
 639.666666667 480 625 460.666666667 601 422 c 0
 577 382.666666667 548.333333333 344 515 306 c 0
 480.333333333 266 464.666666667 240.666666667 468 230 c 0
 470 220 509.666666667 163 587 59 c 0
 663 -43.6666666667 703.333333333 -100.666666667 708 -112 c 0
 711.333333333 -122 708.666666667 -133.666666667 700 -147 c 1
 692.666666667 -151.666666667 686.833333333 -155.5 682.5 -158.5 c 0
 678.166666667 -161.5 670.166666667 -156.833333333 658.5 -144.5 c 0
 646.833333333 -132.166666667 634 -116.333333333 620 -97 c 0
 606 -77.6666666667 585.666666667 -48.3333333333 559 -9 c 0
 499.666666667 79 463 131.333333333 449 148 c 2
 430 172 l 1
 401 143 l 2
 381.666666667 125 344.666666667 74 290 -10 c 0
 244.666666667 -78.6666666667 213 -123.166666667 195 -143.5 c 0
 177 -163.833333333 162 -171.666666667 150 -167 c 0
 137.333333333 -162.333333333 132.833333333 -150 136.5 -130 c 0
 140.166666667 -110 151 -89 169 -67 c 0
 204.333333333 -23.6666666667 247.5 35.6666666667 298.5 111 c 0
 349.5 186.333333333 375 228 375 236 c 0
 375 248 340 301 270 395 c 0
 200 490.333333333 165 541 165 547 c 0
 165 553 169 560 177 568 c 0
EndSplineSet
Ligature2: "ak dlig" uni0906 uni0916
Ligature2: "ak dlig" uni0906 uni0915
Ligature2: "ak dlig" uni0905 uni0916
Ligature2: "ak dlig" uni0905 uni0915
Ligature2: "ak dlig" uni093E uni0915
Ligature2: "ak dlig" uni093E uni0916
LCarets2: 1 0
EndChar

StartChar: uni0919
Encoding: 26 2329 44
Width: 720
Flags: W
HStem: 589 61<59.8324 139.894 554.125 657.947> 710 57<61.3447 164.01 547.744 647.881> 718.5 42.5<601.181 662.935>
LayerCount: 2
Fore
SplineSet
61 755 m 0xc0
 68.3333333333 761.666666667 77 765.666666667 87 767 c 0xc0
 97 768.333333333 114.333333333 767.666666667 139 765 c 0
 178.333333333 760.333333333 204.5 754.666666667 217.5 748 c 0
 230.5 741.333333333 235.333333333 731 232 717 c 0
 228 701 220.666666667 652 210 570 c 0
 200 490 189.666666667 419.333333333 179 358 c 0
 168.333333333 284.666666667 161.666666667 232.666666667 159 202 c 0
 155 159.333333333 158.5 126.5 169.5 103.5 c 0
 180.5 80.5 211.333333333 40.3333333333 262 -17 c 0
 279.333333333 -35.6666666667 292.166666667 -49.3333333333 300.5 -58 c 0
 308.833333333 -66.6666666667 318.5 -74 329.5 -80 c 0
 340.5 -86 348.833333333 -88.6666666667 354.5 -88 c 0
 360.166666667 -87.3333333333 368.5 -83.1666666667 379.5 -75.5 c 0
 390.5 -67.8333333333 400.333333333 -58.6666666667 409 -48 c 0
 422 -32 422 -32 448 0 c 0
 494 56.6666666667 522 97.3333333333 532 122 c 0
 542 146.666666667 544.666666667 181 540 225 c 0
 535.333333333 275 523.333333333 368.666666667 504 506 c 0
 484.666666667 643.333333333 473.666666667 714.333333333 471 719 c 0
 464.333333333 730.333333333 474.666666667 740.666666667 502 750 c 0
 521.333333333 756.666666667 544.333333333 761 571 763 c 0
 609.666666667 765.666666667 635.5 765 648.5 761 c 0
 661.5 757 666.333333333 748 663 734 c 0
 661.666666667 726 657.166666667 720.833333333 649.5 718.5 c 0xa0
 641.833333333 716.166666667 625.333333333 715 600 715 c 0
 570 715 552.5 713.833333333 547.5 711.5 c 0
 542.5 709.166666667 540 700.333333333 540 685 c 0
 540 670.333333333 542.666666667 661.5 548 658.5 c 0
 553.333333333 655.5 570 652.666666667 598 650 c 0
 626.666666667 647.333333333 646.833333333 642.166666667 658.5 634.5 c 0
 670.166666667 626.833333333 673.333333333 616.666666667 668 604 c 0
 662 586 640 581 602 589 c 0
 574 595.666666667 558.333333333 593.5 555 582.5 c 0
 551.666666667 571.5 555 535.666666667 565 475 c 0
 593.666666667 309.666666667 603.333333333 197.666666667 594 139 c 0
 590 110.333333333 578.5 80.6666666667 559.5 50 c 0
 540.5 19.3333333333 505.666666667 -26.3333333333 455 -87 c 0
 422.333333333 -126.333333333 397.833333333 -149.5 381.5 -156.5 c 0
 365.166666667 -163.5 343.666666667 -160 317 -146 c 0
 302.333333333 -138 271.333333333 -108.666666667 224 -58 c 0
 176.666666667 -7.33333333333 142.333333333 33.3333333333 121 64 c 0
 104.333333333 88.6666666667 96 119.666666667 96 157 c 0
 96 194.333333333 104 264 120 366 c 0
 138 475.333333333 146 538.333333333 144 555 c 0
 142 569 134 578 120 582 c 0
 117.333333333 582.666666667 110 584 98 586 c 0
 79.3333333333 589.333333333 66.5 593.166666667 59.5 597.5 c 0
 52.5 601.833333333 48.3333333333 608.333333333 47 617 c 0
 45 630.333333333 50.3333333333 639.333333333 63 644 c 0
 75.6666666667 648.666666667 91 647.333333333 109 640 c 0
 128.333333333 632.666666667 141 629.666666667 147 631 c 0
 153 632.333333333 159 638.666666667 165 650 c 0
 175 667.333333333 174.833333333 681.666666667 164.5 693 c 0
 154.166666667 704.333333333 136.333333333 710 111 710 c 0
 73.6666666667 710 53.6666666667 717.666666667 51 733 c 0
 50.3333333333 739.666666667 53.6666666667 747 61 755 c 0xc0
EndSplineSet
EndChar

StartChar: uni091E
Encoding: 31 2334 45
Width: 741
Flags: W
HStem: -160 60<330.873 447.737>
VStem: 66 68<259.71 655> 351 56<-12.2397 758.493> 358 48<545.584 767.935> 361 37.5<-27.9301 186.635> 610 62<169.948 624.306> 624 48<448.683 670.862>
LayerCount: 2
Fore
SplineSet
358 759 m 0xd0
 368.666666667 776.333333333 379.666666667 776.666666667 391 760 c 0
 398.333333333 749.333333333 403.333333333 734.333333333 406 715 c 0xd0
 410 681 412.166666667 578.333333333 412.5 407 c 0
 412.833333333 235.666666667 411 120.333333333 407 61 c 0xe0
 403.666666667 17.6666666667 400.833333333 -8.33333333333 398.5 -17 c 0
 396.166666667 -25.6666666667 390 -29.3333333333 380 -28 c 256
 370 -26.6666666667 363.666666667 -15.1666666667 361 6.5 c 0xc8
 358.333333333 28.1666666667 355 96 351 210 c 0xe0
 346.333333333 337.333333333 344.833333333 458.166666667 346.5 572.5 c 0
 348.166666667 686.833333333 352 749 358 759 c 0xd0
624 661 m 0xc2
 630 671.666666667 635.333333333 677.666666667 640 679 c 0
 644.666666667 680.333333333 652 677.666666667 662 671 c 0
 667.333333333 668.333333333 670.666666667 648.166666667 672 610.5 c 0
 673.333333333 572.833333333 673.333333333 500.666666667 672 394 c 2
 669 125 l 1
 639 55 l 2
 615 -1 578.166666667 -50.6666666667 528.5 -94 c 0
 478.833333333 -137.333333333 433.666666667 -159.333333333 393 -160 c 0
 374.333333333 -160 348 -154.666666667 314 -144 c 0
 278.666666667 -133.333333333 240.666666667 -108.333333333 200 -69 c 0
 159.333333333 -29.6666666667 129 11.6666666667 109 55 c 0
 91.6666666667 91.6666666667 79.6666666667 143.833333333 73 211.5 c 0
 66.3333333333 279.166666667 64 373.333333333 66 494 c 2
 69 655 l 1
 99 655 l 1
 129 655 l 1
 134 400 l 2
 134.666666667 338 135.833333333 291 137.5 259 c 0
 139.166666667 227 141.166666667 197.333333333 143.5 170 c 0
 145.833333333 142.666666667 150 121.5 156 106.5 c 0
 162 91.5 168.5 78.1666666667 175.5 66.5 c 0
 182.5 54.8333333333 193.333333333 40.3333333333 208 23 c 0
 232.666666667 -6.33333333333 264.166666667 -34.1666666667 302.5 -60.5 c 0
 340.833333333 -86.8333333333 369 -100 387 -100 c 0
 417.666666667 -100 451.833333333 -81.3333333333 489.5 -44 c 0
 527.166666667 -6.66666666667 557 38 579 90 c 0
 592.333333333 122 600.5 151.666666667 603.5 179 c 0
 606.5 206.333333333 608.666666667 279.333333333 610 398 c 0xc4
 613.333333333 560.666666667 618 648.333333333 624 661 c 0xc2
EndSplineSet
EndChar

StartChar: uni0923
Encoding: 36 2339 46
Width: 464
Flags: HW
LayerCount: 2
Fore
SplineSet
195.5 748 m 0
 184.833007812 771.333007812 168.5 775.666992188 146.5 761 c 0
 140.5 757.666992188 139.333007812 745.5 143 724.5 c 128
 146.666992188 703.5 157.166992188 661.666992188 174.5 599 c 0
 203.166992188 487.666992188 218.833007812 421.333007812 221.5 400 c 0
 224.166992188 378 223 362 218 352 c 128
 213 342 195.5 319.666992188 165.5 285 c 0
 115.5 229 83 187.333007812 68 160 c 128
 53 132.666992188 45.5 101.333007812 45.5 66 c 0
 45.5 25.3330078125 48.1669921875 -2.8330078125 53.5 -18.5 c 128
 58.8330078125 -34.1669921875 69.5 -46.3330078125 85.5 -55 c 0
 96.8330078125 -61 106.333007812 -63.6669921875 114 -63 c 128
 121.666992188 -62.3330078125 134.5 -57.6669921875 152.5 -49 c 0
 163.166992188 -43.6669921875 177.5 -34.1669921875 195.5 -20.5 c 128
 213.5 -6.8330078125 229.333007812 7 243 21 c 128
 256.666992188 35 269.666992188 46.3330078125 282 55 c 128
 294.333007812 63.6669921875 301.833007812 67.3330078125 304.5 66 c 0
 309.833007812 62.6669921875 318.833007812 28.6669921875 331.5 -36 c 0
 340.833007812 -87.3330078125 350.833007812 -123.333007812 361.5 -144 c 128
 372.166992188 -164.666992188 384.5 -172.333007812 398.5 -167 c 0
 410.5 -162.333007812 415.333007812 -149.833007812 413 -129.5 c 128
 410.666992188 -109.166992188 398.5 -58.6669921875 376.5 22 c 0
 355.166992188 99.3330078125 320.166992188 240.333007812 271.5 445 c 0
 226.166992188 632.333007812 200.833007812 733.333007812 195.5 748 c 0
167.5 208 m 0
 171.5 231.333007812 185.166992188 234 208.5 216 c 0
 217.833007812 209.333007812 227.833007812 199.333007812 238.5 186 c 0
 276.5 140 284.833007812 115 263.5 111 c 0
 262.166992188 110.333007812 260.5 110 258.5 110 c 0
 247.166992188 110 228.666992188 123.833007812 203 151.5 c 128
 177.333007812 179.166992188 165.5 198 167.5 208 c 0
117.5 138 m 0
 121.5 161.333007812 137.5 160.333007812 165.5 135 c 0
 171.5 129 171.5 129 179.5 121 c 0
 206.166992188 93 216.833007812 72 211.5 58 c 0
 208.833007812 52.6669921875 203.833007812 50 196.5 50 c 0
 187.166992188 50 171.166992188 62.5 148.5 87.5 c 128
 125.833007812 112.5 115.5 129.333007812 117.5 138 c 0
EndSplineSet
EndChar

StartChar: uni090B
Encoding: 12 2315 47
Width: 508
Flags: W
VStem: 225 53<-177.687 509 619.562 777.935>
LayerCount: 2
Fore
SplineSet
48 765 m 0
 58.6666666667 778.333333333 69 781.666666667 79 775 c 0
 93 766.333333333 128.333333333 722.666666667 185 644 c 0
 187 640.666666667 189.666666667 637 193 633 c 0
 208.333333333 610.333333333 218 606.666666667 222 622 c 0
 224.666666667 633.333333333 225.666666667 657 225 693 c 0
 223.666666667 730.333333333 224 753.5 226 762.5 c 0
 228 771.5 233.666666667 776.666666667 243 778 c 0
 261 780 272 775.5 276 764.5 c 0
 280 753.5 280.666666667 727.666666667 278 687 c 0
 274 634.333333333 274.666666667 606.666666667 280 604 c 0
 282 602.666666667 288.333333333 607.666666667 299 619 c 0
 309.666666667 630.333333333 323 646.166666667 339 666.5 c 0
 355 686.833333333 371 709 387 733 c 0
 403.666666667 757.666666667 417.666666667 772 429 776 c 0
 440.333333333 780 451 774 461 758 c 0
 467 749.333333333 459.833333333 730.166666667 439.5 700.5 c 0
 419.166666667 670.833333333 383 627 331 569 c 2
 278 509 l 1
 278 165 l 1
 278 -180 l 1
 253 -180 l 2
 242.333333333 -180 236.666666667 -179.333333333 236 -178 c 0
 229.333333333 -172 225.666666667 -123 225 -31 c 0
 225 -7 224.666666667 77 224 221 c 2
 223 516 l 1
 172 576 l 2
 138.666666667 614 107.666666667 653 79 693 c 0
 61 716.333333333 50 732.666666667 46 742 c 0
 42 751.333333333 42.6666666667 759 48 765 c 0
EndSplineSet
Validated: 33
EndChar

StartChar: baba
Encoding: 104 -1 48
Width: 2002
Flags: W
HStem: -143 59<709.217 841.182 1679.22 1811.18> -30 90<489.215 560.491 1459.22 1530.49> 660 102<483.004 526.396 1453 1496.4>
VStem: 920 54<-9.70947 167.566> 1890 54<-9.70947 167.566>
LayerCount: 2
Fore
SplineSet
1453 743 m 0
 1467 759.666666667 1478.83333333 766 1488.5 762 c 0
 1498.16666667 758 1512.33333333 741.666666667 1531 713 c 0
 1551 682.333333333 1589.33333333 636.666666667 1646 576 c 0
 1780.66666667 434 1871.66666667 313 1919 213 c 0
 1932.33333333 183.666666667 1940.33333333 161 1943 145 c 0
 1945.66666667 129 1946 101.333333333 1944 62 c 0
 1942.66666667 22 1940.16666667 -4.83333333333 1936.5 -18.5 c 0
 1932.83333333 -32.1666666667 1924.66666667 -47.3333333333 1912 -64 c 0
 1894.66666667 -87.3333333333 1870.33333333 -106.5 1839 -121.5 c 0
 1807.66666667 -136.5 1776.66666667 -143.666666667 1746 -143 c 0
 1722.66666667 -143 1691.83333333 -134.666666667 1653.5 -118 c 0
 1615.16666667 -101.333333333 1579.66666667 -80.6666666667 1547 -56 c 0
 1523.66666667 -38.6666666667 1506 -30 1494 -30 c 0
 1489.33333333 -30 1480.33333333 -34.5 1467 -43.5 c 0
 1453.66666667 -52.5 1440 -63 1426 -75 c 0
 1392.66666667 -104.333333333 1364.5 -124.666666667 1341.5 -136 c 0
 1318.5 -147.333333333 1290.33333333 -154.333333333 1257 -157 c 0
 1231 -159 1212.16666667 -158.166666667 1200.5 -154.5 c 0
 1188.83333333 -150.833333333 1168.66666667 -139.666666667 1140 -121 c 0
 1114.66666667 -104.333333333 1096.5 -89.8333333333 1085.5 -77.5 c 0
 1074.5 -65.1666666667 1063.33333333 -46.3333333333 1052 -21 c 0
 1036.66666667 13.6666666667 1028.33333333 47.3333333333 1027 80 c 0
 1025.66666667 112.666666667 1031.33333333 153 1044 201 c 0
 1055.33333333 245 1074 287.5 1100 328.5 c 0
 1126 369.5 1164.66666667 418 1216 474 c 0
 1291.33333333 555.333333333 1370.33333333 645 1453 743 c 0
1597 534 m 0
 1520.33333333 618 1477.66666667 660 1469 660 c 0
 1465.66666667 660 1461.33333333 657.166666667 1456 651.5 c 0
 1450.66666667 645.833333333 1446 639.333333333 1442 632 c 0
 1433.33333333 614.666666667 1413 588.666666667 1381 554 c 0
 1305.66666667 474.666666667 1250.16666667 413.166666667 1214.5 369.5 c 0
 1178.83333333 325.833333333 1153 287.333333333 1137 254 c 0
 1121 220.666666667 1110.33333333 183.333333333 1105 142 c 0
 1098.33333333 89.3333333333 1098.66666667 49.3333333333 1106 22 c 0
 1113.33333333 -5.33333333333 1130.66666667 -31 1158 -55 c 0
 1186.66666667 -79 1208.33333333 -92.6666666667 1223 -96 c 0
 1247 -102.666666667 1280.33333333 -94.3333333333 1323 -71 c 0
 1365.66666667 -47.6666666667 1406.33333333 -16 1445 24 c 0
 1467.66666667 48 1484 60 1494 60 c 256
 1504 60 1524.33333333 45.6666666667 1555 17 c 0
 1585 -9 1619.83333333 -32.3333333333 1659.5 -53 c 0
 1699.16666667 -73.6666666667 1730 -84 1752 -84 c 0
 1770 -84 1791.33333333 -75.6666666667 1816 -59 c 0
 1840.66666667 -42.3333333333 1859.66666667 -23.6666666667 1873 -3 c 0
 1884.33333333 13.6666666667 1890 39.6666666667 1890 75 c 0
 1890 123.666666667 1867.5 183.333333333 1822.5 254 c 0
 1777.5 324.666666667 1702.33333333 418 1597 534 c 0
483 743 m 0
 497 759.666666667 508.833333333 766 518.5 762 c 0
 528.166666667 758 542.333333333 741.666666667 561 713 c 0
 581 682.333333333 619.333333333 636.666666667 676 576 c 0
 810.666666667 434 901.666666667 313 949 213 c 0
 962.333333333 183.666666667 970.333333333 161 973 145 c 0
 975.666666667 129 976 101.333333333 974 62 c 0
 972.666666667 22 970.166666667 -4.83333333333 966.5 -18.5 c 0
 962.833333333 -32.1666666667 954.666666667 -47.3333333333 942 -64 c 0
 924.666666667 -87.3333333333 900.333333333 -106.5 869 -121.5 c 0
 837.666666667 -136.5 806.666666667 -143.666666667 776 -143 c 0
 752.666666667 -143 721.833333333 -134.666666667 683.5 -118 c 0
 645.166666667 -101.333333333 609.666666667 -80.6666666667 577 -56 c 0
 553.666666667 -38.6666666667 536 -30 524 -30 c 0
 519.333333333 -30 510.333333333 -34.5 497 -43.5 c 0
 483.666666667 -52.5 470 -63 456 -75 c 0
 422.666666667 -104.333333333 394.5 -124.666666667 371.5 -136 c 0
 348.5 -147.333333333 320.333333333 -154.333333333 287 -157 c 0
 261 -159 242.166666667 -158.166666667 230.5 -154.5 c 0
 218.833333333 -150.833333333 198.666666667 -139.666666667 170 -121 c 0
 144.666666667 -104.333333333 126.5 -89.8333333333 115.5 -77.5 c 0
 104.5 -65.1666666667 93.3333333333 -46.3333333333 82 -21 c 0
 66.6666666667 13.6666666667 58.3333333333 47.3333333333 57 80 c 0
 55.6666666667 112.666666667 61.3333333333 153 74 201 c 0
 85.3333333333 245 104 287.5 130 328.5 c 0
 156 369.5 194.666666667 418 246 474 c 0
 321.333333333 555.333333333 400.333333333 645 483 743 c 0
627 534 m 0
 550.333333333 618 507.666666667 660 499 660 c 0
 495.666666667 660 491.333333333 657.166666667 486 651.5 c 0
 480.666666667 645.833333333 476 639.333333333 472 632 c 0
 463.333333333 614.666666667 443 588.666666667 411 554 c 0
 335.666666667 474.666666667 280.166666667 413.166666667 244.5 369.5 c 0
 208.833333333 325.833333333 183 287.333333333 167 254 c 0
 151 220.666666667 140.333333333 183.333333333 135 142 c 0
 128.333333333 89.3333333333 128.666666667 49.3333333333 136 22 c 0
 143.333333333 -5.33333333333 160.666666667 -31 188 -55 c 0
 216.666666667 -79 238.333333333 -92.6666666667 253 -96 c 0
 277 -102.666666667 310.333333333 -94.3333333333 353 -71 c 0
 395.666666667 -47.6666666667 436.333333333 -16 475 24 c 0
 497.666666667 48 514 60 524 60 c 256
 534 60 554.333333333 45.6666666667 585 17 c 0
 615 -9 649.833333333 -32.3333333333 689.5 -53 c 0
 729.166666667 -73.6666666667 760 -84 782 -84 c 0
 800 -84 821.333333333 -75.6666666667 846 -59 c 0
 870.666666667 -42.3333333333 889.666666667 -23.6666666667 903 -3 c 0
 914.333333333 13.6666666667 920 39.6666666667 920 75 c 0
 920 123.666666667 897.5 183.333333333 852.5 254 c 0
 807.5 324.666666667 732.333333333 418 627 534 c 0
EndSplineSet
LCarets2: 1 0
Ligature2: "baba dlig" uni092D uni092C
Ligature2: "baba dlig" uni092C uni092D
Ligature2: "baba dlig" uni092D uni092D
Ligature2: "baba dlig" uni092C uni092C
EndChar

StartChar: as_ah
Encoding: 105 -1 49
Width: 833
Flags: W
HStem: 0 21G<716.833 721.167>
VStem: 422.5 90<280.51 351.938> 727 48<65.4587 279 294 322.065>
LayerCount: 2
Fore
SplineSet
776.5 761 m 0
 772.5 767.666992188 765.833007812 770.333007812 756.5 769 c 0
 747.166992188 767.666992188 738.166992188 762.333007812 729.5 753 c 0
 720.166992188 742.333007812 662.166992188 659 555.5 503 c 0
 534.833007812 471.666992188 515.666992188 445 498 423 c 0
 480.333007812 401 469.833007812 390 466.5 390 c 0
 462.5 390 457.666992188 393.166992188 452 399.5 c 0
 446.333007812 405.833007812 441.166992188 413.666992188 436.5 423 c 0
 427.833007812 439.666992188 392.166992188 497 329.5 595 c 0
 266.833007812 693 231.166992188 747.333007812 222.5 758 c 0
 214.5 766 208.166992188 770 203.5 770 c 0
 200.833007812 770 192.333007812 762 178 746 c 0
 163.666992188 730 147.833007812 711 130.5 689 c 0
 97.8330078125 646.333007812 79 616.166992188 74 598.5 c 0
 69 580.833007812 74.8330078125 563.333007812 91.5 546 c 0
 103.5 534.666992188 113.666992188 531.5 122 536.5 c 0
 130.333007812 541.5 142.5 559.333007812 158.5 590 c 0
 165.833007812 604 173.5 615.833007812 181.5 625.5 c 0
 189.5 635.166992188 195.166992188 640 198.5 640 c 0
 204.5 640 243.333007812 587.666992188 315 483 c 0
 386.666992188 378.333007812 422.5 321.666992188 422.5 313 c 0
 422.5 309 408.166992188 288.333007812 379.5 251 c 0
 350.166992188 213 314.833007812 163.666992188 273.5 103 c 0
 232.166992188 41 208.833007812 10 203.5 10 c 0
 198.833007812 10 181.833007812 28.6669921875 152.5 66 c 0
 105.833007812 128 79.8330078125 133 74.5 81 c 0
 72.5 59 77.8330078125 40.6669921875 90.5 26 c 0
 101.166992188 15.3330078125 119.833007812 -10.6669921875 146.5 -52 c 0
 155.833007812 -67.3330078125 165 -80.8330078125 174 -92.5 c 0
 183 -104.166992188 188.833007812 -110 191.5 -110 c 0
 198.166992188 -110 215.666992188 -92 244 -56 c 0
 272.333007812 -20 303.5 23.6669921875 337.5 75 c 0
 382.833007812 142.333007812 414.5 188.166992188 432.5 212.5 c 0
 450.5 236.833007812 462.166992188 249.333007812 467.5 250 c 0
 474.166992188 250 490.833007812 227 517.5 181 c 0
 553.5 118.333007812 600.833007812 45 659.5 -39 c 0
 718.166992188 -123 751.166992188 -165 758.5 -165 c 0
 761.833007812 -165 764.333007812 -159.833007812 766 -149.5 c 0
 767.666992188 -139.166992188 769.333007812 -116.333007812 771 -81 c 0
 772.666992188 -45.6669921875 774 0.1669921875 775 56.5 c 0
 776 112.833007812 776.833007812 192 777.5 294 c 0
 781.5 598 781.166992188 753.666992188 776.5 761 c 0
627.5 495 m 0
 670.833007812 559.666992188 697.833007812 598 708.5 610 c 0
 714.5 616 718.5 618.833007812 720.5 618.5 c 0
 722.5 618.166992188 723.833007812 613.666992188 724.5 605 c 0
 727.833007812 573.666992188 728.666992188 465 727 279 c 0
 725.333007812 93 722.833007812 0 719.5 0 c 0
 714.166992188 0 695.833007812 25.3330078125 664.5 76 c 0
 627.833007812 134 594.5 185.666992188 564.5 231 c 0
 529.833007812 285.666992188 512.5 316 512.5 322 c 0
 512.5 328 520.166992188 342 535.5 364 c 0
 546.166992188 377.333007812 576.833007812 421 627.5 495 c 0
EndSplineSet
Ligature2: "as_ah dlig" uni0906 uni0939
Ligature2: "as_ah dlig" uni0905 uni0939
Ligature2: "as_ah dlig" uni0906 uni0937
Ligature2: "as_ah dlig" uni0905 uni0937
Ligature2: "as_ah dlig" uni0906 uni0936
Ligature2: "as_ah dlig" uni0905 uni0936
Ligature2: "as_ah dlig" uni093E uni0939
Ligature2: "as_ah dlig" uni093E uni0938
Ligature2: "as_ah dlig" uni093E uni0937
Ligature2: "as_ah dlig" uni093E uni0936
Ligature2: "as_ah dlig" uni0905 uni0938
Ligature2: "as_ah dlig" uni0906 uni0938
LCarets2: 1 0
EndChar

StartChar: uni0910
Encoding: 17 2320 50
Width: 789
Flags: HW
LayerCount: 2
Fore
SplineSet
386 685 m 0
 381.333333333 688.333333333 368.666666667 655 348 585 c 0
 344.666666667 573 343.666666667 566.333333333 345 565 c 0
 348.333333333 561.666666667 360.333333333 559.666666667 381 559 c 0
 405.666666667 559 420.166666667 560.166666667 424.5 562.5 c 128
 428.833333333 564.833333333 428.666666667 571.333333333 424 582 c 0
 405.333333333 646 392.666666667 680.333333333 386 685 c 0
375 758 m 0
 381.666666667 766 389.666666667 766.333333333 399 759 c 128
 408.333333333 751.666666667 413 745 413 739 c 128
 413 733 450.833333333 630.833333333 526.5 432.5 c 128
 602.166666667 234.166666667 656.333333333 94.3333333333 689 13 c 0
 725 -73.6666666667 743 -124 743 -138 c 0
 743 -151.333333333 723.166666667 -160 683.5 -164 c 128
 643.833333333 -168 560 -170 432 -170 c 0
 172.666666667 -170 43 -161.666666667 43 -145 c 0
 43 -137 68.3333333333 -65 119 71 c 0
 127 92.3333333333 151.333333333 158.333333333 192 269 c 128
 232.666666667 379.666666667 262 460 280 510 c 0
 336 666.666666667 367.666666667 749.333333333 375 758 c 0
451 493 m 0
 449.666666667 502.333333333 445.666666667 508.5 439 511.5 c 128
 432.333333333 514.5 417 516.666666667 393 518 c 0
 339.666666667 520.666666667 313 509 313 483 c 0
 313 474.333333333 336.666666667 470 384 470 c 0
 417.333333333 470 437.166666667 471.166666667 443.5 473.5 c 128
 449.833333333 475.833333333 452.333333333 482.333333333 451 493 c 0
480 412 m 0
 470.666666667 417.333333333 439.333333333 420 386 420 c 0
 349.333333333 420 325.666666667 418.833333333 315 416.5 c 128
 304.333333333 414.166666667 295.666666667 408 289 398 c 0
 278.333333333 383.333333333 275.666666667 373.333333333 281 368 c 128
 286.333333333 362.666666667 324 360.666666667 394 362 c 0
 443.333333333 363.333333333 472.833333333 365.166666667 482.5 367.5 c 128
 492.166666667 369.833333333 496.333333333 375.666666667 495 385 c 0
 492.333333333 397.666666667 487.333333333 406.666666667 480 412 c 0
514 310 m 0
 496 319.333333333 432.333333333 319.666666667 323 311 c 0
 289 308.333333333 267.833333333 305.5 259.5 302.5 c 128
 251.166666667 299.5 246.333333333 293 245 283 c 0
 243.666666667 271.666666667 248.833333333 265 260.5 263 c 128
 272.166666667 261 314.333333333 260 387 260 c 0
 456.333333333 260 498 261 512 263 c 128
 526 265 533 270.666666667 533 280 c 0
 533 292.666666667 526.666666667 302.666666667 514 310 c 0
572 188 m 0
 568 198.666666667 558.333333333 205 543 207 c 128
 527.666666667 209 478.333333333 210 395 210 c 0
 347.666666667 210 312.833333333 209.666666667 290.5 209 c 128
 268.166666667 208.333333333 249.5 206.333333333 234.5 203 c 128
 219.5 199.666666667 210.5 195.5 207.5 190.5 c 128
 204.5 185.5 203 178 203 168 c 0
 203 159.333333333 212.166666667 154.166666667 230.5 152.5 c 128
 248.833333333 150.833333333 301 150 387 150 c 0
 511 150 574 152.666666667 576 158 c 0
 579.333333333 162.666666667 578 172.666666667 572 188 c 0
613 79 m 0
 607.666666667 89 594.833333333 95 574.5 97 c 128
 554.166666667 99 493.666666667 100 393 100 c 128
 292.333333333 100 231.833333333 99 211.5 97 c 128
 191.166666667 95 178.333333333 89 173 79 c 0
 164.333333333 65 162.666666667 56 168 52 c 0
 171.333333333 48.6666666667 246.666666667 47.3333333333 394 48 c 128
 541.333333333 48.6666666667 617 50.6666666667 621 54 c 0
 624.333333333 57.3333333333 621.666666667 65.6666666667 613 79 c 0
651 -27 m 1
 648 -5 l 1
 397 -2 l 2
 231 -0.666666666667 145.333333333 -2 140 -6 c 0
 135.333333333 -10.6666666667 133 -19.3333333333 133 -32 c 0
 133 -40.6666666667 145.666666667 -45.8333333333 171 -47.5 c 128
 196.333333333 -49.1666666667 270.666666667 -50 394 -50 c 2
 654 -50 l 1
 651 -27 l 1
682 -105 m 0
 678.666666667 -101.666666667 593.333333333 -98.8333333333 426 -96.5 c 128
 258.666666667 -94.1666666667 163.333333333 -94.3333333333 140 -97 c 0
 132 -97.6666666667 125.333333333 -98.8333333333 120 -100.5 c 128
 114.666666667 -102.166666667 110.666666667 -104 108 -106 c 128
 105.333333333 -108 104.666666667 -110.333333333 106 -113 c 0
 108.666666667 -121 202.666666667 -126 388 -128 c 128
 573.333333333 -130 669.666666667 -127.333333333 677 -120 c 0
 683 -114 684.666666667 -109 682 -105 c 0
EndSplineSet
EndChar

StartChar: uni0947
Encoding: 69 2375 51
Width: 789
Flags: HW
LayerCount: 2
Fore
SplineSet
386 685 m 0
 381.333333333 688.333333333 368.666666667 655 348 585 c 0
 344.666666667 573 343.666666667 566.333333333 345 565 c 0
 348.333333333 561.666666667 360.333333333 559.666666667 381 559 c 0
 405.666666667 559 420.166666667 560.166666667 424.5 562.5 c 128
 428.833333333 564.833333333 428.666666667 571.333333333 424 582 c 0
 405.333333333 646 392.666666667 680.333333333 386 685 c 0
375 758 m 0
 381.666666667 766 389.666666667 766.333333333 399 759 c 128
 408.333333333 751.666666667 413 745 413 739 c 128
 413 733 450.833333333 630.833333333 526.5 432.5 c 128
 602.166666667 234.166666667 656.333333333 94.3333333333 689 13 c 0
 725 -73.6666666667 743 -124 743 -138 c 0
 743 -151.333333333 723.166666667 -160 683.5 -164 c 128
 643.833333333 -168 560 -170 432 -170 c 0
 172.666666667 -170 43 -161.666666667 43 -145 c 0
 43 -137 68.3333333333 -65 119 71 c 0
 127 92.3333333333 151.333333333 158.333333333 192 269 c 128
 232.666666667 379.666666667 262 460 280 510 c 0
 336 666.666666667 367.666666667 749.333333333 375 758 c 0
451 493 m 0
 449.666666667 502.333333333 445.666666667 508.5 439 511.5 c 128
 432.333333333 514.5 417 516.666666667 393 518 c 0
 339.666666667 520.666666667 313 509 313 483 c 0
 313 474.333333333 336.666666667 470 384 470 c 0
 417.333333333 470 437.166666667 471.166666667 443.5 473.5 c 128
 449.833333333 475.833333333 452.333333333 482.333333333 451 493 c 0
480 412 m 0
 470.666666667 417.333333333 439.333333333 420 386 420 c 0
 349.333333333 420 325.666666667 418.833333333 315 416.5 c 128
 304.333333333 414.166666667 295.666666667 408 289 398 c 0
 278.333333333 383.333333333 275.666666667 373.333333333 281 368 c 128
 286.333333333 362.666666667 324 360.666666667 394 362 c 0
 443.333333333 363.333333333 472.833333333 365.166666667 482.5 367.5 c 128
 492.166666667 369.833333333 496.333333333 375.666666667 495 385 c 0
 492.333333333 397.666666667 487.333333333 406.666666667 480 412 c 0
514 310 m 0
 496 319.333333333 432.333333333 319.666666667 323 311 c 0
 289 308.333333333 267.833333333 305.5 259.5 302.5 c 128
 251.166666667 299.5 246.333333333 293 245 283 c 0
 243.666666667 271.666666667 248.833333333 265 260.5 263 c 128
 272.166666667 261 314.333333333 260 387 260 c 0
 456.333333333 260 498 261 512 263 c 128
 526 265 533 270.666666667 533 280 c 0
 533 292.666666667 526.666666667 302.666666667 514 310 c 0
572 188 m 0
 568 198.666666667 558.333333333 205 543 207 c 128
 527.666666667 209 478.333333333 210 395 210 c 0
 347.666666667 210 312.833333333 209.666666667 290.5 209 c 128
 268.166666667 208.333333333 249.5 206.333333333 234.5 203 c 128
 219.5 199.666666667 210.5 195.5 207.5 190.5 c 128
 204.5 185.5 203 178 203 168 c 0
 203 159.333333333 212.166666667 154.166666667 230.5 152.5 c 128
 248.833333333 150.833333333 301 150 387 150 c 0
 511 150 574 152.666666667 576 158 c 0
 579.333333333 162.666666667 578 172.666666667 572 188 c 0
613 79 m 0
 607.666666667 89 594.833333333 95 574.5 97 c 128
 554.166666667 99 493.666666667 100 393 100 c 128
 292.333333333 100 231.833333333 99 211.5 97 c 128
 191.166666667 95 178.333333333 89 173 79 c 0
 164.333333333 65 162.666666667 56 168 52 c 0
 171.333333333 48.6666666667 246.666666667 47.3333333333 394 48 c 128
 541.333333333 48.6666666667 617 50.6666666667 621 54 c 0
 624.333333333 57.3333333333 621.666666667 65.6666666667 613 79 c 0
651 -27 m 1
 648 -5 l 1
 397 -2 l 2
 231 -0.666666666667 145.333333333 -2 140 -6 c 0
 135.333333333 -10.6666666667 133 -19.3333333333 133 -32 c 0
 133 -40.6666666667 145.666666667 -45.8333333333 171 -47.5 c 128
 196.333333333 -49.1666666667 270.666666667 -50 394 -50 c 2
 654 -50 l 1
 651 -27 l 1
682 -105 m 0
 678.666666667 -101.666666667 593.333333333 -98.8333333333 426 -96.5 c 128
 258.666666667 -94.1666666667 163.333333333 -94.3333333333 140 -97 c 0
 132 -97.6666666667 125.333333333 -98.8333333333 120 -100.5 c 128
 114.666666667 -102.166666667 110.666666667 -104 108 -106 c 128
 105.333333333 -108 104.666666667 -110.333333333 106 -113 c 0
 108.666666667 -121 202.666666667 -126 388 -128 c 128
 573.333333333 -130 669.666666667 -127.333333333 677 -120 c 0
 683 -114 684.666666667 -109 682 -105 c 0
EndSplineSet
EndChar

StartChar: uni0948
Encoding: 70 2376 52
Width: 789
Flags: HW
LayerCount: 2
Fore
SplineSet
386 685 m 0
 381.333333333 688.333333333 368.666666667 655 348 585 c 0
 344.666666667 573 343.666666667 566.333333333 345 565 c 0
 348.333333333 561.666666667 360.333333333 559.666666667 381 559 c 0
 405.666666667 559 420.166666667 560.166666667 424.5 562.5 c 128
 428.833333333 564.833333333 428.666666667 571.333333333 424 582 c 0
 405.333333333 646 392.666666667 680.333333333 386 685 c 0
375 758 m 0
 381.666666667 766 389.666666667 766.333333333 399 759 c 128
 408.333333333 751.666666667 413 745 413 739 c 128
 413 733 450.833333333 630.833333333 526.5 432.5 c 128
 602.166666667 234.166666667 656.333333333 94.3333333333 689 13 c 0
 725 -73.6666666667 743 -124 743 -138 c 0
 743 -151.333333333 723.166666667 -160 683.5 -164 c 128
 643.833333333 -168 560 -170 432 -170 c 0
 172.666666667 -170 43 -161.666666667 43 -145 c 0
 43 -137 68.3333333333 -65 119 71 c 0
 127 92.3333333333 151.333333333 158.333333333 192 269 c 128
 232.666666667 379.666666667 262 460 280 510 c 0
 336 666.666666667 367.666666667 749.333333333 375 758 c 0
451 493 m 0
 449.666666667 502.333333333 445.666666667 508.5 439 511.5 c 128
 432.333333333 514.5 417 516.666666667 393 518 c 0
 339.666666667 520.666666667 313 509 313 483 c 0
 313 474.333333333 336.666666667 470 384 470 c 0
 417.333333333 470 437.166666667 471.166666667 443.5 473.5 c 128
 449.833333333 475.833333333 452.333333333 482.333333333 451 493 c 0
480 412 m 0
 470.666666667 417.333333333 439.333333333 420 386 420 c 0
 349.333333333 420 325.666666667 418.833333333 315 416.5 c 128
 304.333333333 414.166666667 295.666666667 408 289 398 c 0
 278.333333333 383.333333333 275.666666667 373.333333333 281 368 c 128
 286.333333333 362.666666667 324 360.666666667 394 362 c 0
 443.333333333 363.333333333 472.833333333 365.166666667 482.5 367.5 c 128
 492.166666667 369.833333333 496.333333333 375.666666667 495 385 c 0
 492.333333333 397.666666667 487.333333333 406.666666667 480 412 c 0
514 310 m 0
 496 319.333333333 432.333333333 319.666666667 323 311 c 0
 289 308.333333333 267.833333333 305.5 259.5 302.5 c 128
 251.166666667 299.5 246.333333333 293 245 283 c 0
 243.666666667 271.666666667 248.833333333 265 260.5 263 c 128
 272.166666667 261 314.333333333 260 387 260 c 0
 456.333333333 260 498 261 512 263 c 128
 526 265 533 270.666666667 533 280 c 0
 533 292.666666667 526.666666667 302.666666667 514 310 c 0
572 188 m 0
 568 198.666666667 558.333333333 205 543 207 c 128
 527.666666667 209 478.333333333 210 395 210 c 0
 347.666666667 210 312.833333333 209.666666667 290.5 209 c 128
 268.166666667 208.333333333 249.5 206.333333333 234.5 203 c 128
 219.5 199.666666667 210.5 195.5 207.5 190.5 c 128
 204.5 185.5 203 178 203 168 c 0
 203 159.333333333 212.166666667 154.166666667 230.5 152.5 c 128
 248.833333333 150.833333333 301 150 387 150 c 0
 511 150 574 152.666666667 576 158 c 0
 579.333333333 162.666666667 578 172.666666667 572 188 c 0
613 79 m 0
 607.666666667 89 594.833333333 95 574.5 97 c 128
 554.166666667 99 493.666666667 100 393 100 c 128
 292.333333333 100 231.833333333 99 211.5 97 c 128
 191.166666667 95 178.333333333 89 173 79 c 0
 164.333333333 65 162.666666667 56 168 52 c 0
 171.333333333 48.6666666667 246.666666667 47.3333333333 394 48 c 128
 541.333333333 48.6666666667 617 50.6666666667 621 54 c 0
 624.333333333 57.3333333333 621.666666667 65.6666666667 613 79 c 0
651 -27 m 1
 648 -5 l 1
 397 -2 l 2
 231 -0.666666666667 145.333333333 -2 140 -6 c 0
 135.333333333 -10.6666666667 133 -19.3333333333 133 -32 c 0
 133 -40.6666666667 145.666666667 -45.8333333333 171 -47.5 c 128
 196.333333333 -49.1666666667 270.666666667 -50 394 -50 c 2
 654 -50 l 1
 651 -27 l 1
682 -105 m 0
 678.666666667 -101.666666667 593.333333333 -98.8333333333 426 -96.5 c 128
 258.666666667 -94.1666666667 163.333333333 -94.3333333333 140 -97 c 0
 132 -97.6666666667 125.333333333 -98.8333333333 120 -100.5 c 128
 114.666666667 -102.166666667 110.666666667 -104 108 -106 c 128
 105.333333333 -108 104.666666667 -110.333333333 106 -113 c 0
 108.666666667 -121 202.666666667 -126 388 -128 c 128
 573.333333333 -130 669.666666667 -127.333333333 677 -120 c 0
 683 -114 684.666666667 -109 682 -105 c 0
EndSplineSet
EndChar

StartChar: uni090A
Encoding: 11 2314 53
Width: 832
Flags: HW
LayerCount: 2
Fore
SplineSet
335 695 m 0
 365 738.333333333 385.666666667 760 397 760 c 0
 406.333333333 760 418.333333333 752.333333333 433 737 c 128
 447.666666667 721.666666667 468 695 494 657 c 0
 502.666666667 644.333333333 511.166666667 633.333333333 519.5 624 c 128
 527.833333333 614.666666667 533 610 535 610 c 0
 541 610 559.666666667 633.666666667 591 681 c 0
 609.666666667 709 623.666666667 727.5 633 736.5 c 128
 642.333333333 745.5 651.333333333 749.333333333 660 748 c 0
 684.666666667 744.666666667 688.666666667 728.666666667 672 700 c 0
 664 686 650.666666667 668 632 646 c 0
 604 612 587.166666667 587.166666667 581.5 571.5 c 128
 575.833333333 555.833333333 578.333333333 542.666666667 589 532 c 256
 599.666666667 521.333333333 610 519.666666667 620 527 c 128
 630 534.333333333 648.333333333 557 675 595 c 0
 711 645 735.333333333 670 748 670 c 0
 773.333333333 670 778.333333333 655.666666667 763 627 c 0
 755 611 740 589 718 561 c 0
 677.333333333 507 657 475.666666667 657 467 c 256
 657 458.333333333 677 429 717 379 c 0
 757 330.333333333 777 303 777 297 c 0
 777 281 754.666666667 246 710 192 c 0
 681.333333333 154.666666667 667 131.333333333 667 122 c 0
 667 110.666666667 684 85 718 45 c 0
 766 -12.3333333333 784 -50.3333333333 772 -69 c 0
 763.333333333 -83.6666666667 749 -80.3333333333 729 -59 c 0
 718.333333333 -47.6666666667 704 -29.6666666667 686 -5 c 0
 657.333333333 35 637 57.6666666667 625 63 c 128
 613 68.3333333333 600.666666667 60 588 38 c 0
 584 30.6666666667 581.333333333 25.3333333333 580 22 c 128
 578.666666667 18.6666666667 579.833333333 13.3333333333 583.5 6 c 128
 587.166666667 -1.33333333333 592 -8.66666666667 598 -16 c 128
 604 -23.3333333333 615 -36.3333333333 631 -55 c 0
 688.333333333 -123.666666667 699.666666667 -161.333333333 665 -168 c 0
 653 -170 636.333333333 -155.333333333 615 -124 c 0
 590.333333333 -88 572.333333333 -64 561 -52 c 0
 560.333333333 -50.6666666667 559 -49 557 -47 c 0
 547.666666667 -35.6666666667 540 -32.1666666667 534 -36.5 c 128
 528 -40.8333333333 511 -61.6666666667 483 -99 c 0
 479.666666667 -103.666666667 477 -107.333333333 475 -110 c 0
 449 -144.666666667 427.666666667 -161.166666667 411 -159.5 c 128
 394.333333333 -157.833333333 371.333333333 -136.666666667 342 -96 c 0
 310 -52 291.666666667 -30 287 -30 c 0
 281 -30 270.666666667 -42.3333333333 256 -67 c 0
 240 -93 222.166666667 -116.666666667 202.5 -138 c 128
 182.833333333 -159.333333333 169.333333333 -170 162 -170 c 0
 153.333333333 -170 145.333333333 -165.333333333 138 -156 c 0
 134 -150.666666667 133.666666667 -143.833333333 137 -135.5 c 128
 140.333333333 -127.166666667 149.666666667 -113.333333333 165 -94 c 0
 194.333333333 -58.6666666667 214.666666667 -36 226 -26 c 0
 249.333333333 -4.66666666667 253 21 237 51 c 0
 228.333333333 67 218 71.8333333333 206 65.5 c 128
 194 59.1666666667 174.333333333 38.6666666667 147 4 c 0
 94.3333333333 -64 65 -76.6666666667 59 -34 c 0
 57 -20 74.6666666667 7.66666666667 112 49 c 0
 148.666666667 90.3333333333 167 115 167 123 c 0
 167 130.333333333 148.666666667 157.333333333 112 204 c 128
 75.3333333333 250.666666667 57 278.333333333 57 287 c 0
 57 296.333333333 75.3333333333 326.666666667 112 378 c 128
 148.666666667 429.333333333 167 459.333333333 167 468 c 0
 167 478 147 504.666666667 107 548 c 0
 66.3333333333 592.666666667 47 621.666666667 49 635 c 0
 55 675.666666667 86 661 142 591 c 0
 180 543.666666667 201.666666667 520 207 520 c 0
 213.666666667 520 222.333333333 528.333333333 233 545 c 0
 233.666666667 546.333333333 234.666666667 547.666666667 236 549 c 0
 243.333333333 560.333333333 244.666666667 570.333333333 240 579 c 128
 235.333333333 587.666666667 215 613 179 655 c 0
 172.333333333 663 167 669.333333333 163 674 c 0
 137.666666667 704.666666667 127 725.333333333 131 736 c 0
 139.666666667 758.666666667 159.666666667 755.333333333 191 726 c 0
 201.666666667 716 213 703.333333333 225 688 c 0
 237 672 248.5 658.333333333 259.5 647 c 128
 270.5 635.666666667 277.666666667 630 281 630 c 256
 284.333333333 630 291.333333333 636.5 302 649.5 c 128
 312.666666667 662.5 323.666666667 677.666666667 335 695 c 0
453 627 m 0
 432.333333333 654.333333333 417.166666667 670.666666667 407.5 676 c 128
 397.833333333 681.333333333 388.666666667 678.666666667 380 668 c 0
 356 637.333333333 307.833333333 567.5 235.5 458.5 c 128
 163.166666667 349.5 127 292.333333333 127 287 c 0
 127 277.666666667 173 213.333333333 265 94 c 128
 357 -25.3333333333 406.666666667 -85 414 -85 c 0
 420.666666667 -85 471 -25 565 95 c 128
 659 215 706.333333333 279.333333333 707 288 c 0
 707 297.333333333 671.333333333 347.333333333 600 438 c 0
 577.333333333 467.333333333 548.166666667 505 512.5 551 c 128
 476.833333333 597 457 622.333333333 453 627 c 0
EndSplineSet
EndChar

StartChar: ki
Encoding: 106 -1 54
Width: 850
Flags: W
HStem: -160 49<522.098 776.661> 55.5 55.5<524.159 664> 281 54<527.932 677> 518 59<529.254 560.5 652 718.5>
VStem: 218 82.5<229.613 367.295> 782 55<-103.641 -19 579.23 641 674 695>
LayerCount: 2
Fore
SplineSet
819 749 m 0
 805.666992188 757 754 760.666992188 664 760 c 0
 574 759.333007812 527.333007812 755 524 747 c 0
 519.333007812 733 525 723.5 541 718.5 c 0
 557 713.5 595.666992188 708.666992188 657 704 c 2
 782 695 l 1
 785 641 l 2
 787 604.333007812 783.666992188 583.666992188 775 579 c 0
 766.333007812 574.333007812 725.333007812 573.666992188 652 577 c 0
 606.666992188 579.666992188 576.166992188 580.333007812 560.5 579 c 0
 544.833007812 577.666992188 534.333007812 574 529 568 c 0
 520.333007812 556.666992188 518.333007812 546.333007812 523 537 c 0
 525.666992188 530.333007812 535.166992188 525.833007812 551.5 523.5 c 0
 567.833007812 521.166992188 602.333007812 519.333007812 655 518 c 2
 782 515 l 1
 782 425 l 1
 782 335 l 1
 677 338 l 2
 612.333007812 340 571.166992188 339 553.5 335 c 0
 535.833007812 331 527 321 527 305 c 2
 527 281 l 1
 654 278 l 1
 782 275 l 1
 782 195 l 1
 782 115 l 1
 672 113 l 2
 590.666992188 111.666992188 548.666992188 111 546 111 c 0
 534.666992188 109.666992188 527.333007812 102.666992188 524 90 c 0
 519.333007812 72 526 60.5 544 55.5 c 0
 562 50.5 602 49 664 51 c 2
 782 55 l 1
 785 -19 l 2
 787 -68.3330078125 784.333007812 -96.6669921875 777 -104 c 0
 770.333007812 -110.666992188 728 -113 650 -111 c 0
 572.666992188 -109 531.333007812 -112.333007812 526 -121 c 0
 516 -137 522.333007812 -147.666992188 545 -153 c 0
 565.666992188 -157.666992188 608 -160 672 -160 c 0
 759.333007812 -160 809 -158 821 -154 c 0
 828.333007812 -151.333007812 832.833007812 -124.833007812 834.5 -74.5 c 0
 836.166992188 -24.1669921875 837 99.3330078125 837 296 c 0
 837 502.666992188 836.166992188 628.666992188 834.5 674 c 0
 832.833007812 719.333007812 827.666992188 744.333007812 819 749 c 0
52 755 m 0
 54.6666666667 763 60 767.666666667 68 769 c 0
 76 770.333333333 85 768 95 762 c 0
 102.333333333 757.333333333 126.666666667 705 168 605 c 0
 177.333333333 581 187.666666667 555.333333333 199 528 c 0
 210.333333333 500.666666667 219.5 478.333333333 226.5 461 c 0
 233.5 443.666666667 237.666666667 433.666666667 239 431 c 0
 241.666666667 424.333333333 244.833333333 419.5 248.5 416.5 c 0
 252.166666667 413.5 255.333333333 413.333333333 258 416 c 0
 263.333333333 421.333333333 285 476 323 580 c 0
 352.333333333 660 373.333333333 711.666666667 386 735 c 0
 398.666666667 758.333333333 411.333333333 767.666666667 424 763 c 0
 430 761 434.5 758 437.5 754 c 0
 440.5 750 442.333333333 744.166666667 443 736.5 c 0
 443.666666667 728.833333333 442.833333333 719.833333333 440.5 709.5 c 0
 438.166666667 699.166666667 434 685.333333333 428 668 c 0
 422 650.666666667 414.833333333 631.333333333 406.5 610 c 0
 398.166666667 588.666666667 387.333333333 562.333333333 374 531 c 0
 356.666666667 489.666666667 343.833333333 458.833333333 335.5 438.5 c 0
 327.166666667 418.166666667 319.5 396.166666667 312.5 372.5 c 0
 305.5 348.833333333 301.5 331.833333333 300.5 321.5 c 0
 299.5 311.166666667 300.166666667 297.833333333 302.5 281.5 c 0
 304.833333333 265.166666667 308.5 251.333333333 313.5 240 c 0
 318.5 228.666666667 326.333333333 212.666666667 337 192 c 0
 360.333333333 145.333333333 387.5 86 418.5 14 c 0
 449.5 -58 466 -99.3333333333 468 -110 c 0
 470 -126.666666667 469.333333333 -137.5 466 -142.5 c 0
 462.666666667 -147.5 454.333333333 -149.333333333 441 -148 c 0
 431.666666667 -146.666666667 423.666666667 -142.333333333 417 -135 c 0
 410.333333333 -127.666666667 401.833333333 -113.5 391.5 -92.5 c 0
 381.166666667 -71.5 364.666666667 -34 342 20 c 0
 322 67.3333333333 304 106.666666667 288 138 c 0
 272 169.333333333 262 185 258 185 c 256
 254 185 249.5 181.166666667 244.5 173.5 c 0
 239.5 165.833333333 235 156.333333333 231 145 c 0
 215 100.333333333 190.666666667 41.5 158 -31.5 c 0
 125.333333333 -104.5 104.666666667 -145.666666667 96 -155 c 0
 86 -165 79.6666666667 -170 77 -170 c 0
 74.3333333333 -170 69.6666666667 -165.333333333 63 -156 c 0
 57 -148.666666667 53.5 -142 52.5 -136 c 0
 51.5 -130 54 -117.166666667 60 -97.5 c 0
 66 -77.8333333333 74.3333333333 -55.5 85 -30.5 c 0
 95.6666666667 -5.5 113.666666667 35 139 91 c 0
 160.333333333 139 178.833333333 183.333333333 194.5 224 c 0
 210.166666667 264.666666667 218 289.333333333 218 298 c 256
 218 306.666666667 210.166666667 331.666666667 194.5 373 c 0
 178.833333333 414.333333333 160 459.666666667 138 509 c 0
 95.3333333333 604.333333333 69.1666666667 666.166666667 59.5 694.5 c 0
 49.8333333333 722.833333333 47.3333333333 743 52 755 c 0
  Spiro
    52 755 o
    58 764.5 o
    68 769 o
    80.75 768.25 o
    95 762 o
    118.75 719.25 o
    168 605 o
    182.75 567.75 o
    199 528 o
    214.375 490.75 o
    226.5 461 o
    234.875 440.5 o
    239 431 o
    243.375 422.375 o
    248.5 416.5 o
    253.625 414.125 o
    258 416 o
    278.25 461 o
    323 580 o
    360.75 678.75 o
    386 735 o
    405 759.5 o
    424 763 o
    431.875 759.25 o
    437.5 754 o
    441.125 746.625 o
    443 736.5 o
    442.875 724 o
    440.5 709.5 o
    435.625 691.375 o
    428 668 o
    418.125 640.5 o
    406.5 610 o
    392.125 574.25 o
    374 531 o
    351.375 476.875 o
    335.5 438.5 o
    323.5 406.75 o
    312.5 372.5 o
    304.25 342 o
    300.5 321.5 o
    300.25 303.75 o
    302.5 281.5 o
    307 258.875 o
    313.5 240 o
    323.125 219.5 o
    337 192 o
    374.875 112.5 o
    418.5 14 o
    454.125 -71 o
    468 -110 o
    469 -130.625 o
    466 -142.5 o
    457.25 -147.625 o
    441 -148 o
    428 -143.75 o
    417 -135 o
    405.625 -118.875 o
    391.5 -92.5 o
    371.375 -48.625 o
    342 20 o
    313.5 85 o
    288 138 o
    268.5 173.25 o
    258 185 o
    251.625 182.125 o
    244.5 173.5 o
    237.375 160.625 o
    231 145 o
    200.75 67.375 o
    158 -31.5 o
    118 -117.125 o
    96 -155 o
    83.75 -166.25 o
    77 -170 o
    71.5 -166.5 o
    63 -156 o
    55.875 -145.5 o
    52.5 -136 o
    53.625 -121.875 o
    60 -97.5 o
    70.75 -66 o
    85 -30.5 o
    106.5 18.625 o
    139 91 o
    168.875 160.25 o
    194.5 224 o
    212.125 273 o
    218 298 o
    212.125 323.25 o
    194.5 373 o
    168.625 438 o
    138 509 o
    86.375 626.875 o
    59.5 694.5 o
    50.375 730.875 o
    0 0 z
  EndSpiro
EndSplineSet
Ligature2: "i dlig" uni093F uni0915
LCarets2: 1 0
Ligature2: "i dlig" uni093F uni0916
EndChar

StartChar: gi
Encoding: 107 -1 55
Width: 1050
Flags: W
HStem: -160 49<672.098 926.661> 55.5 55.5<674.159 814> 281 54<677.932 827> 518 59<679.254 710.5 802 868.5>
VStem: 549 76.5<-152.888 -41.6993> 932 55<-103.641 -19 579.23 641 674 695>
LayerCount: 2
Fore
SplineSet
969 749 m 0
 955.666992188 757 904 760.666992188 814 760 c 0
 724 759.333007812 677.333007812 755 674 747 c 0
 669.333007812 733 675 723.5 691 718.5 c 0
 707 713.5 745.666992188 708.666992188 807 704 c 2
 932 695 l 1
 935 641 l 2
 937 604.333007812 933.666992188 583.666992188 925 579 c 0
 916.333007812 574.333007812 875.333007812 573.666992188 802 577 c 0
 756.666992188 579.666992188 726.166992188 580.333007812 710.5 579 c 0
 694.833007812 577.666992188 684.333007812 574 679 568 c 0
 670.333007812 556.666992188 668.333007812 546.333007812 673 537 c 0
 675.666992188 530.333007812 685.166992188 525.833007812 701.5 523.5 c 0
 717.833007812 521.166992188 752.333007812 519.333007812 805 518 c 2
 932 515 l 1
 932 425 l 1
 932 335 l 1
 827 338 l 2
 762.333007812 340 721.166992188 339 703.5 335 c 0
 685.833007812 331 677 321 677 305 c 2
 677 281 l 1
 804 278 l 1
 932 275 l 1
 932 195 l 1
 932 115 l 1
 822 113 l 2
 740.666992188 111.666992188 698.666992188 111 696 111 c 0
 684.666992188 109.666992188 677.333007812 102.666992188 674 90 c 0
 669.333007812 72 676 60.5 694 55.5 c 0
 712 50.5 752 49 814 51 c 2
 932 55 l 1
 935 -19 l 2
 937 -68.3330078125 934.333007812 -96.6669921875 927 -104 c 0
 920.333007812 -110.666992188 878 -113 800 -111 c 0
 722.666992188 -109 681.333007812 -112.333007812 676 -121 c 0
 666 -137 672.333007812 -147.666992188 695 -153 c 0
 715.666992188 -157.666992188 758 -160 822 -160 c 0
 909.333007812 -160 959 -158 971 -154 c 0
 978.333007812 -151.333007812 982.833007812 -124.833007812 984.5 -74.5 c 0
 986.166992188 -24.1669921875 987 99.3330078125 987 296 c 0
 987 502.666992188 986.166992188 628.666992188 984.5 674 c 0
 982.833007812 719.333007812 977.666992188 744.333007812 969 749 c 0
312 728 m 0
 304.666992188 744.666992188 294.833007812 755 282.5 759 c 0
 270.166992188 763 259.333007812 759.333007812 250 748 c 0
 243.333007812 740 207.666992188 668 143 532 c 0
 115.666992188 474.666992188 95.1669921875 430.666992188 81.5 400 c 0
 67.8330078125 369.333007812 58.5 343.833007812 53.5 323.5 c 0
 48.5 303.166992188 48.1669921875 289.833007812 52.5 283.5 c 0
 56.8330078125 277.166992188 65.3330078125 273.333007812 78 272 c 0
 94.6669921875 270 106.666992188 273.333007812 114 282 c 0
 120 290 144.333007812 344.333007812 187 445 c 0
 205.666992188 488.333007812 219.666992188 520.5 229 541.5 c 0
 238.333007812 562.5 246.666992188 580.166992188 254 594.5 c 0
 261.333007812 608.833007812 266.166992188 615.666992188 268.5 615 c 0
 270.833007812 614.333007812 274 613.666992188 278 613 c 0
 284 607.666992188 302.333007812 561.666992188 333 475 c 0
 339 458.333007812 365.333007812 385 412 255 c 0
 428.666992188 211 455 143 491 51 c 0
 522.333007812 -25 541.666992188 -77.6669921875 549 -107 c 0
 555 -129.666992188 563.5 -146.166992188 574.5 -156.5 c 0
 585.5 -166.833007812 597.666992188 -169.333007812 611 -164 c 0
 630.333007812 -156 635.166992188 -133 625.5 -95 c 0
 615.833007812 -57 580 41.3330078125 518 200 c 0
 444 391.333007812 396.666992188 513 376 565 c 0
 365.333007812 593.666992188 352.166992188 627.666992188 336.5 667 c 0
 320.833007812 706.333007812 312.666992188 726.666992188 312 728 c 0
EndSplineSet
Ligature2: "i dlig" uni093F uni0918
Ligature2: "i dlig" uni093F uni0917
EndChar

StartChar: Ni
Encoding: 108 -1 56
Width: 1080
Flags: HW
HStem: -160 49<72.0976 326.661> 55.5 55.5<74.1592 214> 281 54<77.9316 227> 518 59<79.2538 110.5 202 268.5>
VStem: 332 55<-103.641 -19 579.23 641 674 695>
LayerCount: 2
Fore
SplineSet
1019 749 m 4
 1005.66699219 757 954 760.666992188 864 760 c 4
 774 759.333007812 727.333007812 755 724 747 c 4
 719.333007812 733 725 723.5 741 718.5 c 4
 757 713.5 795.666992188 708.666992188 857 704 c 6
 982 695 l 5
 985 641 l 6
 987 604.333007812 983.666992188 583.666992188 975 579 c 4
 966.333007812 574.333007812 925.333007812 573.666992188 852 577 c 4
 806.666992188 579.666992188 776.166992188 580.333007812 760.5 579 c 4
 744.833007812 577.666992188 734.333007812 574 729 568 c 4
 720.333007812 556.666992188 718.333007812 546.333007812 723 537 c 4
 725.666992188 530.333007812 735.166992188 525.833007812 751.5 523.5 c 4
 767.833007812 521.166992188 802.333007812 519.333007812 855 518 c 6
 982 515 l 5
 982 425 l 5
 982 335 l 5
 877 338 l 6
 812.333007812 340 771.166992188 339 753.5 335 c 4
 735.833007812 331 727 321 727 305 c 6
 727 281 l 5
 854 278 l 5
 982 275 l 5
 982 195 l 5
 982 115 l 5
 872 113 l 6
 790.666992188 111.666992188 748.666992188 111 746 111 c 4
 734.666992188 109.666992188 727.333007812 102.666992188 724 90 c 4
 719.333007812 72 726 60.5 744 55.5 c 4
 762 50.5 802 49 864 51 c 6
 982 55 l 5
 985 -19 l 6
 987 -68.3330078125 984.333007812 -96.6669921875 977 -104 c 4
 970.333007812 -110.666992188 928 -113 850 -111 c 4
 772.666992188 -109 731.333007812 -112.333007812 726 -121 c 4
 716 -137 722.333007812 -147.666992188 745 -153 c 4
 765.666992188 -157.666992188 808 -160 872 -160 c 4
 959.333007812 -160 1009 -158 1021 -154 c 4
 1028.33300781 -151.333007812 1032.83300781 -124.833007812 1034.5 -74.5 c 4
 1036.16699219 -24.1669921875 1037 99.3330078125 1037 296 c 4
 1037 502.666992188 1036.16699219 628.666992188 1034.5 674 c 4
 1032.83300781 719.333007812 1027.66699219 744.333007812 1019 749 c 4
61 755 m 0xc0
 68.3333333333 761.666666667 77 765.666666667 87 767 c 0xc0
 97 768.333333333 114.333333333 767.666666667 139 765 c 0
 178.333333333 760.333333333 204.5 754.666666667 217.5 748 c 0
 230.5 741.333333333 235.333333333 731 232 717 c 0
 228 701 220.666666667 652 210 570 c 0
 200 490 189.666666667 419.333333333 179 358 c 0
 168.333333333 284.666666667 161.666666667 232.666666667 159 202 c 0
 155 159.333333333 158.5 126.5 169.5 103.5 c 0
 180.5 80.5 211.333333333 40.3333333333 262 -17 c 0
 279.333333333 -35.6666666667 292.166666667 -49.3333333333 300.5 -58 c 0
 308.833333333 -66.6666666667 318.5 -74 329.5 -80 c 0
 340.5 -86 348.833333333 -88.6666666667 354.5 -88 c 0
 360.166666667 -87.3333333333 368.5 -83.1666666667 379.5 -75.5 c 0
 390.5 -67.8333333333 400.333333333 -58.6666666667 409 -48 c 0
 422 -32 422 -32 448 0 c 0
 494 56.6666666667 522 97.3333333333 532 122 c 0
 542 146.666666667 544.666666667 181 540 225 c 0
 535.333333333 275 523.333333333 368.666666667 504 506 c 0
 484.666666667 643.333333333 473.666666667 714.333333333 471 719 c 0
 464.333333333 730.333333333 474.666666667 740.666666667 502 750 c 0
 521.333333333 756.666666667 544.333333333 761 571 763 c 0
 609.666666667 765.666666667 635.5 765 648.5 761 c 0
 661.5 757 666.333333333 748 663 734 c 0
 661.666666667 726 657.166666667 720.833333333 649.5 718.5 c 0xa0
 641.833333333 716.166666667 625.333333333 715 600 715 c 0
 570 715 552.5 713.833333333 547.5 711.5 c 0
 542.5 709.166666667 540 700.333333333 540 685 c 0
 540 670.333333333 542.666666667 661.5 548 658.5 c 0
 553.333333333 655.5 570 652.666666667 598 650 c 0
 626.666666667 647.333333333 646.833333333 642.166666667 658.5 634.5 c 0
 670.166666667 626.833333333 673.333333333 616.666666667 668 604 c 0
 662 586 640 581 602 589 c 0
 574 595.666666667 558.333333333 593.5 555 582.5 c 0
 551.666666667 571.5 555 535.666666667 565 475 c 0
 593.666666667 309.666666667 603.333333333 197.666666667 594 139 c 0
 590 110.333333333 578.5 80.6666666667 559.5 50 c 0
 540.5 19.3333333333 505.666666667 -26.3333333333 455 -87 c 0
 422.333333333 -126.333333333 397.833333333 -149.5 381.5 -156.5 c 0
 365.166666667 -163.5 343.666666667 -160 317 -146 c 0
 302.333333333 -138 271.333333333 -108.666666667 224 -58 c 0
 176.666666667 -7.33333333333 142.333333333 33.3333333333 121 64 c 0
 104.333333333 88.6666666667 96 119.666666667 96 157 c 0
 96 194.333333333 104 264 120 366 c 0
 138 475.333333333 146 538.333333333 144 555 c 0
 142 569 134 578 120 582 c 0
 117.333333333 582.666666667 110 584 98 586 c 0
 79.3333333333 589.333333333 66.5 593.166666667 59.5 597.5 c 0
 52.5 601.833333333 48.3333333333 608.333333333 47 617 c 0
 45 630.333333333 50.3333333333 639.333333333 63 644 c 0
 75.6666666667 648.666666667 91 647.333333333 109 640 c 0
 128.333333333 632.666666667 141 629.666666667 147 631 c 0
 153 632.333333333 159 638.666666667 165 650 c 0
 175 667.333333333 174.833333333 681.666666667 164.5 693 c 0
 154.166666667 704.333333333 136.333333333 710 111 710 c 0
 73.6666666667 710 53.6666666667 717.666666667 51 733 c 0
 50.3333333333 739.666666667 53.6666666667 747 61 755 c 0xc0
EndSplineSet
Ligature2: "i dlig" uni093F uni0919
LCarets2: 1 0
EndChar

StartChar: ci
Encoding: 109 -1 57
Width: 900
Flags: HW
HStem: -160 49<72.0976 326.661> 55.5 55.5<74.1592 214> 281 54<77.9316 227> 518 59<79.2538 110.5 202 268.5>
VStem: 332 55<-103.641 -19 579.23 641 674 695>
LayerCount: 2
Fore
SplineSet
844 749 m 4
 830.666992188 757 779 760.666992188 689 760 c 4
 599 759.333007812 552.333007812 755 549 747 c 4
 544.333007812 733 550 723.5 566 718.5 c 4
 582 713.5 620.666992188 708.666992188 682 704 c 6
 807 695 l 5
 810 641 l 6
 812 604.333007812 808.666992188 583.666992188 800 579 c 4
 791.333007812 574.333007812 750.333007812 573.666992188 677 577 c 4
 631.666992188 579.666992188 601.166992188 580.333007812 585.5 579 c 4
 569.833007812 577.666992188 559.333007812 574 554 568 c 4
 545.333007812 556.666992188 543.333007812 546.333007812 548 537 c 4
 550.666992188 530.333007812 560.166992188 525.833007812 576.5 523.5 c 4
 592.833007812 521.166992188 627.333007812 519.333007812 680 518 c 6
 807 515 l 5
 807 425 l 5
 807 335 l 5
 702 338 l 6
 637.333007812 340 596.166992188 339 578.5 335 c 4
 560.833007812 331 552 321 552 305 c 6
 552 281 l 5
 679 278 l 5
 807 275 l 5
 807 195 l 5
 807 115 l 5
 697 113 l 6
 615.666992188 111.666992188 573.666992188 111 571 111 c 4
 559.666992188 109.666992188 552.333007812 102.666992188 549 90 c 4
 544.333007812 72 551 60.5 569 55.5 c 4
 587 50.5 627 49 689 51 c 6
 807 55 l 5
 810 -19 l 6
 812 -68.3330078125 809.333007812 -96.6669921875 802 -104 c 4
 795.333007812 -110.666992188 753 -113 675 -111 c 4
 597.666992188 -109 556.333007812 -112.333007812 551 -121 c 4
 541 -137 547.333007812 -147.666992188 570 -153 c 4
 590.666992188 -157.666992188 633 -160 697 -160 c 4
 784.333007812 -160 834 -158 846 -154 c 4
 853.333007812 -151.333007812 857.833007812 -124.833007812 859.5 -74.5 c 4
 861.166992188 -24.1669921875 862 99.3330078125 862 296 c 4
 862 502.666992188 861.166992188 628.666992188 859.5 674 c 4
 857.833007812 719.333007812 852.666992188 744.333007812 844 749 c 4
246 760 m 0
 250.666666667 768 260 770.666666667 274 768 c 0
 282.666666667 766.666666667 288 762 290 754 c 0
 294 739.333333333 296.666666667 664.666666667 298 530 c 0
 299.333333333 374 303.333333333 293 310 287 c 0
 314 283 320.833333333 286.666666667 330.5 298 c 128
 340.166666667 309.333333333 350.5 325.833333333 361.5 347.5 c 128
 372.5 369.166666667 382 391.666666667 390 415 c 0
 403.333333333 460.333333333 412.666666667 519 418 591 c 0
 423.333333333 649.666666667 429.333333333 690.833333333 436 714.5 c 128
 442.666666667 738.166666667 452 750 464 750 c 256
 476 750 483.166666667 740.666666667 485.5 722 c 128
 487.833333333 703.333333333 486 666 480 610 c 0
 472 519.333333333 462.833333333 454.333333333 452.5 415 c 128
 442.166666667 375.666666667 426 341.666666667 404 313 c 0
 388 292.333333333 380 280 380 276 c 256
 380 272 396.666666667 270 430 270 c 0
 457.333333333 270 475.5 266 484.5 258 c 128
 493.5 250 492.666666667 239.333333333 482 226 c 0
 473.333333333 216.666666667 449.333333333 213.666666667 410 217 c 0
 370 220.333333333 350 220 350 216 c 0
 350 209.333333333 359.333333333 195 378 173 c 0
 390 157.666666667 397.833333333 143 401.5 129 c 128
 405.166666667 115 407.333333333 92 408 60 c 0
 410 18 406.666666667 -16 398 -42 c 128
 389.333333333 -68 372 -97 346 -129 c 0
 326 -152.333333333 306.833333333 -162.666666667 288.5 -160 c 128
 270.166666667 -157.333333333 246.666666667 -141.333333333 218 -112 c 0
 187.333333333 -80 168.166666667 -55 160.5 -37 c 128
 152.833333333 -19 148.666666667 11.6666666667 148 55 c 0
 148 87.6666666667 149.5 110.666666667 152.5 124 c 128
 155.5 137.333333333 162.666666667 152.666666667 174 170 c 0
 191.333333333 197.333333333 200 212.666666667 200 216 c 0
 200 220 178.666666667 220.333333333 136 217 c 0
 111.333333333 214.333333333 93.6666666667 213.666666667 83 215 c 128
 72.3333333333 216.333333333 64.6666666667 219.666666667 60 225 c 0
 55.3333333333 231 53 236 53 240 c 128
 53 244 55.5 249 60.5 255 c 128
 65.5 261 72.3333333333 264.666666667 81 266 c 128
 89.6666666667 267.333333333 103.333333333 266.666666667 122 264 c 0
 151.333333333 260 166.833333333 261.5 168.5 268.5 c 128
 170.166666667 275.5 160 295.333333333 138 328 c 0
 119.333333333 355.333333333 105.333333333 387.166666667 96 423.5 c 128
 86.6666666667 459.833333333 78 515 70 589 c 0
 62.6666666667 666.333333333 59.6666666667 712.5 61 727.5 c 128
 62.3333333333 742.5 70.6666666667 750 86 750 c 0
 100.666666667 750 110.166666667 742.5 114.5 727.5 c 128
 118.833333333 712.5 124 666.333333333 130 589 c 0
 134.666666667 528.333333333 142.333333333 479.333333333 153 442 c 128
 163.666666667 404.666666667 181.333333333 365.333333333 206 324 c 0
 226 288.666666667 240.666666667 276.333333333 250 287 c 0
 254 291 256 299 256 311 c 0
 256 313 253.333333333 390 248 542 c 0
 241.333333333 680 240.666666667 752.666666667 246 760 c 0
330 156 m 0
 317.333333333 181.333333333 303.833333333 197.833333333 289.5 205.5 c 128
 275.166666667 213.166666667 262.666666667 210.333333333 252 197 c 0
 229.333333333 169.666666667 214.166666667 133.833333333 206.5 89.5 c 128
 198.833333333 45.1666666667 201.333333333 7.66666666667 214 -23 c 0
 224 -47 237.833333333 -66.5 255.5 -81.5 c 128
 273.166666667 -96.5 287.333333333 -100.666666667 298 -94 c 0
 326 -76 343.5 -40.3333333333 350.5 13 c 128
 357.5 66.3333333333 350.666666667 114 330 156 c 0
EndSplineSet
LCarets2: 1 0
Ligature2: "i dlig" uni093F uni091B
Ligature2: "i dlig" uni093F uni091A
EndChar

StartChar: ji
Encoding: 110 -1 58
Width: 1050
Flags: HW
HStem: -160 49<72.0976 326.661> 55.5 55.5<74.1592 214> 281 54<77.9316 227> 518 59<79.2538 110.5 202 268.5>
VStem: 332 55<-103.641 -19 579.23 641 674 695>
LayerCount: 2
Fore
SplineSet
969 749 m 4
 955.666992188 757 904 760.666992188 814 760 c 4
 724 759.333007812 677.333007812 755 674 747 c 4
 669.333007812 733 675 723.5 691 718.5 c 4
 707 713.5 745.666992188 708.666992188 807 704 c 6
 932 695 l 5
 935 641 l 6
 937 604.333007812 933.666992188 583.666992188 925 579 c 4
 916.333007812 574.333007812 875.333007812 573.666992188 802 577 c 4
 756.666992188 579.666992188 726.166992188 580.333007812 710.5 579 c 4
 694.833007812 577.666992188 684.333007812 574 679 568 c 4
 670.333007812 556.666992188 668.333007812 546.333007812 673 537 c 4
 675.666992188 530.333007812 685.166992188 525.833007812 701.5 523.5 c 4
 717.833007812 521.166992188 752.333007812 519.333007812 805 518 c 6
 932 515 l 5
 932 425 l 5
 932 335 l 5
 827 338 l 6
 762.333007812 340 721.166992188 339 703.5 335 c 4
 685.833007812 331 677 321 677 305 c 6
 677 281 l 5
 804 278 l 5
 932 275 l 5
 932 195 l 5
 932 115 l 5
 822 113 l 6
 740.666992188 111.666992188 698.666992188 111 696 111 c 4
 684.666992188 109.666992188 677.333007812 102.666992188 674 90 c 4
 669.333007812 72 676 60.5 694 55.5 c 4
 712 50.5 752 49 814 51 c 6
 932 55 l 5
 935 -19 l 6
 937 -68.3330078125 934.333007812 -96.6669921875 927 -104 c 4
 920.333007812 -110.666992188 878 -113 800 -111 c 4
 722.666992188 -109 681.333007812 -112.333007812 676 -121 c 4
 666 -137 672.333007812 -147.666992188 695 -153 c 4
 715.666992188 -157.666992188 758 -160 822 -160 c 4
 909.333007812 -160 959 -158 971 -154 c 4
 978.333007812 -151.333007812 982.833007812 -124.833007812 984.5 -74.5 c 4
 986.166992188 -24.1669921875 987 99.3330078125 987 296 c 4
 987 502.666992188 986.166992188 628.666992188 984.5 674 c 4
 982.833007812 719.333007812 977.666992188 744.333007812 969 749 c 4
83 762 m 0
 97 770.666666667 106.166666667 767.833333333 110.5 753.5 c 128
 114.833333333 739.166666667 117.666666667 701.666666667 119 641 c 2
 122 519 l 1
 99 522 l 2
 87.6666666667 523.333333333 80.8333333333 529.5 78.5 540.5 c 128
 76.1666666667 551.5 74.3333333333 584.333333333 73 639 c 0
 71 715.666666667 74.3333333333 756.666666667 83 762 c 0
227 755 m 0
 231.666666667 765.666666667 241 770 255 768 c 0
 265 766.666666667 271 760.166666667 273 748.5 c 128
 275 736.833333333 276 702.333333333 276 645 c 0
 276 591 275 557.333333333 273 544 c 128
 271 530.666666667 265.666666667 523.333333333 257 522 c 0
 245 519.333333333 236 522.666666667 230 532 c 0
 225.333333333 539.333333333 222.5 575.166666667 221.5 639.5 c 128
 220.5 703.833333333 222.333333333 742.333333333 227 755 c 0
405 757 m 0
 408.333333333 765 414.5 769.166666667 423.5 769.5 c 128
 432.5 769.833333333 441 766 449 758 c 0
 456.333333333 750.666666667 460.333333333 713.833333333 461 647.5 c 128
 461.666666667 581.166666667 458.666666667 542.666666667 452 532 c 0
 446 522.666666667 437 519.333333333 425 522 c 0
 416.333333333 523.333333333 410.833333333 530.166666667 408.5 542.5 c 128
 406.166666667 554.833333333 404.333333333 585.333333333 403 634 c 0
 401.666666667 707.333333333 402.333333333 748.333333333 405 757 c 0
583 762 m 0
 592.333333333 767.333333333 598.333333333 770 601 770 c 0
 614.333333333 770 622.666666667 761.666666667 626 745 c 128
 629.333333333 728.333333333 630.333333333 693 629 639 c 2
 626 525 l 1
 601 525 l 1
 576 525 l 1
 573 639 l 2
 571 715.666666667 574.333333333 756.666666667 583 762 c 0
84 413 m 0
 102.666666667 421 115.166666667 417.833333333 121.5 403.5 c 128
 127.833333333 389.166666667 131 357.666666667 131 309 c 0
 131 257 128.833333333 224.166666667 124.5 210.5 c 128
 120.166666667 196.833333333 110.333333333 190 95 190 c 0
 83 190 76 194.666666667 74 204 c 128
 72 213.333333333 71 245 71 299 c 0
 71 372.333333333 75.3333333333 410.333333333 84 413 c 0
226 407 m 0
 229.333333333 417 238.333333333 420.666666667 253 418 c 0
 264.333333333 416.666666667 271 410.833333333 273 400.5 c 128
 275 390.166666667 276 358.333333333 276 305 c 2
 276 195 l 1
 251 195 l 2
 238.333333333 195 230.833333333 199.166666667 228.5 207.5 c 128
 226.166666667 215.833333333 224.333333333 244.666666667 223 294 c 0
 221.666666667 362 222.666666667 399.666666667 226 407 c 0
401 394 m 0
 404.333333333 404 409 411.166666667 415 415.5 c 128
 421 419.833333333 427.333333333 420.666666667 434 418 c 128
 440.666666667 415.333333333 446.333333333 409.666666667 451 401 c 0
 457.666666667 388.333333333 461 356.666666667 461 306 c 128
 461 255.333333333 457.666666667 221.666666667 451 205 c 0
 445 188.333333333 436.333333333 180.666666667 425 182 c 128
 413.666666667 183.333333333 405.333333333 192.666666667 400 210 c 0
 394.666666667 229.333333333 392.166666667 261.333333333 392.5 306 c 128
 392.833333333 350.666666667 395.666666667 380 401 394 c 0
584 413 m 0
 593.333333333 415 600.833333333 417 606.5 419 c 128
 612.166666667 421 616.5 417.166666667 619.5 407.5 c 128
 622.5 397.833333333 624.333333333 386 625 372 c 128
 625.666666667 358 626 335.666666667 626 305 c 2
 626 195 l 1
 599 192 l 1
 571 189 l 1
 571 299 l 2
 571 372.333333333 575.333333333 410.333333333 584 413 c 0
83 72 m 0
 103.666666667 85.3333333333 117.333333333 79.6666666667 124 55 c 0
 128.666666667 36.3333333333 131 3.33333333333 131 -44 c 0
 131 -98 128.666666667 -133 124 -149 c 128
 119.333333333 -165 109.666666667 -171.333333333 95 -168 c 0
 86.3333333333 -166.666666667 80.8333333333 -159.666666667 78.5 -147 c 128
 76.1666666667 -134.333333333 74.3333333333 -102.333333333 73 -51 c 0
 71 25.6666666667 74.3333333333 66.6666666667 83 72 c 0
232 66 m 0
 240 75.3333333333 249.333333333 79.3333333333 260 78 c 0
 266.666666667 76.6666666667 271.166666667 68.1666666667 273.5 52.5 c 128
 275.833333333 36.8333333333 277.666666667 3.33333333333 279 -48 c 2
 282 -171 l 1
 254 -168 l 1
 226 -165 l 1
 223 -56 l 2
 221 16.6666666667 224 57.3333333333 232 66 c 0
408 73 m 0
 414.666666667 80.3333333333 422.5 82 431.5 78 c 128
 440.5 74 447.333333333 65.6666666667 452 53 c 0
 458 36.3333333333 460.333333333 -4.33333333333 459 -69 c 2
 456 -165 l 1
 429 -168 l 1
 401 -171 l 1
 401 -52 l 2
 401 28 403.333333333 69.6666666667 408 73 c 0
575 67 m 0
 579 75.6666666667 585.333333333 80 594 80 c 0
 609.333333333 80 619.333333333 71 624 53 c 128
 628.666666667 35 630.333333333 -1.33333333333 629 -56 c 128
 627.666666667 -110.666666667 625.833333333 -142.5 623.5 -151.5 c 128
 621.166666667 -160.5 613.666666667 -165 601 -165 c 128
 588.333333333 -165 580.833333333 -160.5 578.5 -151.5 c 128
 576.166666667 -142.5 574.333333333 -110.666666667 573 -56 c 0
 571.666666667 17.3333333333 572.333333333 58.3333333333 575 67 c 0
EndSplineSet
LCarets2: 1 0
Ligature2: "i dlig" uni093F uni091D
Ligature2: "i dlig" uni093F uni091C
EndChar

